<svg width="1426" height="156" viewBox="0 0 1426 156" fill="none" xmlns="http://www.w3.org/2000/svg">
<g clip-path="url(#clip0_67_1970)">
<path fill-rule="evenodd" clip-rule="evenodd" d="M134.236 0.0195312C131.729 0.655279 129.634 1.92677 128.1 3.9836C126.566 6.04043 125.444 8.69561 124.882 12.2483C114.516 20.5878 105.949 28.329 98.6154 35.6214C91.2069 42.839 88.6252 48.9347 81.329 55.7783C73.8831 62.5471 68.6822 62.9585 55.0626 76.6084C41.2933 90.333 23.3334 110.266 0.0228577 137.416L8.29191 149.981C18.8808 149.608 34.2964 148.597 55.3993 147.103C76.5397 145.532 106.398 143.176 133.862 140.632C161.287 137.939 188.939 134.873 218.422 131.283C219.545 130.236 220.742 128.852 222.015 126.982C223.25 125 224.522 122.906 225.979 120.138C224.857 113.295 223.249 106.937 221.302 100.355C219.17 93.7362 216.776 86.8925 214.118 81.283C211.424 75.6361 208.544 72.3451 205.477 66.9226C202.259 61.3878 201.137 55.8905 195.037 48.5607C188.713 41.0439 178.537 30.8346 168.397 22.6821C158.109 14.4921 146.959 7.08755 134.236 0.0195312Z" fill="black" stroke="black" stroke-width="0.036" stroke-miterlimit="10"/>
<path fill-rule="evenodd" clip-rule="evenodd" d="M3.24173 137.753C10.276 138.501 20.2288 138.388 33.811 137.417C47.4307 136.258 69.5438 132.555 83.8369 131.658C97.9056 130.76 103.967 132.63 118.036 132.368C132.142 131.957 152.421 131.022 167.313 129.864C182.018 128.742 194.403 127.245 205.479 125.525C206.938 121.187 209.109 118.606 212.288 117.634C215.393 116.624 219.361 117.335 224.187 119.766L217.713 130.199C212.025 130.911 201.663 132.107 186.021 133.789C170.269 135.36 146.062 137.978 124.509 139.923C102.919 141.755 76.9523 143.438 57.5705 144.971C38.1514 146.354 22.2493 147.55 9.00388 148.561C7.09563 144.972 5.18739 141.382 3.24173 137.753Z" fill="#EBC275" stroke="black" stroke-width="0.036" stroke-miterlimit="10"/>
<path fill-rule="evenodd" clip-rule="evenodd" d="M2.90393 135.958C8.21708 130.911 14.0915 124.739 21.238 116.887C28.3472 108.921 36.8407 97.6276 44.9975 89.2123C52.9672 80.7232 62.5459 72.0097 69.0938 66.5498C75.4546 61.0524 79.4582 60.4915 83.8359 56.49C88.064 52.339 91.9553 46.6546 95.3602 42.4662C98.8399 38.2403 99.4012 36.5201 104.714 31.6585C110.065 26.7595 117.099 20.7012 126.678 13.334C129.146 15.9892 132.814 19.2427 137.829 23.3937C142.879 27.4326 150.849 32.5186 156.537 37.7916C162.111 43.1393 166.639 49.8334 171.279 54.695C175.806 59.2948 181.119 60.9402 183.888 65.8392C186.582 70.813 185.085 79.0403 187.481 84.1637C189.876 89.1739 195.712 91.7168 197.919 95.682C200.016 99.5712 198.854 102.451 200.053 107.2C201.1 111.912 202.596 117.073 204.393 123.393C191.897 125.263 178.539 126.871 163.722 128.068C148.716 129.264 129.262 130.237 115.865 130.573C102.47 130.684 95.9599 128.928 84.2111 129.489C72.2378 130.087 58.9923 133.041 45.3353 134.163C31.6783 135.248 17.6845 135.846 2.90393 135.958Z" fill="#E4E877" stroke="black" stroke-width="0.036" stroke-miterlimit="10"/>
<path fill-rule="evenodd" clip-rule="evenodd" d="M136.033 2.52562C133.451 2.22644 131.356 3.04917 129.897 4.69464C128.401 6.3027 127.39 9.03268 127.017 12.5854C130.196 14.9414 133.864 17.7088 138.166 20.8875C142.394 24.0662 148.308 27.9929 152.572 31.6578C156.651 35.2479 160.054 38.8006 163.386 42.4655C166.64 46.0182 169.035 49.6083 172.74 53.2358C176.481 56.6763 182.916 58.9949 185.685 63.6695C188.304 68.3442 187.482 76.9454 188.565 80.9469C189.5 84.7624 189.801 84.2752 191.785 86.706C193.804 89.1005 198.705 92.0164 200.426 95.3073C201.997 98.4113 200.164 101.403 201.139 105.741C202.072 110.043 203.496 115.202 205.816 121.223C205.964 117.297 207.573 115.014 210.493 114.38C213.449 113.744 217.675 114.604 223.474 117.258C222.24 107.61 220.071 99.0834 216.964 91.3796C213.746 83.6395 208.509 77.6923 204.73 71.2227C201.026 64.6782 198.668 58.9191 194.328 52.5242C189.802 46.0172 186.058 40.1459 177.753 32.7413C169.221 25.0749 150.925 13.1079 143.928 7.94713C136.894 2.86219 134.312 1.10453 136.033 2.52562Z" fill="#A16121" stroke="black" stroke-width="0.036" stroke-miterlimit="10"/>
<path fill-rule="evenodd" clip-rule="evenodd" d="M96.0721 93.5127C94.2013 90.7828 93.6026 87.9406 94.2761 84.5364C94.9496 81.0211 96.6334 76.011 100.038 73.3922C103.406 70.6248 109.093 68.7924 114.069 69.0541C118.933 69.3907 126.044 71.9337 129.186 75.5238C132.217 79.0017 133.301 83.7511 132.44 89.9216C128.362 88.5753 124.994 87.977 122.339 88.1255C119.606 88.2003 117.286 89.1726 116.239 90.6311C115.155 92.0896 114.779 94.0342 115.528 96.7642C111.3 94.483 108.194 93.4733 105.799 93.8846C103.405 94.296 102.02 95.8293 101.496 98.9332C99.7005 97.1402 97.9055 95.3441 96.0721 93.5127Z" fill="black" stroke="black" stroke-width="0.036" stroke-miterlimit="10"/>
<path fill-rule="evenodd" clip-rule="evenodd" d="M96.783 91.3805C95.6231 88.8385 95.2864 86.2945 96.0721 83.4523C96.783 80.5354 97.943 76.5339 101.123 74.4771C104.192 72.3455 109.879 70.3634 114.445 70.8496C118.971 71.261 125.108 74.0283 128.101 76.9827C130.944 79.8996 132.143 83.5645 131.694 88.127C129.785 86.7059 127.466 86.0327 124.883 85.9579C122.078 85.7336 117.774 86.3319 115.865 87.754C113.882 89.1741 113.359 91.4553 113.733 94.5977C110.889 92.3912 108.307 91.3805 106.137 91.7181C103.817 91.9799 102.059 93.5879 100.412 96.3927C99.2141 94.7462 98.0178 93.0634 96.783 91.3805Z" fill="#CD3204" stroke="black" stroke-width="0.036" stroke-miterlimit="10"/>
<path fill-rule="evenodd" clip-rule="evenodd" d="M142.505 91.7168C142.728 94.6711 143.776 99.3457 146.807 102.862C149.726 106.303 154.366 110.715 160.127 112.211C165.927 113.595 177.114 113.968 181.006 111.164C184.599 108.098 184.671 99.9067 182.092 94.9703C179.359 89.9601 171.315 83.6764 165.178 82.031C159.006 80.3855 149.09 83.5268 145.386 85.2481C141.531 86.8178 142.205 88.6876 142.505 91.7168Z" fill="black" stroke="black" stroke-width="0.036" stroke-miterlimit="10"/>
<path fill-rule="evenodd" clip-rule="evenodd" d="M143.742 91.7919C143.929 94.7089 144.939 98.8225 147.784 102.263C150.589 105.442 154.818 109.668 160.317 111.051C165.705 112.323 176.332 112.659 179.925 110.042C183.404 107.124 183.366 99.4957 180.972 94.8211C178.315 90.0717 170.832 84.2751 165.033 82.6297C159.158 81.0964 150.027 84.0882 146.436 85.6962C142.918 87.0799 143.368 89.0619 143.742 91.7919Z" fill="white" stroke="black" stroke-width="0.036" stroke-miterlimit="10"/>
<path fill-rule="evenodd" clip-rule="evenodd" d="M38.5245 93.8856C42.2661 96.3912 46.7187 97.2513 52.1815 96.7651C57.6069 96.1668 67.2604 94.4081 70.8898 90.632C74.2947 86.7428 73.6212 78.2537 73.0599 74.1026C72.4239 69.9889 70.7775 67.1842 67.672 65.8379C59.0287 74.0652 52.406 80.5349 47.5044 85.2469C42.6403 89.8841 39.647 92.7637 38.5245 93.8856Z" fill="black" stroke="black" stroke-width="0.036" stroke-miterlimit="10"/>
<path fill-rule="evenodd" clip-rule="evenodd" d="M42.1165 93.8854C44.324 90.9311 47.5044 87.3784 51.8073 83.0788C56.0728 78.7033 61.3111 73.7295 67.6719 68.0078C69.6924 68.7184 71.002 70.4386 71.6007 73.7295C72.1993 76.9083 72.7606 83.6023 71.2639 87.0428C69.5428 90.2964 65.9134 92.0166 62.2465 93.5135C58.5423 94.8972 53.0047 95.5693 49.6746 95.6826C46.3081 95.7189 43.8387 95.1195 42.1165 93.8854Z" fill="#DA4100" stroke="black" stroke-width="0.036" stroke-miterlimit="10"/>
<path fill-rule="evenodd" clip-rule="evenodd" d="M143.742 91.7919C143.929 94.7089 144.939 98.8225 147.784 102.263C150.589 105.442 154.818 109.668 160.317 111.051C165.705 112.323 176.332 112.659 179.925 110.042C183.404 107.124 183.366 99.4957 180.972 94.8211C178.315 90.0717 170.832 84.2751 165.033 82.6297C159.158 81.0964 150.027 84.0882 146.436 85.6962C142.918 87.0799 143.368 89.0619 143.742 91.7919Z" fill="#CD3204" stroke="black" stroke-width="0.036" stroke-miterlimit="10"/>
<path fill-rule="evenodd" clip-rule="evenodd" d="M110.327 34.7988C110.514 37.267 111.412 41.3432 114.031 44.2976C116.614 47.2519 120.392 50.9168 125.369 52.2631C130.383 53.4598 139.774 53.6842 143.142 51.3282C146.173 48.7852 146.284 41.6424 144.078 37.5287C141.794 33.2281 134.835 27.9177 129.671 26.4967C124.434 25.113 115.977 27.7681 112.797 29.264C109.542 30.5355 110.065 32.3306 110.327 34.7988Z" fill="black" stroke="black" stroke-width="0.036" stroke-miterlimit="10"/>
<path fill-rule="evenodd" clip-rule="evenodd" d="M111.375 34.8371C111.488 37.2305 112.498 40.9328 114.854 43.775C117.25 46.5424 120.804 50.0951 125.518 51.2544C130.008 52.3015 139.287 52.6381 142.245 50.3942C145.163 48.0008 145.163 41.2694 143.106 37.4175C140.822 33.4534 134.574 28.3675 129.56 27.0586C124.546 25.8245 116.762 28.1805 113.695 29.639C110.589 30.9105 111.114 32.4063 111.375 34.8371Z" fill="#CD3204" stroke="black" stroke-width="0.036" stroke-miterlimit="10"/>
<path fill-rule="evenodd" clip-rule="evenodd" d="M93.2648 64.791C91.4314 65.8007 89.8225 65.9877 88.0265 65.3519C86.2305 64.604 82.6386 63.3325 82.7508 60.9391C82.676 58.5083 84.2849 52.1134 88.2884 50.9915C92.292 49.72 103.367 51.7394 106.81 54.0207C110.102 56.2645 109.691 62.8463 108.456 64.5292C107.184 66.1373 104.153 65.8007 99.3637 63.6691C98.5032 64.791 98.3535 65.9503 99.0644 67.5583C99.7005 69.129 101.085 70.7371 103.218 72.7939C102.17 74.6263 100.786 75.823 98.5032 76.384C96.2582 76.9076 93.4519 76.6832 89.9348 75.8604C90.1219 73.5792 90.496 71.5972 91.0573 69.7647C91.5447 67.8575 92.3294 66.2494 93.2648 64.791Z" fill="black" stroke="black" stroke-width="0.036" stroke-miterlimit="10"/>
<path fill-rule="evenodd" clip-rule="evenodd" d="M101.945 72.6441C100.823 71.4848 99.8876 70.4003 99.2889 69.241C98.5406 68.0443 97.9045 66.8102 98.0916 65.5387C98.1664 64.2298 99.027 62.9209 100.262 61.4624C100.673 62.0982 101.496 62.5843 102.881 62.9209C104.265 63.2575 106.024 63.4071 108.456 63.5193C108.83 62.5843 109.055 61.7616 108.98 60.4901C108.793 59.1438 109.167 57.6106 107.932 56.3017C106.623 54.918 104.639 53.6839 101.571 52.8985C98.3909 52.1132 92.6662 50.9539 89.7477 51.5897C86.7918 52.1506 85.5196 54.544 84.6216 56.1521C83.6862 57.6106 84.2101 59.1812 84.6216 60.4153C84.9584 61.5746 85.7067 62.36 86.8666 62.9209C87.9517 63.3697 89.6355 63.3697 91.0573 63.3697C92.4043 63.2201 93.6016 62.9209 94.7989 62.3226C94.5744 62.6217 94.088 63.4819 93.4894 65.3517C92.8907 67.1094 92.0301 69.5776 91.0573 72.9059C93.0404 73.579 94.9486 74.0278 96.782 73.953C98.579 73.8408 100.299 73.5042 101.945 72.6441Z" fill="#D9BC87" stroke="black" stroke-width="0.036" stroke-miterlimit="10"/>
<path fill-rule="evenodd" clip-rule="evenodd" d="M107.595 120.999C107.782 123.43 107.034 125.188 105.5 126.833C103.779 128.291 100.636 131.357 98.0916 130.124C95.4724 128.74 89.598 124.028 90.4212 119.166C91.3192 114.229 98.8773 103.497 103.143 101.103C107.184 98.7097 114.031 102.524 115.154 104.768C116.238 106.974 114.329 109.854 109.578 113.967C110.252 115.463 111.562 116.099 113.507 116.285C115.491 116.435 117.96 115.724 121.216 114.565C122.675 116.472 123.235 118.753 122.6 121.409C121.927 124.027 120.317 126.906 117.623 130.197C115.305 128.813 113.396 127.43 111.75 125.896C110.065 124.29 108.68 122.794 107.595 120.999Z" fill="black" stroke="black" stroke-width="0.036" stroke-miterlimit="10"/>
<path fill-rule="evenodd" clip-rule="evenodd" d="M120.392 115.839C118.634 116.511 116.912 116.773 115.378 116.923C113.695 116.96 112.199 117.034 110.889 116.288C109.654 115.427 108.457 114.006 107.709 111.875C108.532 111.8 109.542 111.127 110.59 109.855C111.6 108.584 112.76 106.715 114.069 104.247C113.396 103.312 112.423 102.712 111.151 102.152C109.804 101.553 108.083 100.432 106.137 101.104C104.042 101.665 101.647 103.273 99.2525 106.078C96.7456 108.883 92.6672 114.567 91.7692 117.933C90.8712 121.224 92.7795 123.954 94.0142 125.712C95.2116 127.32 97.0075 127.655 98.5416 127.881C99.8886 128.03 101.198 127.73 102.321 126.833C103.294 125.86 104.416 124.066 104.977 122.608C105.576 121.149 105.8 119.653 105.8 118.12C105.95 118.457 106.736 119.429 108.307 121.038C109.879 122.571 112.086 124.778 115.08 127.508C116.837 125.713 118.185 123.918 119.122 121.973C120.019 119.952 120.392 118.044 120.392 115.839Z" fill="#CCB894" stroke="black" stroke-width="0.036" stroke-miterlimit="10"/>
<path fill-rule="evenodd" clip-rule="evenodd" d="M184.224 103.46C186.62 104.17 188.341 105.665 189.238 107.798C190.099 109.967 191.932 114.229 189.687 116.398C187.294 118.418 180.408 122.456 175.807 119.877C171.205 117.147 163.573 105.292 162.711 100.319C161.925 95.1952 168.21 89.996 170.904 89.7726C173.411 89.5856 175.77 92.4289 177.977 98.8601C179.623 98.6731 180.933 97.7008 181.757 95.7935C182.618 93.7751 182.992 91.1937 183.028 87.4925C185.574 86.7061 187.967 87.1185 190.363 88.7266C192.795 90.2972 194.889 93.0646 197.21 97.0287C194.965 98.7489 192.833 100.095 190.663 101.217C188.453 102.262 186.358 103.01 184.224 103.46Z" fill="black" stroke="black" stroke-width="0.036" stroke-miterlimit="10"/>
<path fill-rule="evenodd" clip-rule="evenodd" d="M183.963 88.8008C183.888 90.8566 183.664 92.4657 183.14 94.1859C182.542 95.7576 182.093 97.3657 180.783 98.4118C179.435 99.2719 177.563 99.9066 175.171 99.9066C175.394 98.9727 175.096 97.8124 174.272 96.2802C173.375 94.7084 171.954 92.8386 170.006 90.6706C168.809 90.895 167.836 91.6429 166.788 92.7649C165.629 93.813 164.02 95.0461 163.832 97.3283C163.645 99.6459 164.281 102.414 166.152 106.079C168.097 109.557 171.988 115.765 175.095 118.046C178.051 120.141 181.493 119.243 183.7 118.795C185.721 118.234 186.844 116.438 187.629 115.13C188.34 113.709 188.415 112.363 188.002 110.942C187.479 109.447 185.983 107.839 184.821 106.717C183.624 105.52 182.127 104.772 180.631 104.174C181.005 104.137 182.353 103.725 184.523 102.79C186.654 101.743 189.61 100.472 193.54 98.5271C192.492 96.0225 191.183 94.0405 189.61 92.4324C188.005 90.7454 186.171 89.5861 183.963 88.8008Z" fill="#EBC275" stroke="black" stroke-width="0.036" stroke-miterlimit="10"/>
</g>
<g clip-path="url(#clip1_67_1970)">
<path fill-rule="evenodd" clip-rule="evenodd" d="M434.166 0.0195312C431.66 0.655279 429.566 1.92677 428.032 3.9836C426.499 6.04043 425.378 8.69561 424.816 12.2483C414.456 20.5878 405.893 28.329 398.564 35.6214C391.159 42.839 388.579 48.9347 381.286 55.7783C373.844 62.5471 368.646 62.9585 355.034 76.6084C341.272 90.333 323.321 110.266 300.023 137.416L308.288 149.981C318.871 149.608 334.278 148.597 355.37 147.103C376.5 145.532 406.342 143.176 433.792 140.632C461.202 137.939 488.84 134.873 518.308 131.283C519.429 130.236 520.626 128.852 521.899 126.982C523.133 125 524.404 122.906 525.861 120.138C524.739 113.295 523.132 106.937 521.186 100.355C519.055 93.7362 516.662 86.8925 514.006 81.283C511.313 75.6361 508.435 72.3451 505.369 66.9226C502.153 61.3878 501.031 55.8905 494.934 48.5607C488.614 41.0439 478.443 30.8346 468.309 22.6821C458.026 14.4921 446.882 7.08755 434.166 0.0195312Z" fill="black" stroke="black" stroke-width="0.036" stroke-miterlimit="10"/>
<path fill-rule="evenodd" clip-rule="evenodd" d="M303.24 137.753C310.271 138.501 320.218 138.388 333.793 137.417C347.406 136.258 369.507 132.555 383.793 131.658C397.854 130.76 403.912 132.63 417.974 132.368C432.072 131.957 452.341 131.022 467.225 129.864C481.922 128.742 494.301 127.245 505.371 125.525C506.83 121.187 508.999 118.606 512.177 117.634C515.28 116.624 519.246 117.335 524.07 119.766L517.599 130.199C511.914 130.911 501.557 132.107 485.924 133.789C470.18 135.36 445.985 137.978 424.443 139.923C402.865 141.755 376.912 143.438 357.54 144.971C338.131 146.354 322.238 147.55 308.999 148.561C307.092 144.972 305.185 141.382 303.24 137.753Z" fill="#EBC275" stroke="black" stroke-width="0.036" stroke-miterlimit="10"/>
<path fill-rule="evenodd" clip-rule="evenodd" d="M302.902 135.958C308.213 130.911 314.084 124.739 321.227 116.887C328.332 108.921 336.821 97.6276 344.974 89.2123C352.939 80.7232 362.513 72.0097 369.058 66.5498C375.415 61.0524 379.416 60.4915 383.792 56.49C388.018 52.339 391.907 46.6546 395.31 42.4662C398.788 38.2403 399.349 36.5201 404.659 31.6585C410.007 26.7595 417.038 20.7012 426.611 13.334C429.079 15.9892 432.744 19.2427 437.757 23.3937C442.804 27.4326 450.77 32.5186 456.455 37.7916C462.026 43.1393 466.551 49.8334 471.189 54.695C475.713 59.2948 481.024 60.9402 483.791 65.8392C486.484 70.813 484.988 79.0403 487.382 84.1637C489.777 89.1739 495.61 91.7168 497.815 95.682C499.911 99.5712 498.75 102.451 499.948 107.2C500.995 111.912 502.49 117.073 504.286 123.393C491.796 125.263 478.446 126.871 463.636 128.068C448.638 129.264 429.194 130.237 415.805 130.573C402.417 130.684 395.91 128.928 384.167 129.489C372.2 130.087 358.961 133.041 345.312 134.163C331.662 135.248 317.675 135.846 302.902 135.958Z" fill="#E4E877" stroke="black" stroke-width="0.036" stroke-miterlimit="10"/>
<path fill-rule="evenodd" clip-rule="evenodd" d="M435.962 2.52562C433.381 2.22644 431.287 3.04917 429.829 4.69464C428.334 6.3027 427.323 9.03268 426.95 12.5854C430.128 14.9414 433.794 17.7088 438.093 20.8875C442.319 24.0662 448.23 27.9929 452.492 31.6578C456.568 35.2479 459.97 38.8006 463.3 42.4655C466.552 46.0182 468.947 49.6083 472.649 53.2358C476.389 56.6763 482.82 58.9949 485.587 63.6695C488.205 68.3442 487.383 76.9454 488.466 80.9469C489.401 84.7624 489.701 84.2752 491.684 86.706C493.702 89.1005 498.6 92.0164 500.321 95.3073C501.891 98.4113 500.059 101.403 501.033 105.741C501.966 110.043 503.389 115.202 505.708 121.223C505.856 117.297 507.464 115.014 510.382 114.38C513.337 113.744 517.561 114.604 523.357 117.258C522.123 107.61 519.955 99.0834 516.85 91.3796C513.634 83.6395 508.399 77.6923 504.622 71.2227C500.92 64.6782 498.564 58.9191 494.226 52.5242C489.702 46.0172 485.96 40.1459 477.66 32.7413C469.133 25.0749 450.846 13.1079 443.852 7.94713C436.822 2.86219 434.241 1.10453 435.962 2.52562Z" fill="#A16121" stroke="black" stroke-width="0.036" stroke-miterlimit="10"/>
<path fill-rule="evenodd" clip-rule="evenodd" d="M396.022 93.5127C394.152 90.7828 393.554 87.9406 394.227 84.5364C394.9 81.0211 396.583 76.011 399.986 73.3922C403.352 70.6248 409.036 68.7924 414.01 69.0541C418.87 69.3907 425.978 71.9337 429.118 75.5238C432.147 79.0017 433.231 83.7511 432.37 89.9216C428.294 88.5753 424.929 87.977 422.274 88.1255C419.543 88.2003 417.225 89.1726 416.178 90.6311C415.094 92.0896 414.719 94.0342 415.467 96.7642C411.241 94.483 408.137 93.4733 405.744 93.8846C403.35 94.296 401.967 95.8293 401.443 98.9332C399.648 97.1402 397.854 95.3441 396.022 93.5127Z" fill="black" stroke="black" stroke-width="0.036" stroke-miterlimit="10"/>
<path fill-rule="evenodd" clip-rule="evenodd" d="M396.732 91.3805C395.573 88.8385 395.236 86.2945 396.022 83.4523C396.732 80.5354 397.892 76.5339 401.07 74.4771C404.137 72.3455 409.821 70.3634 414.385 70.8496C418.909 71.261 425.043 74.0283 428.033 76.9827C430.876 79.8996 432.073 83.5645 431.625 88.127C429.717 86.7059 427.399 86.0327 424.817 85.9579C422.014 85.7336 417.712 86.3319 415.805 87.754C413.823 89.1741 413.299 91.4553 413.673 94.5977C410.831 92.3912 408.251 91.3805 406.082 91.7181C403.763 91.9799 402.005 93.5879 400.36 96.3927C399.162 94.7462 397.966 93.0634 396.732 91.3805Z" fill="#CD3204" stroke="black" stroke-width="0.036" stroke-miterlimit="10"/>
<path fill-rule="evenodd" clip-rule="evenodd" d="M442.43 91.7168C442.654 94.6711 443.701 99.3457 446.73 102.862C449.648 106.303 454.285 110.715 460.043 112.211C465.84 113.595 477.021 113.968 480.911 111.164C484.502 108.098 484.574 99.9067 481.996 94.9703C479.265 89.9601 471.225 83.6764 465.092 82.031C458.922 80.3855 449.012 83.5268 445.31 85.2481C441.457 86.8178 442.13 88.6876 442.43 91.7168Z" fill="black" stroke="black" stroke-width="0.036" stroke-miterlimit="10"/>
<path fill-rule="evenodd" clip-rule="evenodd" d="M443.666 91.7919C443.853 94.7089 444.863 98.8225 447.706 102.263C450.51 105.442 454.737 109.668 460.233 111.051C465.618 112.323 476.239 112.659 479.83 110.042C483.308 107.124 483.27 99.4957 480.877 94.8211C478.221 90.0717 470.743 84.2751 464.946 82.6297C459.075 81.0964 449.948 84.0882 446.359 85.6962C442.843 87.0799 443.292 89.0619 443.666 91.7919Z" fill="white" stroke="black" stroke-width="0.036" stroke-miterlimit="10"/>
<path fill-rule="evenodd" clip-rule="evenodd" d="M338.504 93.8856C342.244 96.3912 346.694 97.2513 352.154 96.7651C357.577 96.1668 367.225 94.4081 370.853 90.632C374.256 86.7428 373.583 78.2537 373.022 74.1026C372.386 69.9889 370.74 67.1842 367.636 65.8379C358.998 74.0652 352.379 80.5349 347.48 85.2469C342.618 89.8841 339.626 92.7637 338.504 93.8856Z" fill="black" stroke="black" stroke-width="0.036" stroke-miterlimit="10"/>
<path fill-rule="evenodd" clip-rule="evenodd" d="M342.094 93.8854C344.301 90.9311 347.48 87.3784 351.78 83.0788C356.043 78.7033 361.279 73.7295 367.636 68.0078C369.656 68.7184 370.965 70.4386 371.563 73.7295C372.161 76.9083 372.722 83.6023 371.227 87.0428C369.506 90.2964 365.879 92.0166 362.214 93.5135C358.512 94.8972 352.977 95.5693 349.649 95.6826C346.284 95.7189 343.816 95.1195 342.094 93.8854Z" fill="#DA4100" stroke="black" stroke-width="0.036" stroke-miterlimit="10"/>
<path fill-rule="evenodd" clip-rule="evenodd" d="M443.666 91.7919C443.853 94.7089 444.863 98.8225 447.706 102.263C450.51 105.442 454.737 109.668 460.233 111.051C465.618 112.323 476.239 112.659 479.83 110.042C483.308 107.124 483.27 99.4957 480.877 94.8211C478.221 90.0717 470.743 84.2751 464.946 82.6297C459.075 81.0964 449.948 84.0882 446.359 85.6962C442.843 87.0799 443.292 89.0619 443.666 91.7919Z" fill="#CD3204" stroke="black" stroke-width="0.036" stroke-miterlimit="10"/>
<path fill-rule="evenodd" clip-rule="evenodd" d="M410.269 34.7988C410.456 37.267 411.353 41.3432 413.971 44.2976C416.553 47.2519 420.329 50.9168 425.304 52.2631C430.315 53.4598 439.7 53.6842 443.067 51.3282C446.096 48.7852 446.207 41.6424 444.002 37.5287C441.72 33.2281 434.764 27.9177 429.603 26.4967C424.369 25.113 415.916 27.7681 412.738 29.264C409.485 30.5355 410.007 32.3306 410.269 34.7988Z" fill="black" stroke="black" stroke-width="0.036" stroke-miterlimit="10"/>
<path fill-rule="evenodd" clip-rule="evenodd" d="M411.317 34.8371C411.429 37.2305 412.439 40.9328 414.794 43.775C417.188 46.5424 420.741 50.0951 425.452 51.2544C429.94 52.3015 439.214 52.6381 442.171 50.3942C445.086 48.0008 445.086 41.2694 443.031 37.4175C440.748 33.4534 434.503 28.3675 429.492 27.0586C424.481 25.8245 416.701 28.1805 413.636 29.639C410.531 30.9105 411.055 32.4063 411.317 34.8371Z" fill="#CD3204" stroke="black" stroke-width="0.036" stroke-miterlimit="10"/>
<path fill-rule="evenodd" clip-rule="evenodd" d="M393.216 64.791C391.383 65.8007 389.775 65.9877 387.98 65.3519C386.185 64.604 382.595 63.3325 382.707 60.9391C382.633 58.5083 384.241 52.1134 388.242 50.9915C392.244 49.72 403.313 51.7394 406.754 54.0207C410.045 56.2645 409.633 62.8463 408.399 64.5292C407.128 66.1373 404.098 65.8007 399.312 63.6691C398.451 64.791 398.302 65.9503 399.012 67.5583C399.648 69.129 401.032 70.7371 403.163 72.7939C402.116 74.6263 400.733 75.823 398.451 76.384C396.208 76.9076 393.403 76.6832 389.888 75.8604C390.075 73.5792 390.449 71.5972 391.01 69.7647C391.497 67.8575 392.281 66.2494 393.216 64.791Z" fill="black" stroke="black" stroke-width="0.036" stroke-miterlimit="10"/>
<path fill-rule="evenodd" clip-rule="evenodd" d="M401.892 72.6441C400.77 71.4848 399.835 70.4003 399.237 69.241C398.489 68.0443 397.853 66.8102 398.04 65.5387C398.115 64.2298 398.975 62.9209 400.209 61.4624C400.621 62.0982 401.443 62.5843 402.827 62.9209C404.211 63.2575 405.968 63.4071 408.399 63.5193C408.773 62.5843 408.997 61.7616 408.923 60.4901C408.736 59.1438 409.11 57.6106 407.876 56.3017C406.567 54.918 404.585 53.6839 401.518 52.8985C398.339 52.1132 392.618 50.9539 389.701 51.5897C386.746 52.1506 385.475 54.544 384.577 56.1521C383.642 57.6106 384.166 59.1812 384.577 60.4153C384.914 61.5746 385.662 62.36 386.821 62.9209C387.906 63.3697 389.588 63.3697 391.01 63.3697C392.356 63.2201 393.552 62.9209 394.749 62.3226C394.525 62.6217 394.039 63.4819 393.44 65.3517C392.842 67.1094 391.982 69.5776 391.01 72.9059C392.992 73.579 394.899 74.0278 396.731 73.953C398.527 73.8408 400.247 73.5042 401.892 72.6441Z" fill="#D9BC87" stroke="black" stroke-width="0.036" stroke-miterlimit="10"/>
<path fill-rule="evenodd" clip-rule="evenodd" d="M407.539 120.999C407.726 123.43 406.978 125.188 405.445 126.833C403.724 128.291 400.583 131.357 398.04 130.124C395.422 128.74 389.551 124.028 390.374 119.166C391.271 114.229 398.825 103.497 403.089 101.103C407.128 98.7097 413.971 102.524 415.093 104.768C416.177 106.974 414.269 109.854 409.521 113.967C410.194 115.463 411.503 116.099 413.448 116.285C415.431 116.435 417.898 115.724 421.152 114.565C422.611 116.472 423.171 118.753 422.536 121.409C421.863 124.027 420.254 126.906 417.561 130.197C415.245 128.813 413.336 127.43 411.691 125.896C410.007 124.29 408.623 122.794 407.539 120.999Z" fill="black" stroke="black" stroke-width="0.036" stroke-miterlimit="10"/>
<path fill-rule="evenodd" clip-rule="evenodd" d="M420.329 115.839C418.572 116.511 416.851 116.773 415.318 116.923C413.636 116.96 412.14 117.034 410.831 116.288C409.597 115.427 408.4 114.006 407.652 111.875C408.475 111.8 409.485 111.127 410.532 109.855C411.541 108.584 412.701 106.715 414.01 104.247C413.337 103.312 412.364 102.712 411.093 102.152C409.746 101.553 408.026 100.432 406.082 101.104C403.987 101.665 401.594 103.273 399.2 106.078C396.695 108.883 392.619 114.567 391.721 117.933C390.824 121.224 392.731 123.954 393.965 125.712C395.162 127.32 396.957 127.655 398.49 127.881C399.836 128.03 401.145 127.73 402.267 126.833C403.239 125.86 404.361 124.066 404.922 122.608C405.521 121.149 405.745 119.653 405.745 118.12C405.895 118.457 406.68 119.429 408.251 121.038C409.821 122.571 412.028 124.778 415.019 127.508C416.776 125.713 418.123 123.918 419.059 121.973C419.956 119.952 420.329 118.044 420.329 115.839Z" fill="#CCB894" stroke="black" stroke-width="0.036" stroke-miterlimit="10"/>
<path fill-rule="evenodd" clip-rule="evenodd" d="M484.128 103.46C486.522 104.17 488.242 105.665 489.139 107.798C489.999 109.967 491.832 114.229 489.588 116.398C487.195 118.418 480.313 122.456 475.715 119.877C471.115 117.147 463.487 105.292 462.626 100.319C461.84 95.1952 468.122 89.996 470.814 89.7726C473.32 89.5856 475.678 92.4289 477.884 98.8601C479.529 98.6731 480.838 97.7008 481.662 95.7935C482.522 93.7751 482.896 91.1937 482.932 87.4925C485.476 86.7061 487.869 87.1185 490.263 88.7266C492.694 90.2972 494.787 93.0646 497.107 97.0287C494.863 98.7489 492.732 100.095 490.563 101.217C488.354 102.262 486.26 103.01 484.128 103.46Z" fill="black" stroke="black" stroke-width="0.036" stroke-miterlimit="10"/>
<path fill-rule="evenodd" clip-rule="evenodd" d="M483.866 88.8008C483.791 90.8566 483.568 92.4657 483.044 94.1859C482.446 95.7576 481.997 97.3657 480.688 98.4118C479.341 99.2719 477.47 99.9066 475.079 99.9066C475.302 98.9727 475.004 97.8124 474.18 96.2802C473.284 94.7084 471.864 92.8386 469.917 90.6706C468.72 90.895 467.748 91.6429 466.701 92.7649C465.543 93.813 463.933 95.0461 463.746 97.3283C463.56 99.6459 464.195 102.414 466.065 106.079C468.009 109.557 471.898 115.765 475.003 118.046C477.957 120.141 481.398 119.243 483.603 118.795C485.624 118.234 486.746 116.438 487.531 115.13C488.241 113.709 488.316 112.363 487.904 110.942C487.38 109.447 485.885 107.839 484.724 106.717C483.527 105.52 482.031 104.772 480.537 104.174C480.91 104.137 482.257 103.725 484.426 102.79C486.557 101.743 489.511 100.472 493.439 98.5271C492.391 96.0225 491.083 94.0405 489.511 92.4324C487.906 90.7454 486.073 89.5861 483.866 88.8008Z" fill="#EBC275" stroke="black" stroke-width="0.036" stroke-miterlimit="10"/>
</g>
<g clip-path="url(#clip2_67_1970)">
<path fill-rule="evenodd" clip-rule="evenodd" d="M734.166 0.0195312C731.66 0.655279 729.566 1.92677 728.032 3.9836C726.499 6.04043 725.378 8.69561 724.816 12.2483C714.456 20.5878 705.893 28.329 698.564 35.6214C691.159 42.839 688.579 48.9347 681.286 55.7783C673.844 62.5471 668.646 62.9585 655.034 76.6084C641.272 90.333 623.321 110.266 600.023 137.416L608.288 149.981C618.871 149.608 634.278 148.597 655.37 147.103C676.5 145.532 706.342 143.176 733.792 140.632C761.202 137.939 788.84 134.873 818.308 131.283C819.429 130.236 820.626 128.852 821.899 126.982C823.133 125 824.404 122.906 825.861 120.138C824.739 113.295 823.132 106.937 821.186 100.355C819.055 93.7362 816.662 86.8925 814.006 81.283C811.313 75.6361 808.435 72.3451 805.369 66.9226C802.153 61.3878 801.031 55.8905 794.934 48.5607C788.614 41.0439 778.443 30.8346 768.309 22.6821C758.026 14.4921 746.882 7.08755 734.166 0.0195312Z" fill="black" stroke="black" stroke-width="0.036" stroke-miterlimit="10"/>
<path fill-rule="evenodd" clip-rule="evenodd" d="M603.24 137.753C610.271 138.501 620.218 138.388 633.793 137.417C647.406 136.258 669.507 132.555 683.793 131.658C697.854 130.76 703.912 132.63 717.974 132.368C732.072 131.957 752.341 131.022 767.225 129.864C781.922 128.742 794.301 127.245 805.371 125.525C806.83 121.187 808.999 118.606 812.176 117.634C815.28 116.624 819.246 117.335 824.07 119.766L817.599 130.199C811.914 130.911 801.557 132.107 785.924 133.789C770.18 135.36 745.985 137.978 724.443 139.923C702.865 141.755 676.912 143.438 657.54 144.971C638.131 146.354 622.238 147.55 608.999 148.561C607.092 144.972 605.185 141.382 603.24 137.753Z" fill="#EBC275" stroke="black" stroke-width="0.036" stroke-miterlimit="10"/>
<path fill-rule="evenodd" clip-rule="evenodd" d="M602.902 135.958C608.213 130.911 614.084 124.739 621.227 116.887C628.332 108.921 636.821 97.6276 644.974 89.2123C652.939 80.7232 662.513 72.0097 669.058 66.5498C675.415 61.0524 679.416 60.4915 683.792 56.49C688.018 52.339 691.907 46.6546 695.31 42.4662C698.788 38.2403 699.349 36.5201 704.659 31.6585C710.007 26.7595 717.038 20.7012 726.611 13.334C729.079 15.9892 732.744 19.2427 737.757 23.3937C742.804 27.4326 750.77 32.5186 756.455 37.7916C762.026 43.1393 766.551 49.8334 771.189 54.695C775.713 59.2948 781.024 60.9402 783.791 65.8392C786.484 70.813 784.988 79.0403 787.382 84.1637C789.777 89.1739 795.61 91.7168 797.815 95.682C799.911 99.5712 798.75 102.451 799.948 107.2C800.995 111.912 802.49 117.073 804.286 123.393C791.796 125.263 778.446 126.871 763.636 128.068C748.638 129.264 729.194 130.237 715.805 130.573C702.417 130.684 695.91 128.928 684.167 129.489C672.2 130.087 658.961 133.041 645.312 134.163C631.662 135.248 617.675 135.846 602.902 135.958Z" fill="#E4E877" stroke="black" stroke-width="0.036" stroke-miterlimit="10"/>
<path fill-rule="evenodd" clip-rule="evenodd" d="M735.962 2.52562C733.381 2.22644 731.287 3.04917 729.829 4.69464C728.334 6.3027 727.323 9.03268 726.95 12.5854C730.128 14.9414 733.794 17.7088 738.093 20.8875C742.319 24.0662 748.23 27.9929 752.492 31.6578C756.568 35.2479 759.97 38.8006 763.3 42.4655C766.552 46.0182 768.947 49.6083 772.649 53.2358C776.389 56.6763 782.82 58.9949 785.587 63.6695C788.205 68.3442 787.383 76.9454 788.466 80.9469C789.401 84.7624 789.701 84.2752 791.684 86.706C793.702 89.1005 798.6 92.0164 800.321 95.3073C801.891 98.4113 800.059 101.403 801.033 105.741C801.966 110.043 803.389 115.202 805.708 121.223C805.856 117.297 807.464 115.014 810.382 114.38C813.337 113.744 817.561 114.604 823.357 117.258C822.123 107.61 819.955 99.0834 816.85 91.3796C813.634 83.6395 808.399 77.6923 804.622 71.2227C800.92 64.6782 798.564 58.9191 794.226 52.5242C789.702 46.0172 785.96 40.1459 777.66 32.7413C769.133 25.0749 750.846 13.1079 743.852 7.94713C736.822 2.86219 734.241 1.10453 735.962 2.52562Z" fill="#A16121" stroke="black" stroke-width="0.036" stroke-miterlimit="10"/>
<path fill-rule="evenodd" clip-rule="evenodd" d="M696.022 93.5127C694.152 90.7828 693.554 87.9406 694.227 84.5364C694.9 81.0211 696.583 76.011 699.986 73.3922C703.352 70.6248 709.036 68.7924 714.01 69.0541C718.87 69.3907 725.978 71.9337 729.118 75.5238C732.147 79.0017 733.231 83.7511 732.37 89.9216C728.294 88.5753 724.929 87.977 722.274 88.1255C719.543 88.2003 717.225 89.1726 716.178 90.6311C715.094 92.0896 714.719 94.0342 715.467 96.7642C711.241 94.483 708.137 93.4733 705.744 93.8846C703.35 94.296 701.967 95.8293 701.443 98.9332C699.648 97.1402 697.854 95.3441 696.022 93.5127Z" fill="black" stroke="black" stroke-width="0.036" stroke-miterlimit="10"/>
<path fill-rule="evenodd" clip-rule="evenodd" d="M696.732 91.3805C695.573 88.8385 695.236 86.2945 696.022 83.4523C696.732 80.5354 697.892 76.5339 701.07 74.4771C704.137 72.3455 709.821 70.3634 714.385 70.8496C718.909 71.261 725.043 74.0283 728.033 76.9827C730.876 79.8996 732.073 83.5645 731.625 88.127C729.717 86.7059 727.399 86.0327 724.817 85.9579C722.014 85.7336 717.712 86.3319 715.805 87.754C713.823 89.1741 713.299 91.4553 713.673 94.5977C710.831 92.3912 708.251 91.3805 706.082 91.7181C703.763 91.9799 702.005 93.5879 700.36 96.3927C699.162 94.7462 697.966 93.0634 696.732 91.3805Z" fill="#CD3204" stroke="black" stroke-width="0.036" stroke-miterlimit="10"/>
<path fill-rule="evenodd" clip-rule="evenodd" d="M742.43 91.7168C742.654 94.6711 743.701 99.3457 746.73 102.862C749.648 106.303 754.285 110.715 760.043 112.211C765.84 113.595 777.021 113.968 780.911 111.164C784.502 108.098 784.574 99.9067 781.996 94.9703C779.265 89.9601 771.225 83.6764 765.092 82.031C758.922 80.3855 749.012 83.5268 745.31 85.2481C741.457 86.8178 742.13 88.6876 742.43 91.7168Z" fill="black" stroke="black" stroke-width="0.036" stroke-miterlimit="10"/>
<path fill-rule="evenodd" clip-rule="evenodd" d="M743.666 91.7919C743.853 94.7089 744.863 98.8225 747.706 102.263C750.51 105.442 754.737 109.668 760.233 111.051C765.618 112.323 776.239 112.659 779.83 110.042C783.308 107.124 783.27 99.4957 780.877 94.8211C778.221 90.0717 770.743 84.2751 764.946 82.6297C759.075 81.0964 749.948 84.0882 746.359 85.6962C742.843 87.0799 743.292 89.0619 743.666 91.7919Z" fill="white" stroke="black" stroke-width="0.036" stroke-miterlimit="10"/>
<path fill-rule="evenodd" clip-rule="evenodd" d="M638.504 93.8856C642.244 96.3912 646.694 97.2513 652.154 96.7651C657.577 96.1668 667.225 94.4081 670.853 90.632C674.256 86.7428 673.583 78.2537 673.022 74.1026C672.386 69.9889 670.74 67.1842 667.636 65.8379C658.998 74.0652 652.379 80.5349 647.48 85.2469C642.618 89.8841 639.626 92.7637 638.504 93.8856Z" fill="black" stroke="black" stroke-width="0.036" stroke-miterlimit="10"/>
<path fill-rule="evenodd" clip-rule="evenodd" d="M642.094 93.8854C644.301 90.9311 647.48 87.3784 651.78 83.0788C656.043 78.7033 661.279 73.7295 667.636 68.0078C669.656 68.7184 670.965 70.4386 671.563 73.7295C672.161 76.9083 672.722 83.6023 671.227 87.0428C669.506 90.2964 665.879 92.0166 662.214 93.5135C658.512 94.8972 652.977 95.5693 649.649 95.6826C646.284 95.7189 643.816 95.1195 642.094 93.8854Z" fill="#DA4100" stroke="black" stroke-width="0.036" stroke-miterlimit="10"/>
<path fill-rule="evenodd" clip-rule="evenodd" d="M743.666 91.7919C743.853 94.7089 744.863 98.8225 747.706 102.263C750.51 105.442 754.737 109.668 760.233 111.051C765.618 112.323 776.239 112.659 779.83 110.042C783.308 107.124 783.27 99.4957 780.877 94.8211C778.221 90.0717 770.743 84.2751 764.946 82.6297C759.075 81.0964 749.948 84.0882 746.359 85.6962C742.843 87.0799 743.292 89.0619 743.666 91.7919Z" fill="#CD3204" stroke="black" stroke-width="0.036" stroke-miterlimit="10"/>
<path fill-rule="evenodd" clip-rule="evenodd" d="M710.269 34.7988C710.456 37.267 711.353 41.3432 713.971 44.2976C716.553 47.2519 720.329 50.9168 725.304 52.2631C730.315 53.4598 739.7 53.6842 743.067 51.3282C746.096 48.7852 746.207 41.6424 744.002 37.5287C741.72 33.2281 734.764 27.9177 729.603 26.4967C724.369 25.113 715.916 27.7681 712.738 29.264C709.485 30.5355 710.007 32.3306 710.269 34.7988Z" fill="black" stroke="black" stroke-width="0.036" stroke-miterlimit="10"/>
<path fill-rule="evenodd" clip-rule="evenodd" d="M711.317 34.8371C711.429 37.2305 712.439 40.9328 714.794 43.775C717.188 46.5424 720.741 50.0951 725.452 51.2544C729.94 52.3015 739.214 52.6381 742.171 50.3942C745.086 48.0008 745.086 41.2694 743.031 37.4175C740.748 33.4534 734.503 28.3675 729.492 27.0586C724.481 25.8245 716.701 28.1805 713.636 29.639C710.531 30.9105 711.055 32.4063 711.317 34.8371Z" fill="#CD3204" stroke="black" stroke-width="0.036" stroke-miterlimit="10"/>
<path fill-rule="evenodd" clip-rule="evenodd" d="M693.216 64.791C691.383 65.8007 689.775 65.9877 687.98 65.3519C686.185 64.604 682.595 63.3325 682.707 60.9391C682.633 58.5083 684.241 52.1134 688.242 50.9915C692.244 49.72 703.313 51.7394 706.754 54.0207C710.045 56.2645 709.633 62.8463 708.399 64.5292C707.128 66.1373 704.098 65.8007 699.312 63.6691C698.451 64.791 698.302 65.9503 699.012 67.5583C699.648 69.129 701.032 70.7371 703.164 72.7939C702.116 74.6263 700.733 75.823 698.452 76.384C696.208 76.9076 693.403 76.6832 689.888 75.8604C690.075 73.5792 690.449 71.5972 691.01 69.7647C691.497 67.8575 692.281 66.2494 693.216 64.791Z" fill="black" stroke="black" stroke-width="0.036" stroke-miterlimit="10"/>
<path fill-rule="evenodd" clip-rule="evenodd" d="M701.892 72.6441C700.77 71.4848 699.835 70.4003 699.237 69.241C698.489 68.0443 697.853 66.8102 698.04 65.5387C698.115 64.2298 698.975 62.9209 700.209 61.4624C700.621 62.0982 701.443 62.5843 702.827 62.9209C704.211 63.2575 705.968 63.4071 708.399 63.5193C708.773 62.5843 708.997 61.7616 708.923 60.4901C708.736 59.1438 709.11 57.6106 707.876 56.3017C706.567 54.918 704.585 53.6839 701.518 52.8985C698.339 52.1132 692.618 50.9539 689.701 51.5897C686.746 52.1506 685.475 54.544 684.577 56.1521C683.642 57.6106 684.166 59.1812 684.577 60.4153C684.914 61.5746 685.662 62.36 686.821 62.9209C687.906 63.3697 689.588 63.3697 691.01 63.3697C692.356 63.2201 693.552 62.9209 694.749 62.3226C694.525 62.6217 694.039 63.4819 693.44 65.3517C692.842 67.1094 691.982 69.5776 691.01 72.9059C692.992 73.579 694.899 74.0278 696.731 73.953C698.527 73.8408 700.247 73.5042 701.892 72.6441Z" fill="#D9BC87" stroke="black" stroke-width="0.036" stroke-miterlimit="10"/>
<path fill-rule="evenodd" clip-rule="evenodd" d="M707.539 120.999C707.726 123.43 706.978 125.188 705.445 126.833C703.724 128.291 700.583 131.357 698.04 130.124C695.422 128.74 689.551 124.028 690.374 119.166C691.271 114.229 698.825 103.497 703.089 101.103C707.128 98.7097 713.971 102.524 715.093 104.768C716.177 106.974 714.269 109.854 709.521 113.967C710.194 115.463 711.503 116.099 713.448 116.285C715.431 116.435 717.898 115.724 721.152 114.565C722.611 116.472 723.171 118.753 722.536 121.409C721.863 124.027 720.254 126.906 717.561 130.197C715.245 128.813 713.336 127.43 711.691 125.896C710.007 124.29 708.623 122.794 707.539 120.999Z" fill="black" stroke="black" stroke-width="0.036" stroke-miterlimit="10"/>
<path fill-rule="evenodd" clip-rule="evenodd" d="M720.329 115.839C718.572 116.511 716.851 116.773 715.318 116.923C713.636 116.96 712.14 117.034 710.831 116.288C709.597 115.427 708.4 114.006 707.652 111.875C708.475 111.8 709.485 111.127 710.532 109.855C711.541 108.584 712.701 106.715 714.01 104.247C713.337 103.312 712.364 102.712 711.093 102.152C709.746 101.553 708.026 100.432 706.082 101.104C703.987 101.665 701.594 103.273 699.2 106.078C696.695 108.883 692.619 114.567 691.721 117.933C690.824 121.224 692.731 123.954 693.965 125.712C695.162 127.32 696.957 127.655 698.49 127.881C699.836 128.03 701.145 127.73 702.267 126.833C703.239 125.86 704.361 124.066 704.922 122.608C705.521 121.149 705.745 119.653 705.745 118.12C705.895 118.457 706.68 119.429 708.251 121.038C709.821 122.571 712.028 124.778 715.019 127.508C716.776 125.713 718.123 123.918 719.059 121.973C719.956 119.952 720.329 118.044 720.329 115.839Z" fill="#CCB894" stroke="black" stroke-width="0.036" stroke-miterlimit="10"/>
<path fill-rule="evenodd" clip-rule="evenodd" d="M784.128 103.46C786.522 104.17 788.242 105.665 789.139 107.798C789.999 109.967 791.832 114.229 789.588 116.398C787.195 118.418 780.313 122.456 775.715 119.877C771.115 117.147 763.487 105.292 762.626 100.319C761.84 95.1952 768.122 89.996 770.814 89.7726C773.32 89.5856 775.678 92.4289 777.884 98.8601C779.529 98.6731 780.838 97.7008 781.662 95.7935C782.522 93.7751 782.896 91.1937 782.932 87.4925C785.476 86.7061 787.869 87.1185 790.263 88.7266C792.694 90.2972 794.787 93.0646 797.107 97.0287C794.863 98.7489 792.732 100.095 790.563 101.217C788.354 102.262 786.26 103.01 784.128 103.46Z" fill="black" stroke="black" stroke-width="0.036" stroke-miterlimit="10"/>
<path fill-rule="evenodd" clip-rule="evenodd" d="M783.866 88.8008C783.791 90.8566 783.568 92.4657 783.044 94.1859C782.446 95.7576 781.997 97.3657 780.688 98.4118C779.341 99.2719 777.47 99.9066 775.079 99.9066C775.302 98.9727 775.004 97.8124 774.18 96.2802C773.284 94.7084 771.864 92.8386 769.917 90.6706C768.72 90.895 767.748 91.6429 766.701 92.7649C765.543 93.813 763.933 95.0461 763.747 97.3283C763.56 99.6459 764.195 102.414 766.065 106.079C768.009 109.557 771.898 115.765 775.003 118.046C777.957 120.141 781.398 119.243 783.603 118.795C785.624 118.234 786.746 116.438 787.531 115.13C788.241 113.709 788.316 112.363 787.904 110.942C787.38 109.447 785.885 107.839 784.724 106.717C783.527 105.52 782.032 104.772 780.537 104.174C780.91 104.137 782.257 103.725 784.426 102.79C786.557 101.743 789.511 100.472 793.439 98.5271C792.391 96.0225 791.083 94.0405 789.511 92.4324C787.906 90.7454 786.073 89.5861 783.866 88.8008Z" fill="#EBC275" stroke="black" stroke-width="0.036" stroke-miterlimit="10"/>
</g>
<g clip-path="url(#clip3_67_1970)">
<path fill-rule="evenodd" clip-rule="evenodd" d="M1034.17 0.0195312C1031.66 0.655279 1029.57 1.92677 1028.03 3.9836C1026.5 6.04043 1025.38 8.69561 1024.82 12.2483C1014.46 20.5878 1005.89 28.329 998.564 35.6214C991.159 42.839 988.579 48.9347 981.286 55.7783C973.844 62.5471 968.646 62.9585 955.034 76.6084C941.272 90.333 923.321 110.266 900.023 137.416L908.288 149.981C918.871 149.608 934.278 148.597 955.37 147.103C976.5 145.532 1006.34 143.176 1033.79 140.632C1061.2 137.939 1088.84 134.873 1118.31 131.283C1119.43 130.236 1120.63 128.852 1121.9 126.982C1123.13 125 1124.4 122.906 1125.86 120.138C1124.74 113.295 1123.13 106.937 1121.19 100.355C1119.06 93.7362 1116.66 86.8925 1114.01 81.283C1111.31 75.6361 1108.43 72.3451 1105.37 66.9226C1102.15 61.3878 1101.03 55.8905 1094.93 48.5607C1088.61 41.0439 1078.44 30.8346 1068.31 22.6821C1058.03 14.4921 1046.88 7.08755 1034.17 0.0195312Z" fill="black" stroke="black" stroke-width="0.036" stroke-miterlimit="10"/>
<path fill-rule="evenodd" clip-rule="evenodd" d="M903.24 137.753C910.271 138.501 920.218 138.388 933.793 137.417C947.406 136.258 969.507 132.555 983.793 131.658C997.854 130.76 1003.91 132.63 1017.97 132.368C1032.07 131.957 1052.34 131.022 1067.23 129.864C1081.92 128.742 1094.3 127.245 1105.37 125.525C1106.83 121.187 1109 118.606 1112.18 117.634C1115.28 116.624 1119.25 117.335 1124.07 119.766L1117.6 130.199C1111.91 130.911 1101.56 132.107 1085.92 133.789C1070.18 135.36 1045.99 137.978 1024.44 139.923C1002.87 141.755 976.912 143.438 957.54 144.971C938.131 146.354 922.238 147.55 908.999 148.561C907.092 144.972 905.185 141.382 903.24 137.753Z" fill="#EBC275" stroke="black" stroke-width="0.036" stroke-miterlimit="10"/>
<path fill-rule="evenodd" clip-rule="evenodd" d="M902.902 135.958C908.213 130.911 914.084 124.739 921.227 116.887C928.332 108.921 936.821 97.6276 944.974 89.2123C952.939 80.7232 962.513 72.0097 969.058 66.5498C975.415 61.0524 979.416 60.4915 983.792 56.49C988.018 52.339 991.907 46.6546 995.31 42.4662C998.788 38.2403 999.349 36.5201 1004.66 31.6585C1010.01 26.7595 1017.04 20.7012 1026.61 13.334C1029.08 15.9892 1032.74 19.2427 1037.76 23.3937C1042.8 27.4326 1050.77 32.5186 1056.46 37.7916C1062.03 43.1393 1066.55 49.8334 1071.19 54.695C1075.71 59.2948 1081.02 60.9402 1083.79 65.8392C1086.48 70.813 1084.99 79.0403 1087.38 84.1637C1089.78 89.1739 1095.61 91.7168 1097.82 95.682C1099.91 99.5712 1098.75 102.451 1099.95 107.2C1100.99 111.912 1102.49 117.073 1104.29 123.393C1091.8 125.263 1078.45 126.871 1063.64 128.068C1048.64 129.264 1029.19 130.237 1015.8 130.573C1002.42 130.684 995.91 128.928 984.167 129.489C972.2 130.087 958.961 133.041 945.312 134.163C931.662 135.248 917.675 135.846 902.902 135.958Z" fill="#E4E877" stroke="black" stroke-width="0.036" stroke-miterlimit="10"/>
<path fill-rule="evenodd" clip-rule="evenodd" d="M1035.96 2.52562C1033.38 2.22644 1031.29 3.04917 1029.83 4.69464C1028.33 6.3027 1027.32 9.03268 1026.95 12.5854C1030.13 14.9414 1033.79 17.7088 1038.09 20.8875C1042.32 24.0662 1048.23 27.9929 1052.49 31.6578C1056.57 35.2479 1059.97 38.8006 1063.3 42.4655C1066.55 46.0182 1068.95 49.6083 1072.65 53.2358C1076.39 56.6763 1082.82 58.9949 1085.59 63.6695C1088.21 68.3442 1087.38 76.9454 1088.47 80.9469C1089.4 84.7624 1089.7 84.2752 1091.68 86.706C1093.7 89.1005 1098.6 92.0164 1100.32 95.3073C1101.89 98.4113 1100.06 101.403 1101.03 105.741C1101.97 110.043 1103.39 115.202 1105.71 121.223C1105.86 117.297 1107.46 115.014 1110.38 114.38C1113.34 113.744 1117.56 114.604 1123.36 117.258C1122.12 107.61 1119.96 99.0834 1116.85 91.3796C1113.63 83.6395 1108.4 77.6923 1104.62 71.2227C1100.92 64.6782 1098.56 58.9191 1094.23 52.5242C1089.7 46.0172 1085.96 40.1459 1077.66 32.7413C1069.13 25.0749 1050.85 13.1079 1043.85 7.94713C1036.82 2.86219 1034.24 1.10453 1035.96 2.52562Z" fill="#A16121" stroke="black" stroke-width="0.036" stroke-miterlimit="10"/>
<path fill-rule="evenodd" clip-rule="evenodd" d="M996.022 93.5127C994.152 90.7828 993.554 87.9406 994.227 84.5364C994.9 81.0211 996.583 76.011 999.986 73.3922C1003.35 70.6248 1009.04 68.7924 1014.01 69.0541C1018.87 69.3907 1025.98 71.9337 1029.12 75.5238C1032.15 79.0017 1033.23 83.7511 1032.37 89.9216C1028.29 88.5753 1024.93 87.977 1022.27 88.1255C1019.54 88.2003 1017.22 89.1726 1016.18 90.6311C1015.09 92.0896 1014.72 94.0342 1015.47 96.7642C1011.24 94.483 1008.14 93.4733 1005.74 93.8846C1003.35 94.296 1001.97 95.8293 1001.44 98.9332C999.648 97.1402 997.854 95.3441 996.022 93.5127Z" fill="black" stroke="black" stroke-width="0.036" stroke-miterlimit="10"/>
<path fill-rule="evenodd" clip-rule="evenodd" d="M996.732 91.3805C995.573 88.8385 995.236 86.2945 996.022 83.4523C996.732 80.5354 997.892 76.5339 1001.07 74.4771C1004.14 72.3455 1009.82 70.3634 1014.38 70.8496C1018.91 71.261 1025.04 74.0283 1028.03 76.9827C1030.88 79.8996 1032.07 83.5645 1031.62 88.127C1029.72 86.7059 1027.4 86.0327 1024.82 85.9579C1022.01 85.7336 1017.71 86.3319 1015.8 87.754C1013.82 89.1741 1013.3 91.4553 1013.67 94.5977C1010.83 92.3912 1008.25 91.3805 1006.08 91.7181C1003.76 91.9799 1002.01 93.5879 1000.36 96.3927C999.162 94.7462 997.966 93.0634 996.732 91.3805Z" fill="#CD3204" stroke="black" stroke-width="0.036" stroke-miterlimit="10"/>
<path fill-rule="evenodd" clip-rule="evenodd" d="M1042.43 91.7168C1042.65 94.6711 1043.7 99.3457 1046.73 102.862C1049.65 106.303 1054.29 110.715 1060.04 112.211C1065.84 113.595 1077.02 113.968 1080.91 111.164C1084.5 108.098 1084.57 99.9067 1082 94.9703C1079.27 89.9601 1071.22 83.6764 1065.09 82.031C1058.92 80.3855 1049.01 83.5268 1045.31 85.2481C1041.46 86.8178 1042.13 88.6876 1042.43 91.7168Z" fill="black" stroke="black" stroke-width="0.036" stroke-miterlimit="10"/>
<path fill-rule="evenodd" clip-rule="evenodd" d="M1043.67 91.7919C1043.85 94.7089 1044.86 98.8225 1047.71 102.263C1050.51 105.442 1054.74 109.668 1060.23 111.051C1065.62 112.323 1076.24 112.659 1079.83 110.042C1083.31 107.124 1083.27 99.4957 1080.88 94.8211C1078.22 90.0717 1070.74 84.2751 1064.95 82.6297C1059.07 81.0964 1049.95 84.0882 1046.36 85.6962C1042.84 87.0799 1043.29 89.0619 1043.67 91.7919Z" fill="white" stroke="black" stroke-width="0.036" stroke-miterlimit="10"/>
<path fill-rule="evenodd" clip-rule="evenodd" d="M938.504 93.8856C942.244 96.3912 946.694 97.2513 952.154 96.7651C957.577 96.1668 967.225 94.4081 970.853 90.632C974.256 86.7428 973.583 78.2537 973.022 74.1026C972.386 69.9889 970.74 67.1842 967.636 65.8379C958.998 74.0652 952.379 80.5349 947.48 85.2469C942.618 89.8841 939.626 92.7637 938.504 93.8856Z" fill="black" stroke="black" stroke-width="0.036" stroke-miterlimit="10"/>
<path fill-rule="evenodd" clip-rule="evenodd" d="M942.094 93.8854C944.301 90.9311 947.48 87.3784 951.78 83.0788C956.043 78.7033 961.279 73.7295 967.636 68.0078C969.656 68.7184 970.965 70.4386 971.563 73.7295C972.161 76.9083 972.722 83.6023 971.227 87.0428C969.506 90.2964 965.879 92.0166 962.214 93.5135C958.512 94.8972 952.977 95.5693 949.649 95.6826C946.284 95.7189 943.816 95.1195 942.094 93.8854Z" fill="#DA4100" stroke="black" stroke-width="0.036" stroke-miterlimit="10"/>
<path fill-rule="evenodd" clip-rule="evenodd" d="M1043.67 91.7919C1043.85 94.7089 1044.86 98.8225 1047.71 102.263C1050.51 105.442 1054.74 109.668 1060.23 111.051C1065.62 112.323 1076.24 112.659 1079.83 110.042C1083.31 107.124 1083.27 99.4957 1080.88 94.8211C1078.22 90.0717 1070.74 84.2751 1064.95 82.6297C1059.07 81.0964 1049.95 84.0882 1046.36 85.6962C1042.84 87.0799 1043.29 89.0619 1043.67 91.7919Z" fill="#CD3204" stroke="black" stroke-width="0.036" stroke-miterlimit="10"/>
<path fill-rule="evenodd" clip-rule="evenodd" d="M1010.27 34.7988C1010.46 37.267 1011.35 41.3432 1013.97 44.2976C1016.55 47.2519 1020.33 50.9168 1025.3 52.2631C1030.31 53.4598 1039.7 53.6842 1043.07 51.3282C1046.1 48.7852 1046.21 41.6424 1044 37.5287C1041.72 33.2281 1034.76 27.9177 1029.6 26.4967C1024.37 25.113 1015.92 27.7681 1012.74 29.264C1009.48 30.5355 1010.01 32.3306 1010.27 34.7988Z" fill="black" stroke="black" stroke-width="0.036" stroke-miterlimit="10"/>
<path fill-rule="evenodd" clip-rule="evenodd" d="M1011.32 34.8371C1011.43 37.2305 1012.44 40.9328 1014.79 43.775C1017.19 46.5424 1020.74 50.0951 1025.45 51.2544C1029.94 52.3015 1039.21 52.6381 1042.17 50.3942C1045.09 48.0008 1045.09 41.2694 1043.03 37.4175C1040.75 33.4534 1034.5 28.3675 1029.49 27.0586C1024.48 25.8245 1016.7 28.1805 1013.64 29.639C1010.53 30.9105 1011.06 32.4063 1011.32 34.8371Z" fill="#CD3204" stroke="black" stroke-width="0.036" stroke-miterlimit="10"/>
<path fill-rule="evenodd" clip-rule="evenodd" d="M993.216 64.791C991.383 65.8007 989.775 65.9877 987.98 65.3519C986.185 64.604 982.595 63.3325 982.707 60.9391C982.633 58.5083 984.241 52.1134 988.242 50.9915C992.244 49.72 1003.31 51.7394 1006.75 54.0207C1010.04 56.2645 1009.63 62.8463 1008.4 64.5292C1007.13 66.1373 1004.1 65.8007 999.312 63.6691C998.451 64.791 998.302 65.9503 999.012 67.5583C999.648 69.129 1001.03 70.7371 1003.16 72.7939C1002.12 74.6263 1000.73 75.823 998.452 76.384C996.208 76.9076 993.403 76.6832 989.888 75.8604C990.075 73.5792 990.449 71.5972 991.01 69.7647C991.497 67.8575 992.281 66.2494 993.216 64.791Z" fill="black" stroke="black" stroke-width="0.036" stroke-miterlimit="10"/>
<path fill-rule="evenodd" clip-rule="evenodd" d="M1001.89 72.6441C1000.77 71.4848 999.835 70.4003 999.237 69.241C998.489 68.0443 997.853 66.8102 998.04 65.5387C998.115 64.2298 998.975 62.9209 1000.21 61.4624C1000.62 62.0982 1001.44 62.5843 1002.83 62.9209C1004.21 63.2575 1005.97 63.4071 1008.4 63.5193C1008.77 62.5843 1009 61.7616 1008.92 60.4901C1008.74 59.1438 1009.11 57.6106 1007.88 56.3017C1006.57 54.918 1004.58 53.6839 1001.52 52.8985C998.339 52.1132 992.618 50.9539 989.701 51.5897C986.746 52.1506 985.475 54.544 984.577 56.1521C983.642 57.6106 984.166 59.1812 984.577 60.4153C984.914 61.5746 985.662 62.36 986.821 62.9209C987.906 63.3697 989.588 63.3697 991.01 63.3697C992.356 63.2201 993.553 62.9209 994.749 62.3226C994.525 62.6217 994.039 63.4819 993.44 65.3517C992.842 67.1094 991.982 69.5776 991.01 72.9059C992.992 73.579 994.899 74.0278 996.731 73.953C998.527 73.8408 1000.25 73.5042 1001.89 72.6441Z" fill="#D9BC87" stroke="black" stroke-width="0.036" stroke-miterlimit="10"/>
<path fill-rule="evenodd" clip-rule="evenodd" d="M1007.54 120.999C1007.73 123.43 1006.98 125.188 1005.44 126.833C1003.72 128.291 1000.58 131.357 998.04 130.124C995.422 128.74 989.551 124.028 990.374 119.166C991.271 114.229 998.825 103.497 1003.09 101.103C1007.13 98.7097 1013.97 102.524 1015.09 104.768C1016.18 106.974 1014.27 109.854 1009.52 113.967C1010.19 115.463 1011.5 116.099 1013.45 116.285C1015.43 116.435 1017.9 115.724 1021.15 114.565C1022.61 116.472 1023.17 118.753 1022.54 121.409C1021.86 124.027 1020.25 126.906 1017.56 130.197C1015.24 128.813 1013.34 127.43 1011.69 125.896C1010.01 124.29 1008.62 122.794 1007.54 120.999Z" fill="black" stroke="black" stroke-width="0.036" stroke-miterlimit="10"/>
<path fill-rule="evenodd" clip-rule="evenodd" d="M1020.33 115.839C1018.57 116.511 1016.85 116.773 1015.32 116.923C1013.64 116.96 1012.14 117.034 1010.83 116.288C1009.6 115.427 1008.4 114.006 1007.65 111.875C1008.47 111.8 1009.48 111.127 1010.53 109.855C1011.54 108.584 1012.7 106.715 1014.01 104.247C1013.34 103.312 1012.36 102.712 1011.09 102.152C1009.75 101.553 1008.03 100.432 1006.08 101.104C1003.99 101.665 1001.59 103.273 999.2 106.078C996.695 108.883 992.619 114.567 991.721 117.933C990.824 121.224 992.731 123.954 993.965 125.712C995.162 127.32 996.957 127.655 998.49 127.881C999.836 128.03 1001.15 127.73 1002.27 126.833C1003.24 125.86 1004.36 124.066 1004.92 122.608C1005.52 121.149 1005.74 119.653 1005.74 118.12C1005.89 118.457 1006.68 119.429 1008.25 121.038C1009.82 122.571 1012.03 124.778 1015.02 127.508C1016.78 125.713 1018.12 123.918 1019.06 121.973C1019.96 119.952 1020.33 118.044 1020.33 115.839Z" fill="#CCB894" stroke="black" stroke-width="0.036" stroke-miterlimit="10"/>
<path fill-rule="evenodd" clip-rule="evenodd" d="M1084.13 103.46C1086.52 104.17 1088.24 105.665 1089.14 107.798C1090 109.967 1091.83 114.229 1089.59 116.398C1087.2 118.418 1080.31 122.456 1075.71 119.877C1071.11 117.147 1063.49 105.292 1062.63 100.319C1061.84 95.1952 1068.12 89.996 1070.81 89.7726C1073.32 89.5856 1075.68 92.4289 1077.88 98.8601C1079.53 98.6731 1080.84 97.7008 1081.66 95.7935C1082.52 93.7751 1082.9 91.1937 1082.93 87.4925C1085.48 86.7061 1087.87 87.1185 1090.26 88.7266C1092.69 90.2972 1094.79 93.0646 1097.11 97.0287C1094.86 98.7489 1092.73 100.095 1090.56 101.217C1088.35 102.262 1086.26 103.01 1084.13 103.46Z" fill="black" stroke="black" stroke-width="0.036" stroke-miterlimit="10"/>
<path fill-rule="evenodd" clip-rule="evenodd" d="M1083.87 88.8008C1083.79 90.8566 1083.57 92.4657 1083.04 94.1859C1082.45 95.7576 1082 97.3657 1080.69 98.4118C1079.34 99.2719 1077.47 99.9066 1075.08 99.9066C1075.3 98.9727 1075 97.8124 1074.18 96.2802C1073.28 94.7084 1071.86 92.8386 1069.92 90.6706C1068.72 90.895 1067.75 91.6429 1066.7 92.7649C1065.54 93.813 1063.93 95.0461 1063.75 97.3283C1063.56 99.6459 1064.2 102.414 1066.07 106.079C1068.01 109.557 1071.9 115.765 1075 118.046C1077.96 120.141 1081.4 119.243 1083.6 118.795C1085.62 118.234 1086.75 116.438 1087.53 115.13C1088.24 113.709 1088.32 112.363 1087.9 110.942C1087.38 109.447 1085.89 107.839 1084.72 106.717C1083.53 105.52 1082.03 104.772 1080.54 104.174C1080.91 104.137 1082.26 103.725 1084.43 102.79C1086.56 101.743 1089.51 100.472 1093.44 98.5271C1092.39 96.0225 1091.08 94.0405 1089.51 92.4324C1087.91 90.7454 1086.07 89.5861 1083.87 88.8008Z" fill="#EBC275" stroke="black" stroke-width="0.036" stroke-miterlimit="10"/>
</g>
<g clip-path="url(#clip4_67_1970)">
<path fill-rule="evenodd" clip-rule="evenodd" d="M1334.17 0.0195312C1331.66 0.655279 1329.57 1.92677 1328.03 3.9836C1326.5 6.04043 1325.38 8.69561 1324.82 12.2483C1314.46 20.5878 1305.89 28.329 1298.56 35.6214C1291.16 42.839 1288.58 48.9347 1281.29 55.7783C1273.84 62.5471 1268.65 62.9585 1255.03 76.6084C1241.27 90.333 1223.32 110.266 1200.02 137.416L1208.29 149.981C1218.87 149.608 1234.28 148.597 1255.37 147.103C1276.5 145.532 1306.34 143.176 1333.79 140.632C1361.2 137.939 1388.84 134.873 1418.31 131.283C1419.43 130.236 1420.63 128.852 1421.9 126.982C1423.13 125 1424.4 122.906 1425.86 120.138C1424.74 113.295 1423.13 106.937 1421.19 100.355C1419.06 93.7362 1416.66 86.8925 1414.01 81.283C1411.31 75.6361 1408.43 72.3451 1405.37 66.9226C1402.15 61.3878 1401.03 55.8905 1394.93 48.5607C1388.61 41.0439 1378.44 30.8346 1368.31 22.6821C1358.03 14.4921 1346.88 7.08755 1334.17 0.0195312Z" fill="black" stroke="black" stroke-width="0.036" stroke-miterlimit="10"/>
<path fill-rule="evenodd" clip-rule="evenodd" d="M1203.24 137.753C1210.27 138.501 1220.22 138.388 1233.79 137.417C1247.41 136.258 1269.51 132.555 1283.79 131.658C1297.85 130.76 1303.91 132.63 1317.97 132.368C1332.07 131.957 1352.34 131.022 1367.23 129.864C1381.92 128.742 1394.3 127.245 1405.37 125.525C1406.83 121.187 1409 118.606 1412.18 117.634C1415.28 116.624 1419.25 117.335 1424.07 119.766L1417.6 130.199C1411.91 130.911 1401.56 132.107 1385.92 133.789C1370.18 135.36 1345.99 137.978 1324.44 139.923C1302.87 141.755 1276.91 143.438 1257.54 144.971C1238.13 146.354 1222.24 147.55 1209 148.561C1207.09 144.972 1205.18 141.382 1203.24 137.753Z" fill="#EBC275" stroke="black" stroke-width="0.036" stroke-miterlimit="10"/>
<path fill-rule="evenodd" clip-rule="evenodd" d="M1202.9 135.958C1208.21 130.911 1214.08 124.739 1221.23 116.887C1228.33 108.921 1236.82 97.6276 1244.97 89.2123C1252.94 80.7232 1262.51 72.0097 1269.06 66.5498C1275.41 61.0524 1279.42 60.4915 1283.79 56.49C1288.02 52.339 1291.91 46.6546 1295.31 42.4662C1298.79 38.2403 1299.35 36.5201 1304.66 31.6585C1310.01 26.7595 1317.04 20.7012 1326.61 13.334C1329.08 15.9892 1332.74 19.2427 1337.76 23.3937C1342.8 27.4326 1350.77 32.5186 1356.46 37.7916C1362.03 43.1393 1366.55 49.8334 1371.19 54.695C1375.71 59.2948 1381.02 60.9402 1383.79 65.8392C1386.48 70.813 1384.99 79.0403 1387.38 84.1637C1389.78 89.1739 1395.61 91.7168 1397.82 95.682C1399.91 99.5712 1398.75 102.451 1399.95 107.2C1400.99 111.912 1402.49 117.073 1404.29 123.393C1391.8 125.263 1378.45 126.871 1363.64 128.068C1348.64 129.264 1329.19 130.237 1315.8 130.573C1302.42 130.684 1295.91 128.928 1284.17 129.489C1272.2 130.087 1258.96 133.041 1245.31 134.163C1231.66 135.248 1217.68 135.846 1202.9 135.958Z" fill="#E4E877" stroke="black" stroke-width="0.036" stroke-miterlimit="10"/>
<path fill-rule="evenodd" clip-rule="evenodd" d="M1335.96 2.52562C1333.38 2.22644 1331.29 3.04917 1329.83 4.69464C1328.33 6.3027 1327.32 9.03268 1326.95 12.5854C1330.13 14.9414 1333.79 17.7088 1338.09 20.8875C1342.32 24.0662 1348.23 27.9929 1352.49 31.6578C1356.57 35.2479 1359.97 38.8006 1363.3 42.4655C1366.55 46.0182 1368.95 49.6083 1372.65 53.2358C1376.39 56.6763 1382.82 58.9949 1385.59 63.6695C1388.21 68.3442 1387.38 76.9454 1388.47 80.9469C1389.4 84.7624 1389.7 84.2752 1391.68 86.706C1393.7 89.1005 1398.6 92.0164 1400.32 95.3073C1401.89 98.4113 1400.06 101.403 1401.03 105.741C1401.97 110.043 1403.39 115.202 1405.71 121.223C1405.86 117.297 1407.46 115.014 1410.38 114.38C1413.34 113.744 1417.56 114.604 1423.36 117.258C1422.12 107.61 1419.95 99.0834 1416.85 91.3796C1413.63 83.6395 1408.4 77.6923 1404.62 71.2227C1400.92 64.6782 1398.56 58.9191 1394.23 52.5242C1389.7 46.0172 1385.96 40.1459 1377.66 32.7413C1369.13 25.0749 1350.85 13.1079 1343.85 7.94713C1336.82 2.86219 1334.24 1.10453 1335.96 2.52562Z" fill="#A16121" stroke="black" stroke-width="0.036" stroke-miterlimit="10"/>
<path fill-rule="evenodd" clip-rule="evenodd" d="M1296.02 93.5127C1294.15 90.7828 1293.55 87.9406 1294.23 84.5364C1294.9 81.0211 1296.58 76.011 1299.99 73.3922C1303.35 70.6248 1309.04 68.7924 1314.01 69.0541C1318.87 69.3907 1325.98 71.9337 1329.12 75.5238C1332.15 79.0017 1333.23 83.7511 1332.37 89.9216C1328.29 88.5753 1324.93 87.977 1322.27 88.1255C1319.54 88.2003 1317.22 89.1726 1316.18 90.6311C1315.09 92.0896 1314.72 94.0342 1315.47 96.7642C1311.24 94.483 1308.14 93.4733 1305.74 93.8846C1303.35 94.296 1301.97 95.8293 1301.44 98.9332C1299.65 97.1402 1297.85 95.3441 1296.02 93.5127Z" fill="black" stroke="black" stroke-width="0.036" stroke-miterlimit="10"/>
<path fill-rule="evenodd" clip-rule="evenodd" d="M1296.73 91.3805C1295.57 88.8385 1295.24 86.2945 1296.02 83.4523C1296.73 80.5354 1297.89 76.5339 1301.07 74.4771C1304.14 72.3455 1309.82 70.3634 1314.38 70.8496C1318.91 71.261 1325.04 74.0283 1328.03 76.9827C1330.88 79.8996 1332.07 83.5645 1331.62 88.127C1329.72 86.7059 1327.4 86.0327 1324.82 85.9579C1322.01 85.7336 1317.71 86.3319 1315.8 87.754C1313.82 89.1741 1313.3 91.4553 1313.67 94.5977C1310.83 92.3912 1308.25 91.3805 1306.08 91.7181C1303.76 91.9799 1302.01 93.5879 1300.36 96.3927C1299.16 94.7462 1297.97 93.0634 1296.73 91.3805Z" fill="#CD3204" stroke="black" stroke-width="0.036" stroke-miterlimit="10"/>
<path fill-rule="evenodd" clip-rule="evenodd" d="M1342.43 91.7168C1342.65 94.6711 1343.7 99.3457 1346.73 102.862C1349.65 106.303 1354.29 110.715 1360.04 112.211C1365.84 113.595 1377.02 113.968 1380.91 111.164C1384.5 108.098 1384.57 99.9067 1382 94.9703C1379.27 89.9601 1371.22 83.6764 1365.09 82.031C1358.92 80.3855 1349.01 83.5268 1345.31 85.2481C1341.46 86.8178 1342.13 88.6876 1342.43 91.7168Z" fill="black" stroke="black" stroke-width="0.036" stroke-miterlimit="10"/>
<path fill-rule="evenodd" clip-rule="evenodd" d="M1343.67 91.7919C1343.85 94.7089 1344.86 98.8225 1347.71 102.263C1350.51 105.442 1354.74 109.668 1360.23 111.051C1365.62 112.323 1376.24 112.659 1379.83 110.042C1383.31 107.124 1383.27 99.4957 1380.88 94.8211C1378.22 90.0717 1370.74 84.2751 1364.95 82.6297C1359.07 81.0964 1349.95 84.0882 1346.36 85.6962C1342.84 87.0799 1343.29 89.0619 1343.67 91.7919Z" fill="white" stroke="black" stroke-width="0.036" stroke-miterlimit="10"/>
<path fill-rule="evenodd" clip-rule="evenodd" d="M1238.5 93.8856C1242.24 96.3912 1246.69 97.2513 1252.15 96.7651C1257.58 96.1668 1267.23 94.4081 1270.85 90.632C1274.26 86.7428 1273.58 78.2537 1273.02 74.1026C1272.39 69.9889 1270.74 67.1842 1267.64 65.8379C1259 74.0652 1252.38 80.5349 1247.48 85.2469C1242.62 89.8841 1239.63 92.7637 1238.5 93.8856Z" fill="black" stroke="black" stroke-width="0.036" stroke-miterlimit="10"/>
<path fill-rule="evenodd" clip-rule="evenodd" d="M1242.09 93.8854C1244.3 90.9311 1247.48 87.3784 1251.78 83.0788C1256.04 78.7033 1261.28 73.7295 1267.64 68.0078C1269.66 68.7184 1270.96 70.4386 1271.56 73.7295C1272.16 76.9083 1272.72 83.6023 1271.23 87.0428C1269.51 90.2964 1265.88 92.0166 1262.21 93.5135C1258.51 94.8972 1252.98 95.5693 1249.65 95.6826C1246.28 95.7189 1243.82 95.1195 1242.09 93.8854Z" fill="#DA4100" stroke="black" stroke-width="0.036" stroke-miterlimit="10"/>
<path fill-rule="evenodd" clip-rule="evenodd" d="M1343.67 91.7919C1343.85 94.7089 1344.86 98.8225 1347.71 102.263C1350.51 105.442 1354.74 109.668 1360.23 111.051C1365.62 112.323 1376.24 112.659 1379.83 110.042C1383.31 107.124 1383.27 99.4957 1380.88 94.8211C1378.22 90.0717 1370.74 84.2751 1364.95 82.6297C1359.07 81.0964 1349.95 84.0882 1346.36 85.6962C1342.84 87.0799 1343.29 89.0619 1343.67 91.7919Z" fill="#CD3204" stroke="black" stroke-width="0.036" stroke-miterlimit="10"/>
<path fill-rule="evenodd" clip-rule="evenodd" d="M1310.27 34.7988C1310.46 37.267 1311.35 41.3432 1313.97 44.2976C1316.55 47.2519 1320.33 50.9168 1325.3 52.2631C1330.31 53.4598 1339.7 53.6842 1343.07 51.3282C1346.1 48.7852 1346.21 41.6424 1344 37.5287C1341.72 33.2281 1334.76 27.9177 1329.6 26.4967C1324.37 25.113 1315.92 27.7681 1312.74 29.264C1309.48 30.5355 1310.01 32.3306 1310.27 34.7988Z" fill="black" stroke="black" stroke-width="0.036" stroke-miterlimit="10"/>
<path fill-rule="evenodd" clip-rule="evenodd" d="M1311.32 34.8371C1311.43 37.2305 1312.44 40.9328 1314.79 43.775C1317.19 46.5424 1320.74 50.0951 1325.45 51.2544C1329.94 52.3015 1339.21 52.6381 1342.17 50.3942C1345.09 48.0008 1345.09 41.2694 1343.03 37.4175C1340.75 33.4534 1334.5 28.3675 1329.49 27.0586C1324.48 25.8245 1316.7 28.1805 1313.64 29.639C1310.53 30.9105 1311.06 32.4063 1311.32 34.8371Z" fill="#CD3204" stroke="black" stroke-width="0.036" stroke-miterlimit="10"/>
<path fill-rule="evenodd" clip-rule="evenodd" d="M1293.22 64.791C1291.38 65.8007 1289.78 65.9877 1287.98 65.3519C1286.19 64.604 1282.6 63.3325 1282.71 60.9391C1282.63 58.5083 1284.24 52.1134 1288.24 50.9915C1292.24 49.72 1303.31 51.7394 1306.75 54.0207C1310.04 56.2645 1309.63 62.8463 1308.4 64.5292C1307.13 66.1373 1304.1 65.8007 1299.31 63.6691C1298.45 64.791 1298.3 65.9503 1299.01 67.5583C1299.65 69.129 1301.03 70.7371 1303.16 72.7939C1302.12 74.6263 1300.73 75.823 1298.45 76.384C1296.21 76.9076 1293.4 76.6832 1289.89 75.8604C1290.07 73.5792 1290.45 71.5972 1291.01 69.7647C1291.5 67.8575 1292.28 66.2494 1293.22 64.791Z" fill="black" stroke="black" stroke-width="0.036" stroke-miterlimit="10"/>
<path fill-rule="evenodd" clip-rule="evenodd" d="M1301.89 72.6441C1300.77 71.4848 1299.84 70.4003 1299.24 69.241C1298.49 68.0443 1297.85 66.8102 1298.04 65.5387C1298.11 64.2298 1298.98 62.9209 1300.21 61.4624C1300.62 62.0982 1301.44 62.5843 1302.83 62.9209C1304.21 63.2575 1305.97 63.4071 1308.4 63.5193C1308.77 62.5843 1309 61.7616 1308.92 60.4901C1308.74 59.1438 1309.11 57.6106 1307.88 56.3017C1306.57 54.918 1304.58 53.6839 1301.52 52.8985C1298.34 52.1132 1292.62 50.9539 1289.7 51.5897C1286.75 52.1506 1285.47 54.544 1284.58 56.1521C1283.64 57.6106 1284.17 59.1812 1284.58 60.4153C1284.91 61.5746 1285.66 62.36 1286.82 62.9209C1287.91 63.3697 1289.59 63.3697 1291.01 63.3697C1292.36 63.2201 1293.55 62.9209 1294.75 62.3226C1294.52 62.6217 1294.04 63.4819 1293.44 65.3517C1292.84 67.1094 1291.98 69.5776 1291.01 72.9059C1292.99 73.579 1294.9 74.0278 1296.73 73.953C1298.53 73.8408 1300.25 73.5042 1301.89 72.6441Z" fill="#D9BC87" stroke="black" stroke-width="0.036" stroke-miterlimit="10"/>
<path fill-rule="evenodd" clip-rule="evenodd" d="M1307.54 120.999C1307.73 123.43 1306.98 125.188 1305.44 126.833C1303.72 128.291 1300.58 131.357 1298.04 130.124C1295.42 128.74 1289.55 124.028 1290.37 119.166C1291.27 114.229 1298.83 103.497 1303.09 101.103C1307.13 98.7097 1313.97 102.524 1315.09 104.768C1316.18 106.974 1314.27 109.854 1309.52 113.967C1310.19 115.463 1311.5 116.099 1313.45 116.285C1315.43 116.435 1317.9 115.724 1321.15 114.565C1322.61 116.472 1323.17 118.753 1322.54 121.409C1321.86 124.027 1320.25 126.906 1317.56 130.197C1315.24 128.813 1313.34 127.43 1311.69 125.896C1310.01 124.29 1308.62 122.794 1307.54 120.999Z" fill="black" stroke="black" stroke-width="0.036" stroke-miterlimit="10"/>
<path fill-rule="evenodd" clip-rule="evenodd" d="M1320.33 115.839C1318.57 116.511 1316.85 116.773 1315.32 116.923C1313.64 116.96 1312.14 117.034 1310.83 116.288C1309.6 115.427 1308.4 114.006 1307.65 111.875C1308.47 111.8 1309.48 111.127 1310.53 109.855C1311.54 108.584 1312.7 106.715 1314.01 104.247C1313.34 103.312 1312.36 102.712 1311.09 102.152C1309.75 101.553 1308.03 100.432 1306.08 101.104C1303.99 101.665 1301.59 103.273 1299.2 106.078C1296.69 108.883 1292.62 114.567 1291.72 117.933C1290.82 121.224 1292.73 123.954 1293.96 125.712C1295.16 127.32 1296.96 127.655 1298.49 127.881C1299.84 128.03 1301.15 127.73 1302.27 126.833C1303.24 125.86 1304.36 124.066 1304.92 122.608C1305.52 121.149 1305.74 119.653 1305.74 118.12C1305.89 118.457 1306.68 119.429 1308.25 121.038C1309.82 122.571 1312.03 124.778 1315.02 127.508C1316.78 125.713 1318.12 123.918 1319.06 121.973C1319.96 119.952 1320.33 118.044 1320.33 115.839Z" fill="#CCB894" stroke="black" stroke-width="0.036" stroke-miterlimit="10"/>
<path fill-rule="evenodd" clip-rule="evenodd" d="M1384.13 103.46C1386.52 104.17 1388.24 105.665 1389.14 107.798C1390 109.967 1391.83 114.229 1389.59 116.398C1387.2 118.418 1380.31 122.456 1375.71 119.877C1371.11 117.147 1363.49 105.292 1362.63 100.319C1361.84 95.1952 1368.12 89.996 1370.81 89.7726C1373.32 89.5856 1375.68 92.4289 1377.88 98.8601C1379.53 98.6731 1380.84 97.7008 1381.66 95.7935C1382.52 93.7751 1382.9 91.1937 1382.93 87.4925C1385.48 86.7061 1387.87 87.1185 1390.26 88.7266C1392.69 90.2972 1394.79 93.0646 1397.11 97.0287C1394.86 98.7489 1392.73 100.095 1390.56 101.217C1388.35 102.262 1386.26 103.01 1384.13 103.46Z" fill="black" stroke="black" stroke-width="0.036" stroke-miterlimit="10"/>
<path fill-rule="evenodd" clip-rule="evenodd" d="M1383.87 88.8008C1383.79 90.8566 1383.57 92.4657 1383.04 94.1859C1382.45 95.7576 1382 97.3657 1380.69 98.4118C1379.34 99.2719 1377.47 99.9066 1375.08 99.9066C1375.3 98.9727 1375 97.8124 1374.18 96.2802C1373.28 94.7084 1371.86 92.8386 1369.92 90.6706C1368.72 90.895 1367.75 91.6429 1366.7 92.7649C1365.54 93.813 1363.93 95.0461 1363.75 97.3283C1363.56 99.6459 1364.2 102.414 1366.07 106.079C1368.01 109.557 1371.9 115.765 1375 118.046C1377.96 120.141 1381.4 119.243 1383.6 118.795C1385.62 118.234 1386.75 116.438 1387.53 115.13C1388.24 113.709 1388.32 112.363 1387.9 110.942C1387.38 109.447 1385.89 107.839 1384.72 106.717C1383.53 105.52 1382.03 104.772 1380.54 104.174C1380.91 104.137 1382.26 103.725 1384.43 102.79C1386.56 101.743 1389.51 100.472 1393.44 98.5271C1392.39 96.0225 1391.08 94.0405 1389.51 92.4324C1387.91 90.7454 1386.07 89.5861 1383.87 88.8008Z" fill="#EBC275" stroke="black" stroke-width="0.036" stroke-miterlimit="10"/>
</g>
<defs>
<clipPath id="clip0_67_1970">
<rect width="226" height="150" fill="white"/>
</clipPath>
<clipPath id="clip1_67_1970">
<rect width="225.881" height="150" fill="white" transform="translate(300)"/>
</clipPath>
<clipPath id="clip2_67_1970">
<rect width="225.881" height="150" fill="white" transform="translate(600)"/>
</clipPath>
<clipPath id="clip3_67_1970">
<rect width="225.881" height="150" fill="white" transform="translate(900)"/>
</clipPath>
<clipPath id="clip4_67_1970">
<rect width="225.881" height="150" fill="white" transform="translate(1200)"/>
</clipPath>
</defs>
</svg>
