<svg width="1473" height="150" viewBox="0 0 1473 150" fill="none" xmlns="http://www.w3.org/2000/svg">
<g clip-path="url(#clip0_69_10387)">
<path d="M69.479 9.44922C32.347 9.44922 2.242 26.6212 2.242 47.8032V95.1142C2.242 116.297 32.347 133.468 69.479 133.468C106.611 133.468 136.718 116.297 136.718 95.1142V47.8032C136.717 26.6212 106.611 9.44922 69.479 9.44922Z" fill="#181B23" stroke="#181B23" stroke-width="2.9883"/>
<path d="M23.177 87.1982C24.497 81.4372 24.473 76.6882 24.111 71.1722C23.422 60.7312 26.486 50.5102 26.113 40.1202C25.856 32.9762 25.022 26.3412 24.17 19.5762C20.482 21.5022 17.149 23.6442 14.289 25.9952C14.307 36.8932 14.154 47.6432 12.614 58.4182C12.089 62.1132 12.538 65.7952 12.082 69.4852C11.68 72.7642 9.626 76.4362 10.249 79.8502C10.564 81.6012 11.907 83.3112 12.759 84.9222C15.421 89.9522 15.391 90.0812 13.494 96.4202C12.344 100.267 10.424 105.689 8.714 111.355C12.034 115.394 16.488 119.072 21.939 122.189C21.676 120.6 21.415 119.038 21.256 117.532C20.083 106.419 20.655 98.1832 23.177 87.1982Z" fill="#344347"/>
<path d="M117.012 99.4251C115.874 95.0821 116.055 91.0401 115.267 86.6331C114.589 82.8921 113.352 79.3961 112.762 75.6951C112.214 72.2681 113.474 68.4741 112.797 65.0721C112.138 61.7621 109.558 58.9201 108.397 55.8021C105.806 48.8691 103.127 40.8611 103.932 33.4371C104.435 28.7451 105.562 24.3431 105.386 19.5521C105.334 18.0981 105.077 16.6321 104.756 15.1741C94.507 11.5721 82.485 9.45312 69.562 9.45312C65.775 9.45312 62.084 9.67611 58.466 10.0201C59.057 12.3681 59.565 14.7121 59.581 17.1051C59.604 20.1461 58.068 23.2151 58.449 26.3981C58.991 30.9441 63.036 34.9421 62.832 39.6461C62.791 40.5631 61.07 40.6571 60.9 41.7181C60.567 43.8021 61.787 46.6791 61.098 48.6291C58.788 55.1781 56.101 53.5031 60.876 61.3051C63.591 65.7421 65.697 68.6551 66.433 72.7751C67.204 77.0651 68.948 85.3871 67.828 89.2171C67.158 91.5031 64.66 89.7931 65.109 93.0981C65.302 94.5161 67.396 96.1671 68.476 96.9801C62.967 104.743 60.954 112.86 58.187 121.874C57.112 125.375 56.401 125.732 57.656 129.028C58.305 130.732 59.622 132.034 61.245 133.147C63.976 133.335 66.737 133.47 69.562 133.47C86.209 133.47 101.418 129.997 113.161 124.282C115.689 121.557 115.076 120.553 115.262 115.877C115.519 109.453 118.588 105.461 117.012 99.4251Z" fill="#22363B"/>
<path d="M136.471 47.8072C136.471 44.9872 134.575 42.7042 132.006 41.9362C131.726 40.9672 131.371 40.0212 130.957 39.0822C131.552 38.1292 131.989 37.0612 131.989 35.8532C131.989 32.4092 129.204 29.6262 125.76 29.6262C125.656 29.6262 125.574 29.6782 125.468 29.6832C125.364 26.3332 122.655 23.6492 119.281 23.6492C118.493 23.6492 117.752 23.8302 117.058 24.0992C116.305 23.6082 115.686 23.0592 114.887 22.5932C114.478 19.5522 111.98 17.1702 108.823 17.1702C108.331 17.1702 107.894 17.3402 107.433 17.4502C106.406 16.7092 105.21 16.1782 103.844 16.1782C102.927 16.1782 102.07 16.4002 101.287 16.7572C101.247 16.7432 101.2 16.7342 101.16 16.7142C100.266 14.3692 98.037 12.6882 95.376 12.6882C93.898 12.6882 92.603 13.2722 91.535 14.1292C90.932 14.0002 90.297 13.9202 89.69 13.8032C88.604 11.9822 86.703 10.6982 84.419 10.6982C82.902 10.6982 81.559 11.3042 80.48 12.2102C79.344 10.9902 77.755 10.2022 75.952 10.2022C74.574 10.2022 73.372 10.7342 72.339 11.4932C71.219 10.3892 69.684 9.70117 67.985 9.70117C65.96 9.70117 64.25 10.7222 63.111 12.2162C60.245 12.3972 57.425 12.6132 54.689 13.0032C53.654 12.2392 52.441 11.6962 51.052 11.6962C48.881 11.6962 47.065 12.8692 45.951 14.5502C44.643 14.8542 43.464 15.2732 42.203 15.6302C41.276 15.0802 40.253 14.6852 39.099 14.6852C36.554 14.6852 34.382 16.2192 33.413 18.4022C32.568 17.9702 31.645 17.6732 30.63 17.6732C28.3 17.6732 26.351 18.9972 25.283 20.8892C24.904 20.8192 24.558 20.6612 24.156 20.6612C21.489 20.6612 19.26 22.3492 18.367 24.7062C15.846 24.8352 13.75 26.4162 12.891 28.6702C12.821 28.6642 12.768 28.6272 12.698 28.6272C9.25399 28.6272 6.47099 31.4122 6.47099 34.8562C6.47099 35.9242 6.80999 36.8822 7.28299 37.7562C5.62999 38.8782 4.48099 40.6762 4.48099 42.8232C4.48099 44.7772 5.43899 46.4532 6.84499 47.5912C6.84499 47.6732 6.80299 47.7482 6.80299 47.8302C6.80299 48.9102 7.19299 49.9322 7.36199 50.9882C5.93899 52.1332 4.97699 53.8072 4.97699 55.7742C4.97699 58.9552 7.39299 61.4832 10.479 61.8572C10.538 65.2402 13.275 67.9772 16.684 67.9772C16.959 67.9772 17.185 67.8562 17.455 67.8272C17.77 68.0962 18.166 68.3282 18.499 68.5972C18.697 71.8492 21.34 74.4522 24.651 74.4522C24.89 74.4522 25.088 74.3412 25.321 74.3172C26.192 76.7092 28.426 78.4372 31.124 78.4372C32.279 78.4372 33.295 78.0412 34.223 77.4932C35.672 78.0592 37.276 78.4782 38.805 78.9812C39.715 81.2802 41.94 82.9212 44.572 82.9212C45.791 82.9212 46.859 82.4762 47.816 81.8742C48.914 83.6552 50.794 84.9092 53.04 84.9092C54.743 84.9092 56.279 84.2212 57.399 83.1182C61.449 83.5792 65.636 83.8362 69.924 83.8362C80.524 83.8362 90.359 82.2082 99.131 79.5692C100.176 80.3692 101.425 80.9282 102.843 80.9282C104.885 80.9282 106.613 79.8832 107.745 78.3662C108.258 78.5002 108.761 78.6812 109.321 78.6812C112.701 78.6812 115.414 75.9782 115.514 72.6282C115.601 72.5742 115.665 72.5182 115.747 72.4642C116.763 73.1892 117.935 73.7012 119.278 73.7012C122.722 73.7012 125.507 70.9112 125.507 67.4732C125.507 66.6212 125.331 65.8032 125.022 65.0632C126.201 63.8362 127.439 62.6342 128.365 61.3282C128.664 61.3672 128.932 61.5022 129.242 61.5022C132.685 61.5022 135.469 58.7122 135.469 55.2752C135.469 54.1552 135.095 53.1622 134.575 52.2532C135.742 51.1212 136.471 49.5572 136.471 47.8072Z" fill="url(#paint0_radial_69_10387)"/>
<path d="M24.962 71.4404L38.878 69.5844L48.157 76.0744L67.646 79.7934L69.509 66.7994L76.932 59.3754L69.509 49.1674L40.734 40.8164L27.747 49.1674L24.962 71.4404Z" fill="#EA651A"/>
<path d="M37.956 38.9709L62.083 50.101L72.292 64.0219L85.278 67.7339L77.854 46.3869L52.804 14.8359L33.315 24.1219L37.956 38.9709Z" fill="#EE9960"/>
<path d="M71.976 43.2795C62.353 34.8745 59.148 6.86448 82.658 19.9335C106.173 33.0015 124.342 45.1395 109.377 49.8045C94.424 54.4735 77.317 57.2755 75.175 51.6785L71.976 43.2795Z" fill="#FDD180"/>
<path d="M64.658 55.3499L73.898 38.5469L102.462 58.7109L94.903 79.7119L64.658 55.3499Z" fill="#B1B772"/>
<path d="M73.898 38.551L78.099 32.668L105.823 46.949L102.462 58.715L73.898 38.551Z" fill="#5E6A21"/>
<path d="M207.35 39.9303C227.182 71.3253 228.741 105.948 210.834 117.26L170.836 142.527C152.923 153.838 122.327 137.559 102.501 106.165C82.668 74.7693 81.11 40.1473 99.018 28.8353L139.015 3.56929C156.927 -7.74371 187.523 8.53429 207.35 39.9303Z" fill="#181B23" stroke="#181B23" stroke-width="2.9883"/>
<path d="M166.344 120.596C170.51 116.406 174.537 113.884 179.394 111.245C188.592 106.25 195.596 98.2006 204.58 92.9706C210.754 89.3686 216.812 86.5325 222.989 83.6445C223.325 87.7895 223.297 91.7496 222.836 95.4276C213.616 101.229 204.608 107.102 196.321 114.158C193.478 116.573 190.121 118.162 187.244 120.513C184.687 122.609 182.68 126.303 179.465 127.599C177.812 128.271 175.652 128.049 173.832 128.188C168.158 128.626 168.065 128.719 163.717 133.704C161.079 136.734 157.523 141.253 153.642 145.723C148.455 145.075 142.968 143.271 137.423 140.329C138.905 139.705 140.37 139.087 141.725 138.42C151.746 133.472 158.406 128.592 166.344 120.596Z" fill="#344347"/>
<path d="M105.893 47.7911C110.172 46.4361 113.498 44.1242 117.643 42.4322C121.167 41.0072 124.787 40.1912 128.231 38.7092C131.419 37.3432 133.95 34.2491 137.19 33.0071C140.342 31.7981 144.123 32.4641 147.374 31.7791C154.623 30.2681 162.824 28.2562 168.673 23.6082C172.367 20.6782 175.49 17.3741 179.634 14.9651C180.888 14.2291 182.267 13.6682 183.673 13.1602C192.189 19.9012 200.4 28.9362 207.305 39.8632C209.325 43.0612 211.11 46.3012 212.75 49.5402C210.452 50.2982 208.199 51.1211 206.161 52.3821C203.581 53.9871 201.807 56.9292 198.912 58.3072C194.779 60.2742 189.242 58.9901 185.372 61.6751C184.619 62.1991 185.459 63.7052 184.648 64.4112C183.066 65.8062 179.983 66.3142 178.701 67.9372C174.398 73.3872 177.247 74.7652 168.101 74.8942C162.901 74.9702 159.315 74.7421 155.441 76.3181C151.402 77.9641 143.428 80.9281 140.792 83.9221C139.215 85.7151 141.999 86.9092 138.964 88.2952C137.662 88.8912 135.146 88.0032 133.885 87.5192C130.26 96.3272 124.471 102.361 118.332 109.516C115.944 112.295 116.025 113.083 112.565 113.783C110.779 114.145 108.975 113.725 107.166 112.948C105.55 110.743 103.963 108.477 102.451 106.09C93.561 92.0201 88.38 77.3042 86.938 64.3242C87.888 60.7292 89.067 60.7111 92.919 58.0541C98.213 54.4081 99.952 49.6821 105.893 47.7911Z" fill="#22363B"/>
<path d="M139.145 3.77104C141.526 2.26504 144.468 2.64904 146.494 4.41304C147.463 4.13304 148.449 3.92905 149.465 3.77605C149.954 2.76605 150.62 1.82003 151.647 1.17903C154.553 -0.658966 158.394 0.209052 160.233 3.11705C160.292 3.21105 160.292 3.30304 160.344 3.39604C163.233 1.69204 166.945 2.54904 168.749 5.40404C169.169 6.06904 169.415 6.79305 169.554 7.52205C170.372 7.89605 171.165 8.12904 171.988 8.55504C174.778 7.27804 178.123 8.11704 179.809 10.784C180.072 11.198 180.164 11.659 180.318 12.108C181.491 12.582 182.583 13.3121 183.313 14.4621C183.797 15.2361 184.07 16.0831 184.188 16.9371C184.216 16.9601 184.251 16.9941 184.293 17.0181C186.749 16.5221 189.364 17.5081 190.783 19.7601C191.571 21.0111 191.769 22.4151 191.617 23.7781C192.043 24.2201 192.45 24.71 192.878 25.159C194.996 25.107 197.099 26.0291 198.317 27.9631C199.129 29.2391 199.333 30.6981 199.14 32.1011C200.78 32.4091 202.297 33.3311 203.261 34.8551C203.996 36.0221 204.189 37.318 204.096 38.603C205.63 38.958 207.032 39.886 207.936 41.323C209.022 43.04 209.069 45.0291 208.415 46.7861C209.791 49.3071 211.117 51.8061 212.243 54.3251C213.447 54.7931 214.55 55.5291 215.291 56.7081C216.451 58.5411 216.429 60.7001 215.607 62.5441C216.044 63.8121 216.317 65.0311 216.691 66.2861C217.655 66.7751 218.535 67.43 219.148 68.405C220.508 70.558 220.368 73.2141 219.044 75.1991C219.861 75.6811 220.603 76.3071 221.144 77.1651C222.388 79.1331 222.312 81.4901 221.285 83.3981C221.548 83.6851 221.863 83.8881 222.078 84.2341C223.503 86.4851 223.263 89.27 221.751 91.284C222.99 93.49 222.766 96.106 221.319 98.03C221.366 98.09 221.425 98.113 221.459 98.171C223.298 101.083 222.435 104.925 219.522 106.763C218.617 107.335 217.624 107.557 216.632 107.627C216.569 109.623 215.663 111.554 213.849 112.704C212.198 113.743 210.265 113.831 208.555 113.247C208.485 113.295 208.444 113.369 208.374 113.412C207.458 113.988 206.391 114.203 205.403 114.625C205.2 116.439 204.295 118.15 202.632 119.201C199.946 120.898 196.514 120.204 194.554 117.795C191.658 119.551 187.883 118.7 186.06 115.816C185.914 115.587 185.898 115.325 185.78 115.087C185.385 114.964 184.975 114.752 184.567 114.613C181.713 116.181 178.1 115.336 176.338 112.542C176.209 112.337 176.197 112.108 176.092 111.898C173.6 112.442 170.949 111.473 169.508 109.196C168.889 108.216 168.687 107.148 168.652 106.068C167.403 105.146 166.189 104.014 164.945 102.994C162.517 103.447 159.944 102.444 158.537 100.221C157.883 99.1881 157.69 98.049 157.684 96.917C155.595 96.94 153.535 96.023 152.332 94.121C151.421 92.68 151.182 91.0161 151.52 89.4801C148.963 86.2991 146.512 82.9031 144.225 79.2731C138.563 70.3131 134.686 61.126 132.231 52.3C130.999 51.846 129.855 51.085 129.102 49.891C128.011 48.162 127.969 46.144 128.646 44.375C128.261 44.013 127.834 43.6861 127.539 43.2131C125.735 40.3531 126.569 36.617 129.348 34.745C129.348 34.639 129.364 34.5581 129.364 34.4581C128.209 33.9851 127.146 33.268 126.428 32.136C124.59 29.224 125.466 25.3771 128.371 23.5441C129.09 23.0891 129.872 22.797 130.666 22.668C131.073 21.017 131.43 19.3231 132.038 17.8421C131.845 17.6131 131.589 17.4551 131.425 17.1951C129.586 14.2881 130.455 10.442 133.363 8.60204C134.309 8.00704 135.348 7.79004 136.398 7.74404C136.729 6.16304 137.662 4.70904 139.145 3.77104Z" fill="url(#paint1_radial_69_10387)"/>
<path d="M178.716 110.667L172.85 97.9142L162.409 93.5291L148.857 79.0381L158.85 70.5291L161.16 60.2852L173.755 61.1132L196.185 80.9821L196.057 96.4201L178.716 110.667Z" fill="#EA651A"/>
<path d="M199.23 82.3394L176.933 67.8824L159.71 66.6854L149.636 57.6844L171.652 52.5664L211.702 56.8974L214.258 78.3284L199.23 82.3394Z" fill="#EE9960"/>
<path d="M177.41 55.8792C189.655 59.5272 215.051 47.2772 191.448 34.3832C167.839 21.4802 147.87 12.6012 151.921 27.7412C155.961 42.8812 162.725 58.8382 168.603 57.6602L177.41 55.8792Z" fill="#FDD180"/>
<path d="M171.12 68.5205L180.39 51.7346L148.089 38.3516L134.368 55.9546L171.12 68.5205Z" fill="#B1B772"/>
<path d="M180.39 51.7404L183.121 45.0405L156.237 29.2305L148.089 38.3575L180.39 51.7404Z" fill="#5E6A21"/>
</g>
<g clip-path="url(#clip1_69_10387)">
<path d="M319.479 9.44922C282.347 9.44922 252.242 26.6212 252.242 47.8032V95.1142C252.242 116.297 282.347 133.468 319.479 133.468C356.611 133.468 386.718 116.297 386.718 95.1142V47.8032C386.717 26.6212 356.611 9.44922 319.479 9.44922Z" fill="#181B23" stroke="#181B23" stroke-width="2.9883"/>
<path d="M273.177 87.1982C274.497 81.4372 274.473 76.6882 274.111 71.1722C273.422 60.7312 276.486 50.5102 276.113 40.1202C275.856 32.9762 275.022 26.3412 274.17 19.5762C270.482 21.5022 267.149 23.6442 264.289 25.9952C264.307 36.8932 264.154 47.6432 262.614 58.4182C262.089 62.1132 262.538 65.7952 262.082 69.4852C261.68 72.7642 259.626 76.4362 260.249 79.8502C260.564 81.6012 261.907 83.3112 262.759 84.9222C265.421 89.9522 265.391 90.0812 263.494 96.4202C262.344 100.267 260.424 105.689 258.714 111.355C262.034 115.394 266.488 119.072 271.939 122.189C271.676 120.6 271.415 119.038 271.256 117.532C270.083 106.419 270.655 98.1832 273.177 87.1982Z" fill="#344347"/>
<path d="M367.012 99.4251C365.874 95.0821 366.055 91.0401 365.267 86.6331C364.589 82.8921 363.352 79.3961 362.762 75.6951C362.214 72.2681 363.474 68.4741 362.797 65.0721C362.138 61.7621 359.558 58.9201 358.397 55.8021C355.806 48.8691 353.127 40.8611 353.932 33.4371C354.435 28.7451 355.562 24.3431 355.386 19.5521C355.334 18.0981 355.077 16.6321 354.756 15.1741C344.507 11.5721 332.485 9.45312 319.562 9.45312C315.775 9.45312 312.084 9.67611 308.466 10.0201C309.057 12.3681 309.565 14.7121 309.581 17.1051C309.604 20.1461 308.068 23.2151 308.449 26.3981C308.991 30.9441 313.036 34.9421 312.832 39.6461C312.791 40.5631 311.07 40.6571 310.9 41.7181C310.567 43.8021 311.787 46.6791 311.098 48.6291C308.788 55.1781 306.101 53.5031 310.876 61.3051C313.591 65.7421 315.697 68.6551 316.433 72.7751C317.204 77.0651 318.948 85.3871 317.828 89.2171C317.158 91.5031 314.66 89.7931 315.109 93.0981C315.302 94.5161 317.396 96.1671 318.476 96.9801C312.967 104.743 310.954 112.86 308.187 121.874C307.112 125.375 306.401 125.732 307.656 129.028C308.305 130.732 309.622 132.034 311.245 133.147C313.976 133.335 316.737 133.47 319.562 133.47C336.209 133.47 351.418 129.997 363.161 124.282C365.689 121.557 365.076 120.553 365.262 115.877C365.519 109.453 368.588 105.461 367.012 99.4251Z" fill="#22363B"/>
<path d="M386.471 47.8072C386.471 44.9872 384.575 42.7042 382.006 41.9362C381.726 40.9672 381.371 40.0212 380.957 39.0822C381.552 38.1292 381.989 37.0612 381.989 35.8532C381.989 32.4092 379.204 29.6262 375.76 29.6262C375.656 29.6262 375.574 29.6782 375.468 29.6832C375.364 26.3332 372.655 23.6492 369.281 23.6492C368.493 23.6492 367.752 23.8302 367.058 24.0992C366.305 23.6082 365.686 23.0592 364.887 22.5932C364.478 19.5522 361.98 17.1702 358.823 17.1702C358.331 17.1702 357.894 17.3402 357.433 17.4502C356.406 16.7092 355.21 16.1782 353.844 16.1782C352.927 16.1782 352.07 16.4002 351.287 16.7572C351.247 16.7432 351.2 16.7342 351.16 16.7142C350.266 14.3692 348.037 12.6882 345.376 12.6882C343.898 12.6882 342.603 13.2722 341.535 14.1292C340.932 14.0002 340.297 13.9202 339.69 13.8032C338.604 11.9822 336.703 10.6982 334.419 10.6982C332.902 10.6982 331.559 11.3042 330.48 12.2102C329.344 10.9902 327.755 10.2022 325.952 10.2022C324.574 10.2022 323.372 10.7342 322.339 11.4932C321.219 10.3892 319.684 9.70117 317.985 9.70117C315.96 9.70117 314.25 10.7222 313.111 12.2162C310.245 12.3972 307.425 12.6132 304.689 13.0032C303.654 12.2392 302.441 11.6962 301.052 11.6962C298.881 11.6962 297.065 12.8692 295.951 14.5502C294.643 14.8542 293.464 15.2732 292.203 15.6302C291.276 15.0802 290.253 14.6852 289.099 14.6852C286.554 14.6852 284.382 16.2192 283.413 18.4022C282.568 17.9702 281.645 17.6732 280.63 17.6732C278.3 17.6732 276.351 18.9972 275.283 20.8892C274.904 20.8192 274.558 20.6612 274.156 20.6612C271.489 20.6612 269.26 22.3492 268.367 24.7062C265.846 24.8352 263.75 26.4162 262.891 28.6702C262.821 28.6642 262.768 28.6272 262.698 28.6272C259.254 28.6272 256.471 31.4122 256.471 34.8562C256.471 35.9242 256.81 36.8822 257.283 37.7562C255.63 38.8782 254.481 40.6762 254.481 42.8232C254.481 44.7772 255.439 46.4532 256.845 47.5912C256.845 47.6732 256.803 47.7482 256.803 47.8302C256.803 48.9102 257.193 49.9322 257.362 50.9882C255.939 52.1332 254.977 53.8072 254.977 55.7742C254.977 58.9552 257.393 61.4832 260.479 61.8572C260.538 65.2402 263.275 67.9772 266.684 67.9772C266.959 67.9772 267.185 67.8562 267.455 67.8272C267.77 68.0962 268.166 68.3282 268.499 68.5972C268.697 71.8492 271.34 74.4522 274.651 74.4522C274.89 74.4522 275.088 74.3412 275.321 74.3172C276.192 76.7092 278.426 78.4372 281.124 78.4372C282.279 78.4372 283.295 78.0412 284.223 77.4932C285.672 78.0592 287.276 78.4782 288.805 78.9812C289.715 81.2802 291.94 82.9212 294.572 82.9212C295.791 82.9212 296.859 82.4762 297.816 81.8742C298.914 83.6552 300.794 84.9092 303.04 84.9092C304.743 84.9092 306.279 84.2212 307.399 83.1182C311.449 83.5792 315.636 83.8362 319.924 83.8362C330.524 83.8362 340.359 82.2082 349.131 79.5692C350.176 80.3692 351.425 80.9282 352.843 80.9282C354.885 80.9282 356.613 79.8832 357.745 78.3662C358.258 78.5002 358.761 78.6812 359.321 78.6812C362.701 78.6812 365.414 75.9782 365.514 72.6282C365.601 72.5742 365.665 72.5182 365.747 72.4642C366.763 73.1892 367.935 73.7012 369.278 73.7012C372.722 73.7012 375.507 70.9112 375.507 67.4732C375.507 66.6212 375.331 65.8032 375.022 65.0632C376.201 63.8362 377.439 62.6342 378.365 61.3282C378.664 61.3672 378.932 61.5022 379.242 61.5022C382.685 61.5022 385.469 58.7122 385.469 55.2752C385.469 54.1552 385.095 53.1622 384.575 52.2532C385.742 51.1212 386.471 49.5572 386.471 47.8072Z" fill="url(#paint2_radial_69_10387)"/>
<path d="M274.962 71.4404L288.878 69.5844L298.157 76.0744L317.646 79.7934L319.509 66.7994L326.932 59.3754L319.509 49.1674L290.734 40.8164L277.747 49.1674L274.962 71.4404Z" fill="#EA651A"/>
<path d="M287.956 38.9709L312.083 50.101L322.292 64.0219L335.278 67.7339L327.854 46.3869L302.804 14.8359L283.315 24.1219L287.956 38.9709Z" fill="#EE9960"/>
<path d="M321.976 43.2795C312.353 34.8745 309.148 6.86448 332.658 19.9335C356.173 33.0015 374.342 45.1395 359.377 49.8045C344.424 54.4735 327.317 57.2755 325.175 51.6785L321.976 43.2795Z" fill="#FDD180"/>
<path d="M314.658 55.3499L323.898 38.5469L352.462 58.7109L344.903 79.7119L314.658 55.3499Z" fill="#B1B772"/>
<path d="M323.898 38.551L328.099 32.668L355.823 46.949L352.462 58.715L323.898 38.551Z" fill="#5E6A21"/>
<path d="M457.35 39.9303C477.182 71.3253 478.741 105.948 460.834 117.26L420.836 142.527C402.923 153.838 372.327 137.559 352.501 106.165C332.668 74.7693 331.11 40.1473 349.018 28.8353L389.015 3.56929C406.927 -7.74371 437.523 8.53429 457.35 39.9303Z" fill="#181B23" stroke="#181B23" stroke-width="2.9883"/>
<path d="M416.344 120.596C420.51 116.406 424.537 113.884 429.394 111.245C438.592 106.25 445.596 98.2006 454.58 92.9706C460.754 89.3686 466.812 86.5325 472.989 83.6445C473.325 87.7895 473.297 91.7496 472.836 95.4276C463.616 101.229 454.608 107.102 446.321 114.158C443.478 116.573 440.121 118.162 437.244 120.513C434.687 122.609 432.68 126.303 429.465 127.599C427.812 128.271 425.652 128.049 423.832 128.188C418.158 128.626 418.065 128.719 413.717 133.704C411.079 136.734 407.523 141.253 403.642 145.723C398.455 145.075 392.968 143.271 387.423 140.329C388.905 139.705 390.37 139.087 391.725 138.42C401.746 133.472 408.406 128.592 416.344 120.596Z" fill="#344347"/>
<path d="M355.893 47.7911C360.172 46.4361 363.498 44.1242 367.643 42.4322C371.167 41.0072 374.787 40.1912 378.231 38.7092C381.419 37.3432 383.95 34.2491 387.19 33.0071C390.342 31.7981 394.123 32.4641 397.374 31.7791C404.623 30.2681 412.824 28.2562 418.673 23.6082C422.367 20.6782 425.49 17.3741 429.634 14.9651C430.888 14.2291 432.267 13.6682 433.673 13.1602C442.189 19.9012 450.4 28.9362 457.305 39.8632C459.325 43.0612 461.11 46.3012 462.75 49.5402C460.452 50.2982 458.199 51.1211 456.161 52.3821C453.581 53.9871 451.807 56.9292 448.912 58.3072C444.779 60.2742 439.242 58.9901 435.372 61.6751C434.619 62.1991 435.459 63.7052 434.648 64.4112C433.066 65.8062 429.983 66.3142 428.701 67.9372C424.398 73.3872 427.247 74.7652 418.101 74.8942C412.901 74.9702 409.315 74.7421 405.441 76.3181C401.402 77.9641 393.428 80.9281 390.792 83.9221C389.215 85.7151 391.999 86.9092 388.964 88.2952C387.662 88.8912 385.146 88.0032 383.885 87.5192C380.26 96.3272 374.471 102.361 368.332 109.516C365.944 112.295 366.025 113.083 362.565 113.783C360.779 114.145 358.975 113.725 357.166 112.948C355.55 110.743 353.963 108.477 352.451 106.09C343.561 92.0201 338.38 77.3042 336.938 64.3242C337.888 60.7292 339.067 60.7111 342.919 58.0541C348.213 54.4081 349.952 49.6821 355.893 47.7911Z" fill="#22363B"/>
<path d="M389.145 3.77104C391.526 2.26504 394.468 2.64904 396.494 4.41304C397.463 4.13304 398.449 3.92905 399.465 3.77605C399.954 2.76605 400.62 1.82003 401.647 1.17903C404.553 -0.658966 408.394 0.209052 410.233 3.11705C410.292 3.21105 410.292 3.30304 410.344 3.39604C413.233 1.69204 416.945 2.54904 418.749 5.40404C419.169 6.06904 419.415 6.79305 419.554 7.52205C420.372 7.89605 421.165 8.12904 421.988 8.55504C424.778 7.27804 428.123 8.11704 429.809 10.784C430.072 11.198 430.164 11.659 430.318 12.108C431.491 12.582 432.583 13.3121 433.313 14.4621C433.797 15.2361 434.07 16.0831 434.188 16.9371C434.216 16.9601 434.251 16.9941 434.293 17.0181C436.749 16.5221 439.364 17.5081 440.783 19.7601C441.571 21.0111 441.769 22.4151 441.617 23.7781C442.043 24.2201 442.45 24.71 442.878 25.159C444.996 25.107 447.099 26.0291 448.317 27.9631C449.129 29.2391 449.333 30.6981 449.14 32.1011C450.78 32.4091 452.297 33.3311 453.261 34.8551C453.996 36.0221 454.189 37.318 454.096 38.603C455.63 38.958 457.032 39.886 457.936 41.323C459.022 43.04 459.069 45.0291 458.415 46.7861C459.791 49.3071 461.117 51.8061 462.243 54.3251C463.447 54.7931 464.55 55.5291 465.291 56.7081C466.451 58.5411 466.429 60.7001 465.607 62.5441C466.044 63.8121 466.317 65.0311 466.691 66.2861C467.655 66.7751 468.535 67.43 469.148 68.405C470.508 70.558 470.368 73.2141 469.044 75.1991C469.861 75.6811 470.603 76.3071 471.144 77.1651C472.388 79.1331 472.312 81.4901 471.285 83.3981C471.548 83.6851 471.863 83.8881 472.078 84.2341C473.503 86.4851 473.263 89.27 471.751 91.284C472.99 93.49 472.766 96.106 471.319 98.03C471.366 98.09 471.425 98.113 471.459 98.171C473.298 101.083 472.435 104.925 469.522 106.763C468.617 107.335 467.624 107.557 466.632 107.627C466.569 109.623 465.663 111.554 463.849 112.704C462.198 113.743 460.265 113.831 458.555 113.247C458.485 113.295 458.444 113.369 458.374 113.412C457.458 113.988 456.391 114.203 455.403 114.625C455.2 116.439 454.295 118.15 452.632 119.201C449.946 120.898 446.514 120.204 444.554 117.795C441.658 119.551 437.883 118.7 436.06 115.816C435.914 115.587 435.898 115.325 435.78 115.087C435.385 114.964 434.975 114.752 434.567 114.613C431.713 116.181 428.1 115.336 426.338 112.542C426.209 112.337 426.197 112.108 426.092 111.898C423.6 112.442 420.949 111.473 419.508 109.196C418.889 108.216 418.687 107.148 418.652 106.068C417.403 105.146 416.189 104.014 414.945 102.994C412.517 103.447 409.944 102.444 408.537 100.221C407.883 99.1881 407.69 98.049 407.684 96.917C405.595 96.94 403.535 96.023 402.332 94.121C401.421 92.68 401.182 91.0161 401.52 89.4801C398.963 86.2991 396.512 82.9031 394.225 79.2731C388.563 70.3131 384.686 61.126 382.231 52.3C380.999 51.846 379.855 51.085 379.102 49.891C378.011 48.162 377.969 46.144 378.646 44.375C378.261 44.013 377.834 43.6861 377.539 43.2131C375.735 40.3531 376.569 36.617 379.348 34.745C379.348 34.639 379.364 34.5581 379.364 34.4581C378.209 33.9851 377.146 33.268 376.428 32.136C374.59 29.224 375.466 25.3771 378.371 23.5441C379.09 23.0891 379.872 22.797 380.666 22.668C381.073 21.017 381.43 19.3231 382.038 17.8421C381.845 17.6131 381.589 17.4551 381.425 17.1951C379.586 14.2881 380.455 10.442 383.363 8.60204C384.309 8.00704 385.348 7.79004 386.398 7.74404C386.729 6.16304 387.662 4.70904 389.145 3.77104Z" fill="url(#paint3_radial_69_10387)"/>
<path d="M428.716 110.667L422.85 97.9142L412.409 93.5291L398.857 79.0381L408.85 70.5291L411.16 60.2852L423.755 61.1132L446.185 80.9821L446.057 96.4201L428.716 110.667Z" fill="#EA651A"/>
<path d="M449.23 82.3394L426.933 67.8824L409.71 66.6854L399.636 57.6844L421.652 52.5664L461.702 56.8974L464.258 78.3284L449.23 82.3394Z" fill="#EE9960"/>
<path d="M427.41 55.8792C439.655 59.5272 465.051 47.2772 441.448 34.3832C417.839 21.4802 397.87 12.6012 401.921 27.7412C405.961 42.8812 412.725 58.8382 418.603 57.6602L427.41 55.8792Z" fill="#FDD180"/>
<path d="M421.12 68.5205L430.39 51.7346L398.089 38.3516L384.368 55.9546L421.12 68.5205Z" fill="#B1B772"/>
<path d="M430.39 51.7404L433.121 45.0405L406.237 29.2305L398.089 38.3575L430.39 51.7404Z" fill="#5E6A21"/>
</g>
<g clip-path="url(#clip2_69_10387)">
<path d="M569.479 9.44922C532.347 9.44922 502.242 26.6212 502.242 47.8032V95.1142C502.242 116.297 532.347 133.468 569.479 133.468C606.611 133.468 636.718 116.297 636.718 95.1142V47.8032C636.717 26.6212 606.611 9.44922 569.479 9.44922Z" fill="#181B23" stroke="#181B23" stroke-width="2.9883"/>
<path d="M523.177 87.1982C524.497 81.4372 524.473 76.6882 524.111 71.1722C523.422 60.7312 526.486 50.5102 526.113 40.1202C525.856 32.9762 525.022 26.3412 524.17 19.5762C520.482 21.5022 517.149 23.6442 514.289 25.9952C514.307 36.8932 514.154 47.6432 512.614 58.4182C512.089 62.1132 512.538 65.7952 512.082 69.4852C511.68 72.7642 509.626 76.4362 510.249 79.8502C510.564 81.6012 511.907 83.3112 512.759 84.9222C515.421 89.9522 515.391 90.0812 513.494 96.4202C512.344 100.267 510.424 105.689 508.714 111.355C512.034 115.394 516.488 119.072 521.939 122.189C521.676 120.6 521.415 119.038 521.256 117.532C520.083 106.419 520.655 98.1832 523.177 87.1982Z" fill="#344347"/>
<path d="M617.012 99.4251C615.874 95.0821 616.055 91.0401 615.267 86.6331C614.589 82.8921 613.352 79.3961 612.762 75.6951C612.214 72.2681 613.474 68.4741 612.797 65.0721C612.138 61.7621 609.558 58.9201 608.397 55.8021C605.806 48.8691 603.127 40.8611 603.932 33.4371C604.435 28.7451 605.562 24.3431 605.386 19.5521C605.334 18.0981 605.077 16.6321 604.756 15.1741C594.507 11.5721 582.485 9.45312 569.562 9.45312C565.775 9.45312 562.084 9.67611 558.466 10.0201C559.057 12.3681 559.565 14.7121 559.581 17.1051C559.604 20.1461 558.068 23.2151 558.449 26.3981C558.991 30.9441 563.036 34.9421 562.832 39.6461C562.791 40.5631 561.07 40.6571 560.9 41.7181C560.567 43.8021 561.787 46.6791 561.098 48.6291C558.788 55.1781 556.101 53.5031 560.876 61.3051C563.591 65.7421 565.697 68.6551 566.433 72.7751C567.204 77.0651 568.948 85.3871 567.828 89.2171C567.158 91.5031 564.66 89.7931 565.109 93.0981C565.302 94.5161 567.396 96.1671 568.476 96.9801C562.967 104.743 560.954 112.86 558.187 121.874C557.112 125.375 556.401 125.732 557.656 129.028C558.305 130.732 559.622 132.034 561.245 133.147C563.976 133.335 566.737 133.47 569.562 133.47C586.209 133.47 601.418 129.997 613.161 124.282C615.689 121.557 615.076 120.553 615.262 115.877C615.519 109.453 618.588 105.461 617.012 99.4251Z" fill="#22363B"/>
<path d="M636.471 47.8072C636.471 44.9872 634.575 42.7042 632.006 41.9362C631.726 40.9672 631.371 40.0212 630.957 39.0822C631.552 38.1292 631.989 37.0612 631.989 35.8532C631.989 32.4092 629.204 29.6262 625.76 29.6262C625.656 29.6262 625.574 29.6782 625.468 29.6832C625.364 26.3332 622.655 23.6492 619.281 23.6492C618.493 23.6492 617.752 23.8302 617.058 24.0992C616.305 23.6082 615.686 23.0592 614.887 22.5932C614.478 19.5522 611.98 17.1702 608.823 17.1702C608.331 17.1702 607.894 17.3402 607.433 17.4502C606.406 16.7092 605.21 16.1782 603.844 16.1782C602.927 16.1782 602.07 16.4002 601.287 16.7572C601.247 16.7432 601.2 16.7342 601.16 16.7142C600.266 14.3692 598.037 12.6882 595.376 12.6882C593.898 12.6882 592.603 13.2722 591.535 14.1292C590.932 14.0002 590.297 13.9202 589.69 13.8032C588.604 11.9822 586.703 10.6982 584.419 10.6982C582.902 10.6982 581.559 11.3042 580.48 12.2102C579.344 10.9902 577.755 10.2022 575.952 10.2022C574.574 10.2022 573.372 10.7342 572.339 11.4932C571.219 10.3892 569.684 9.70117 567.985 9.70117C565.96 9.70117 564.25 10.7222 563.111 12.2162C560.245 12.3972 557.425 12.6132 554.689 13.0032C553.654 12.2392 552.441 11.6962 551.052 11.6962C548.881 11.6962 547.065 12.8692 545.951 14.5502C544.643 14.8542 543.464 15.2732 542.203 15.6302C541.276 15.0802 540.253 14.6852 539.099 14.6852C536.554 14.6852 534.382 16.2192 533.413 18.4022C532.568 17.9702 531.645 17.6732 530.63 17.6732C528.3 17.6732 526.351 18.9972 525.283 20.8892C524.904 20.8192 524.558 20.6612 524.156 20.6612C521.489 20.6612 519.26 22.3492 518.367 24.7062C515.846 24.8352 513.75 26.4162 512.891 28.6702C512.821 28.6642 512.768 28.6272 512.698 28.6272C509.254 28.6272 506.471 31.4122 506.471 34.8562C506.471 35.9242 506.81 36.8822 507.283 37.7562C505.63 38.8782 504.481 40.6762 504.481 42.8232C504.481 44.7772 505.439 46.4532 506.845 47.5912C506.845 47.6732 506.803 47.7482 506.803 47.8302C506.803 48.9102 507.193 49.9322 507.362 50.9882C505.939 52.1332 504.977 53.8072 504.977 55.7742C504.977 58.9552 507.393 61.4832 510.479 61.8572C510.538 65.2402 513.275 67.9772 516.684 67.9772C516.959 67.9772 517.185 67.8562 517.455 67.8272C517.77 68.0962 518.166 68.3282 518.499 68.5972C518.697 71.8492 521.34 74.4522 524.651 74.4522C524.89 74.4522 525.088 74.3412 525.321 74.3172C526.192 76.7092 528.426 78.4372 531.124 78.4372C532.279 78.4372 533.295 78.0412 534.223 77.4932C535.672 78.0592 537.276 78.4782 538.805 78.9812C539.715 81.2802 541.94 82.9212 544.572 82.9212C545.791 82.9212 546.859 82.4762 547.816 81.8742C548.914 83.6552 550.794 84.9092 553.04 84.9092C554.743 84.9092 556.279 84.2212 557.399 83.1182C561.449 83.5792 565.636 83.8362 569.924 83.8362C580.524 83.8362 590.359 82.2082 599.131 79.5692C600.176 80.3692 601.425 80.9282 602.843 80.9282C604.885 80.9282 606.613 79.8832 607.745 78.3662C608.258 78.5002 608.761 78.6812 609.321 78.6812C612.701 78.6812 615.414 75.9782 615.514 72.6282C615.601 72.5742 615.665 72.5182 615.747 72.4642C616.763 73.1892 617.935 73.7012 619.278 73.7012C622.722 73.7012 625.507 70.9112 625.507 67.4732C625.507 66.6212 625.331 65.8032 625.022 65.0632C626.201 63.8362 627.439 62.6342 628.365 61.3282C628.664 61.3672 628.932 61.5022 629.242 61.5022C632.685 61.5022 635.469 58.7122 635.469 55.2752C635.469 54.1552 635.095 53.1622 634.575 52.2532C635.742 51.1212 636.471 49.5572 636.471 47.8072Z" fill="url(#paint4_radial_69_10387)"/>
<path d="M524.962 71.4404L538.878 69.5844L548.157 76.0744L567.646 79.7934L569.509 66.7994L576.932 59.3754L569.509 49.1674L540.734 40.8164L527.747 49.1674L524.962 71.4404Z" fill="#EA651A"/>
<path d="M537.956 38.9709L562.083 50.101L572.292 64.0219L585.278 67.7339L577.854 46.3869L552.804 14.8359L533.315 24.1219L537.956 38.9709Z" fill="#EE9960"/>
<path d="M571.976 43.2795C562.353 34.8745 559.148 6.86448 582.658 19.9335C606.173 33.0015 624.342 45.1395 609.377 49.8045C594.424 54.4735 577.317 57.2755 575.175 51.6785L571.976 43.2795Z" fill="#FDD180"/>
<path d="M564.658 55.3499L573.898 38.5469L602.462 58.7109L594.903 79.7119L564.658 55.3499Z" fill="#B1B772"/>
<path d="M573.898 38.551L578.099 32.668L605.823 46.949L602.462 58.715L573.898 38.551Z" fill="#5E6A21"/>
<path d="M707.35 39.9303C727.182 71.3253 728.741 105.948 710.834 117.26L670.836 142.527C652.923 153.838 622.327 137.559 602.501 106.165C582.668 74.7693 581.11 40.1473 599.018 28.8353L639.015 3.56929C656.927 -7.74371 687.523 8.53429 707.35 39.9303Z" fill="#181B23" stroke="#181B23" stroke-width="2.9883"/>
<path d="M666.344 120.596C670.51 116.406 674.537 113.884 679.394 111.245C688.592 106.25 695.596 98.2006 704.58 92.9706C710.754 89.3686 716.812 86.5325 722.989 83.6445C723.325 87.7895 723.297 91.7496 722.836 95.4276C713.616 101.229 704.608 107.102 696.321 114.158C693.478 116.573 690.121 118.162 687.244 120.513C684.687 122.609 682.68 126.303 679.465 127.599C677.812 128.271 675.652 128.049 673.832 128.188C668.158 128.626 668.065 128.719 663.717 133.704C661.079 136.734 657.523 141.253 653.642 145.723C648.455 145.075 642.968 143.271 637.423 140.329C638.905 139.705 640.37 139.087 641.725 138.42C651.746 133.472 658.406 128.592 666.344 120.596Z" fill="#344347"/>
<path d="M605.893 47.7911C610.172 46.4361 613.498 44.1242 617.643 42.4322C621.167 41.0072 624.787 40.1912 628.231 38.7092C631.419 37.3432 633.95 34.2491 637.19 33.0071C640.342 31.7981 644.123 32.4641 647.374 31.7791C654.623 30.2681 662.824 28.2562 668.673 23.6082C672.367 20.6782 675.49 17.3741 679.634 14.9651C680.888 14.2291 682.267 13.6682 683.673 13.1602C692.189 19.9012 700.4 28.9362 707.305 39.8632C709.325 43.0612 711.11 46.3012 712.75 49.5402C710.452 50.2982 708.199 51.1211 706.161 52.3821C703.581 53.9871 701.807 56.9292 698.912 58.3072C694.779 60.2742 689.242 58.9901 685.372 61.6751C684.619 62.1991 685.459 63.7052 684.648 64.4112C683.066 65.8062 679.983 66.3142 678.701 67.9372C674.398 73.3872 677.247 74.7652 668.101 74.8942C662.901 74.9702 659.315 74.7421 655.441 76.3181C651.402 77.9641 643.428 80.9281 640.792 83.9221C639.215 85.7151 641.999 86.9092 638.964 88.2952C637.662 88.8912 635.146 88.0032 633.885 87.5192C630.26 96.3272 624.471 102.361 618.332 109.516C615.944 112.295 616.025 113.083 612.565 113.783C610.779 114.145 608.975 113.725 607.166 112.948C605.55 110.743 603.963 108.477 602.451 106.09C593.561 92.0201 588.38 77.3042 586.938 64.3242C587.888 60.7292 589.067 60.7111 592.919 58.0541C598.213 54.4081 599.952 49.6821 605.893 47.7911Z" fill="#22363B"/>
<path d="M639.145 3.77104C641.526 2.26504 644.468 2.64904 646.494 4.41304C647.463 4.13304 648.449 3.92905 649.465 3.77605C649.954 2.76605 650.62 1.82003 651.647 1.17903C654.553 -0.658966 658.394 0.209052 660.233 3.11705C660.292 3.21105 660.292 3.30304 660.344 3.39604C663.233 1.69204 666.945 2.54904 668.749 5.40404C669.169 6.06904 669.415 6.79305 669.554 7.52205C670.372 7.89605 671.165 8.12904 671.988 8.55504C674.778 7.27804 678.123 8.11704 679.809 10.784C680.072 11.198 680.164 11.659 680.318 12.108C681.491 12.582 682.583 13.3121 683.313 14.4621C683.797 15.2361 684.07 16.0831 684.188 16.9371C684.216 16.9601 684.251 16.9941 684.293 17.0181C686.749 16.5221 689.364 17.5081 690.783 19.7601C691.571 21.0111 691.769 22.4151 691.617 23.7781C692.043 24.2201 692.45 24.71 692.878 25.159C694.996 25.107 697.099 26.0291 698.317 27.9631C699.129 29.2391 699.333 30.6981 699.14 32.1011C700.78 32.4091 702.297 33.3311 703.261 34.8551C703.996 36.0221 704.189 37.318 704.096 38.603C705.63 38.958 707.032 39.886 707.936 41.323C709.022 43.04 709.069 45.0291 708.415 46.7861C709.791 49.3071 711.117 51.8061 712.243 54.3251C713.447 54.7931 714.55 55.5291 715.291 56.7081C716.451 58.5411 716.429 60.7001 715.607 62.5441C716.044 63.8121 716.317 65.0311 716.691 66.2861C717.655 66.7751 718.535 67.43 719.148 68.405C720.508 70.558 720.368 73.2141 719.044 75.1991C719.861 75.6811 720.603 76.3071 721.144 77.1651C722.388 79.1331 722.312 81.4901 721.285 83.3981C721.548 83.6851 721.863 83.8881 722.078 84.2341C723.503 86.4851 723.263 89.27 721.751 91.284C722.99 93.49 722.766 96.106 721.319 98.03C721.366 98.09 721.425 98.113 721.459 98.171C723.298 101.083 722.435 104.925 719.522 106.763C718.617 107.335 717.624 107.557 716.632 107.627C716.569 109.623 715.663 111.554 713.849 112.704C712.198 113.743 710.265 113.831 708.555 113.247C708.485 113.295 708.444 113.369 708.374 113.412C707.458 113.988 706.391 114.203 705.403 114.625C705.2 116.439 704.295 118.15 702.632 119.201C699.946 120.898 696.514 120.204 694.554 117.795C691.658 119.551 687.883 118.7 686.06 115.816C685.914 115.587 685.898 115.325 685.78 115.087C685.385 114.964 684.975 114.752 684.567 114.613C681.713 116.181 678.1 115.336 676.338 112.542C676.209 112.337 676.197 112.108 676.092 111.898C673.6 112.442 670.949 111.473 669.508 109.196C668.889 108.216 668.687 107.148 668.652 106.068C667.403 105.146 666.189 104.014 664.945 102.994C662.517 103.447 659.944 102.444 658.537 100.221C657.883 99.1881 657.69 98.049 657.684 96.917C655.595 96.94 653.535 96.023 652.332 94.121C651.421 92.68 651.182 91.0161 651.52 89.4801C648.963 86.2991 646.512 82.9031 644.225 79.2731C638.563 70.3131 634.686 61.126 632.231 52.3C630.999 51.846 629.855 51.085 629.102 49.891C628.011 48.162 627.969 46.144 628.646 44.375C628.261 44.013 627.834 43.6861 627.539 43.2131C625.735 40.3531 626.569 36.617 629.348 34.745C629.348 34.639 629.364 34.5581 629.364 34.4581C628.209 33.9851 627.146 33.268 626.428 32.136C624.59 29.224 625.466 25.3771 628.371 23.5441C629.09 23.0891 629.872 22.797 630.666 22.668C631.073 21.017 631.43 19.3231 632.038 17.8421C631.845 17.6131 631.589 17.4551 631.425 17.1951C629.586 14.2881 630.455 10.442 633.363 8.60204C634.309 8.00704 635.348 7.79004 636.398 7.74404C636.729 6.16304 637.662 4.70904 639.145 3.77104Z" fill="url(#paint5_radial_69_10387)"/>
<path d="M678.716 110.667L672.85 97.9142L662.409 93.5291L648.857 79.0381L658.85 70.5291L661.16 60.2852L673.755 61.1132L696.185 80.9821L696.057 96.4201L678.716 110.667Z" fill="#EA651A"/>
<path d="M699.23 82.3394L676.933 67.8824L659.71 66.6854L649.636 57.6844L671.652 52.5664L711.702 56.8974L714.258 78.3284L699.23 82.3394Z" fill="#EE9960"/>
<path d="M677.41 55.8792C689.655 59.5272 715.051 47.2772 691.448 34.3832C667.839 21.4802 647.87 12.6012 651.921 27.7412C655.961 42.8812 662.725 58.8382 668.603 57.6602L677.41 55.8792Z" fill="#FDD180"/>
<path d="M671.12 68.5205L680.39 51.7346L648.089 38.3516L634.368 55.9546L671.12 68.5205Z" fill="#B1B772"/>
<path d="M680.39 51.7404L683.121 45.0405L656.237 29.2305L648.089 38.3575L680.39 51.7404Z" fill="#5E6A21"/>
</g>
<g clip-path="url(#clip3_69_10387)">
<path d="M819.479 9.44922C782.347 9.44922 752.242 26.6212 752.242 47.8032V95.1142C752.242 116.297 782.347 133.468 819.479 133.468C856.611 133.468 886.718 116.297 886.718 95.1142V47.8032C886.717 26.6212 856.611 9.44922 819.479 9.44922Z" fill="#181B23" stroke="#181B23" stroke-width="2.9883"/>
<path d="M773.177 87.1982C774.497 81.4372 774.473 76.6882 774.111 71.1722C773.422 60.7312 776.486 50.5102 776.113 40.1202C775.856 32.9762 775.022 26.3412 774.17 19.5762C770.482 21.5022 767.149 23.6442 764.289 25.9952C764.307 36.8932 764.154 47.6432 762.614 58.4182C762.089 62.1132 762.538 65.7952 762.082 69.4852C761.68 72.7642 759.626 76.4362 760.249 79.8502C760.564 81.6012 761.907 83.3112 762.759 84.9222C765.421 89.9522 765.391 90.0812 763.494 96.4202C762.344 100.267 760.424 105.689 758.714 111.355C762.034 115.394 766.488 119.072 771.939 122.189C771.676 120.6 771.415 119.038 771.256 117.532C770.083 106.419 770.655 98.1832 773.177 87.1982Z" fill="#344347"/>
<path d="M867.012 99.4251C865.874 95.0821 866.055 91.0401 865.267 86.6331C864.589 82.8921 863.352 79.3961 862.762 75.6951C862.214 72.2681 863.474 68.4741 862.797 65.0721C862.138 61.7621 859.558 58.9201 858.397 55.8021C855.806 48.8691 853.127 40.8611 853.932 33.4371C854.435 28.7451 855.562 24.3431 855.386 19.5521C855.334 18.0981 855.077 16.6321 854.756 15.1741C844.507 11.5721 832.485 9.45312 819.562 9.45312C815.775 9.45312 812.084 9.67611 808.466 10.0201C809.057 12.3681 809.565 14.7121 809.581 17.1051C809.604 20.1461 808.068 23.2151 808.449 26.3981C808.991 30.9441 813.036 34.9421 812.832 39.6461C812.791 40.5631 811.07 40.6571 810.9 41.7181C810.567 43.8021 811.787 46.6791 811.098 48.6291C808.788 55.1781 806.101 53.5031 810.876 61.3051C813.591 65.7421 815.697 68.6551 816.433 72.7751C817.204 77.0651 818.948 85.3871 817.828 89.2171C817.158 91.5031 814.66 89.7931 815.109 93.0981C815.302 94.5161 817.396 96.1671 818.476 96.9801C812.967 104.743 810.954 112.86 808.187 121.874C807.112 125.375 806.401 125.732 807.656 129.028C808.305 130.732 809.622 132.034 811.245 133.147C813.976 133.335 816.737 133.47 819.562 133.47C836.209 133.47 851.418 129.997 863.161 124.282C865.689 121.557 865.076 120.553 865.262 115.877C865.519 109.453 868.588 105.461 867.012 99.4251Z" fill="#22363B"/>
<path d="M886.471 47.8072C886.471 44.9872 884.575 42.7042 882.006 41.9362C881.726 40.9672 881.371 40.0212 880.957 39.0822C881.552 38.1292 881.989 37.0612 881.989 35.8532C881.989 32.4092 879.204 29.6262 875.76 29.6262C875.656 29.6262 875.574 29.6782 875.468 29.6832C875.364 26.3332 872.655 23.6492 869.281 23.6492C868.493 23.6492 867.752 23.8302 867.058 24.0992C866.305 23.6082 865.686 23.0592 864.887 22.5932C864.478 19.5522 861.98 17.1702 858.823 17.1702C858.331 17.1702 857.894 17.3402 857.433 17.4502C856.406 16.7092 855.21 16.1782 853.844 16.1782C852.927 16.1782 852.07 16.4002 851.287 16.7572C851.247 16.7432 851.2 16.7342 851.16 16.7142C850.266 14.3692 848.037 12.6882 845.376 12.6882C843.898 12.6882 842.603 13.2722 841.535 14.1292C840.932 14.0002 840.297 13.9202 839.69 13.8032C838.604 11.9822 836.703 10.6982 834.419 10.6982C832.902 10.6982 831.559 11.3042 830.48 12.2102C829.344 10.9902 827.755 10.2022 825.952 10.2022C824.574 10.2022 823.372 10.7342 822.339 11.4932C821.219 10.3892 819.684 9.70117 817.985 9.70117C815.96 9.70117 814.25 10.7222 813.111 12.2162C810.245 12.3972 807.425 12.6132 804.689 13.0032C803.654 12.2392 802.441 11.6962 801.052 11.6962C798.881 11.6962 797.065 12.8692 795.951 14.5502C794.643 14.8542 793.464 15.2732 792.203 15.6302C791.276 15.0802 790.253 14.6852 789.099 14.6852C786.554 14.6852 784.382 16.2192 783.413 18.4022C782.568 17.9702 781.645 17.6732 780.63 17.6732C778.3 17.6732 776.351 18.9972 775.283 20.8892C774.904 20.8192 774.558 20.6612 774.156 20.6612C771.489 20.6612 769.26 22.3492 768.367 24.7062C765.846 24.8352 763.75 26.4162 762.891 28.6702C762.821 28.6642 762.768 28.6272 762.698 28.6272C759.254 28.6272 756.471 31.4122 756.471 34.8562C756.471 35.9242 756.81 36.8822 757.283 37.7562C755.63 38.8782 754.481 40.6762 754.481 42.8232C754.481 44.7772 755.439 46.4532 756.845 47.5912C756.845 47.6732 756.803 47.7482 756.803 47.8302C756.803 48.9102 757.193 49.9322 757.362 50.9882C755.939 52.1332 754.977 53.8072 754.977 55.7742C754.977 58.9552 757.393 61.4832 760.479 61.8572C760.538 65.2402 763.275 67.9772 766.684 67.9772C766.959 67.9772 767.185 67.8562 767.455 67.8272C767.77 68.0962 768.166 68.3282 768.499 68.5972C768.697 71.8492 771.34 74.4522 774.651 74.4522C774.89 74.4522 775.088 74.3412 775.321 74.3172C776.192 76.7092 778.426 78.4372 781.124 78.4372C782.279 78.4372 783.295 78.0412 784.223 77.4932C785.672 78.0592 787.276 78.4782 788.805 78.9812C789.715 81.2802 791.94 82.9212 794.572 82.9212C795.791 82.9212 796.859 82.4762 797.816 81.8742C798.914 83.6552 800.794 84.9092 803.04 84.9092C804.743 84.9092 806.279 84.2212 807.399 83.1182C811.449 83.5792 815.636 83.8362 819.924 83.8362C830.524 83.8362 840.359 82.2082 849.131 79.5692C850.176 80.3692 851.425 80.9282 852.843 80.9282C854.885 80.9282 856.613 79.8832 857.745 78.3662C858.258 78.5002 858.761 78.6812 859.321 78.6812C862.701 78.6812 865.414 75.9782 865.514 72.6282C865.601 72.5742 865.665 72.5182 865.747 72.4642C866.763 73.1892 867.935 73.7012 869.278 73.7012C872.722 73.7012 875.507 70.9112 875.507 67.4732C875.507 66.6212 875.331 65.8032 875.022 65.0632C876.201 63.8362 877.439 62.6342 878.365 61.3282C878.664 61.3672 878.932 61.5022 879.242 61.5022C882.685 61.5022 885.469 58.7122 885.469 55.2752C885.469 54.1552 885.095 53.1622 884.575 52.2532C885.742 51.1212 886.471 49.5572 886.471 47.8072Z" fill="url(#paint6_radial_69_10387)"/>
<path d="M774.962 71.4404L788.878 69.5844L798.157 76.0744L817.646 79.7934L819.509 66.7994L826.932 59.3754L819.509 49.1674L790.734 40.8164L777.747 49.1674L774.962 71.4404Z" fill="#EA651A"/>
<path d="M787.956 38.9709L812.083 50.101L822.292 64.0219L835.278 67.7339L827.854 46.3869L802.804 14.8359L783.315 24.1219L787.956 38.9709Z" fill="#EE9960"/>
<path d="M821.976 43.2795C812.353 34.8745 809.148 6.86448 832.658 19.9335C856.173 33.0015 874.342 45.1395 859.377 49.8045C844.424 54.4735 827.317 57.2755 825.175 51.6785L821.976 43.2795Z" fill="#FDD180"/>
<path d="M814.658 55.3499L823.898 38.5469L852.462 58.7109L844.903 79.7119L814.658 55.3499Z" fill="#B1B772"/>
<path d="M823.898 38.551L828.099 32.668L855.823 46.949L852.462 58.715L823.898 38.551Z" fill="#5E6A21"/>
<path d="M957.35 39.9303C977.182 71.3253 978.741 105.948 960.834 117.26L920.836 142.527C902.923 153.838 872.327 137.559 852.501 106.165C832.668 74.7693 831.11 40.1473 849.018 28.8353L889.015 3.56929C906.927 -7.74371 937.523 8.53429 957.35 39.9303Z" fill="#181B23" stroke="#181B23" stroke-width="2.9883"/>
<path d="M916.344 120.596C920.51 116.406 924.537 113.884 929.394 111.245C938.592 106.25 945.596 98.2006 954.58 92.9706C960.754 89.3686 966.812 86.5325 972.989 83.6445C973.325 87.7895 973.297 91.7496 972.836 95.4276C963.616 101.229 954.608 107.102 946.321 114.158C943.478 116.573 940.121 118.162 937.244 120.513C934.687 122.609 932.68 126.303 929.465 127.599C927.812 128.271 925.652 128.049 923.832 128.188C918.158 128.626 918.065 128.719 913.717 133.704C911.079 136.734 907.523 141.253 903.642 145.723C898.455 145.075 892.968 143.271 887.423 140.329C888.905 139.705 890.37 139.087 891.725 138.42C901.746 133.472 908.406 128.592 916.344 120.596Z" fill="#344347"/>
<path d="M855.893 47.7911C860.172 46.4361 863.498 44.1242 867.643 42.4322C871.167 41.0072 874.787 40.1912 878.231 38.7092C881.419 37.3432 883.95 34.2491 887.19 33.0071C890.342 31.7981 894.123 32.4641 897.374 31.7791C904.623 30.2681 912.824 28.2562 918.673 23.6082C922.367 20.6782 925.49 17.3741 929.634 14.9651C930.888 14.2291 932.267 13.6682 933.673 13.1602C942.189 19.9012 950.4 28.9362 957.305 39.8632C959.325 43.0612 961.11 46.3012 962.75 49.5402C960.452 50.2982 958.199 51.1211 956.161 52.3821C953.581 53.9871 951.807 56.9292 948.912 58.3072C944.779 60.2742 939.242 58.9901 935.372 61.6751C934.619 62.1991 935.459 63.7052 934.648 64.4112C933.066 65.8062 929.983 66.3142 928.701 67.9372C924.398 73.3872 927.247 74.7652 918.101 74.8942C912.901 74.9702 909.315 74.7421 905.441 76.3181C901.402 77.9641 893.428 80.9281 890.792 83.9221C889.215 85.7151 891.999 86.9092 888.964 88.2952C887.662 88.8912 885.146 88.0032 883.885 87.5192C880.26 96.3272 874.471 102.361 868.332 109.516C865.944 112.295 866.025 113.083 862.565 113.783C860.779 114.145 858.975 113.725 857.166 112.948C855.55 110.743 853.963 108.477 852.451 106.09C843.561 92.0201 838.38 77.3042 836.938 64.3242C837.888 60.7292 839.067 60.7111 842.919 58.0541C848.213 54.4081 849.952 49.6821 855.893 47.7911Z" fill="#22363B"/>
<path d="M889.145 3.77104C891.526 2.26504 894.468 2.64904 896.494 4.41304C897.463 4.13304 898.449 3.92905 899.465 3.77605C899.954 2.76605 900.62 1.82003 901.647 1.17903C904.553 -0.658966 908.394 0.209052 910.233 3.11705C910.292 3.21105 910.292 3.30304 910.344 3.39604C913.233 1.69204 916.945 2.54904 918.749 5.40404C919.169 6.06904 919.415 6.79305 919.554 7.52205C920.372 7.89605 921.165 8.12904 921.988 8.55504C924.778 7.27804 928.123 8.11704 929.809 10.784C930.072 11.198 930.164 11.659 930.318 12.108C931.491 12.582 932.583 13.3121 933.313 14.4621C933.797 15.2361 934.07 16.0831 934.188 16.9371C934.216 16.9601 934.251 16.9941 934.293 17.0181C936.749 16.5221 939.364 17.5081 940.783 19.7601C941.571 21.0111 941.769 22.4151 941.617 23.7781C942.043 24.2201 942.45 24.71 942.878 25.159C944.996 25.107 947.099 26.0291 948.317 27.9631C949.129 29.2391 949.333 30.6981 949.14 32.1011C950.78 32.4091 952.297 33.3311 953.261 34.8551C953.996 36.0221 954.189 37.318 954.096 38.603C955.63 38.958 957.032 39.886 957.936 41.323C959.022 43.04 959.069 45.0291 958.415 46.7861C959.791 49.3071 961.117 51.8061 962.243 54.3251C963.447 54.7931 964.55 55.5291 965.291 56.7081C966.451 58.5411 966.429 60.7001 965.607 62.5441C966.044 63.8121 966.317 65.0311 966.691 66.2861C967.655 66.7751 968.535 67.43 969.148 68.405C970.508 70.558 970.368 73.2141 969.044 75.1991C969.861 75.6811 970.603 76.3071 971.144 77.1651C972.388 79.1331 972.312 81.4901 971.285 83.3981C971.548 83.6851 971.863 83.8881 972.078 84.2341C973.503 86.4851 973.263 89.27 971.751 91.284C972.99 93.49 972.766 96.106 971.319 98.03C971.366 98.09 971.425 98.113 971.459 98.171C973.298 101.083 972.435 104.925 969.522 106.763C968.617 107.335 967.624 107.557 966.632 107.627C966.569 109.623 965.663 111.554 963.849 112.704C962.198 113.743 960.265 113.831 958.555 113.247C958.485 113.295 958.444 113.369 958.374 113.412C957.458 113.988 956.391 114.203 955.403 114.625C955.2 116.439 954.295 118.15 952.632 119.201C949.946 120.898 946.514 120.204 944.554 117.795C941.658 119.551 937.883 118.7 936.06 115.816C935.914 115.587 935.898 115.325 935.78 115.087C935.385 114.964 934.975 114.752 934.567 114.613C931.713 116.181 928.1 115.336 926.338 112.542C926.209 112.337 926.197 112.108 926.092 111.898C923.6 112.442 920.949 111.473 919.508 109.196C918.889 108.216 918.687 107.148 918.652 106.068C917.403 105.146 916.189 104.014 914.945 102.994C912.517 103.447 909.944 102.444 908.537 100.221C907.883 99.1881 907.69 98.049 907.684 96.917C905.595 96.94 903.535 96.023 902.332 94.121C901.421 92.68 901.182 91.0161 901.52 89.4801C898.963 86.2991 896.512 82.9031 894.225 79.2731C888.563 70.3131 884.686 61.126 882.231 52.3C880.999 51.846 879.855 51.085 879.102 49.891C878.011 48.162 877.969 46.144 878.646 44.375C878.261 44.013 877.834 43.6861 877.539 43.2131C875.735 40.3531 876.569 36.617 879.348 34.745C879.348 34.639 879.364 34.5581 879.364 34.4581C878.209 33.9851 877.146 33.268 876.428 32.136C874.59 29.224 875.466 25.3771 878.371 23.5441C879.09 23.0891 879.872 22.797 880.666 22.668C881.073 21.017 881.43 19.3231 882.038 17.8421C881.845 17.6131 881.589 17.4551 881.425 17.1951C879.586 14.2881 880.455 10.442 883.363 8.60204C884.309 8.00704 885.348 7.79004 886.398 7.74404C886.729 6.16304 887.662 4.70904 889.145 3.77104Z" fill="url(#paint7_radial_69_10387)"/>
<path d="M928.716 110.667L922.85 97.9142L912.409 93.5291L898.857 79.0381L908.85 70.5291L911.16 60.2852L923.755 61.1132L946.185 80.9821L946.057 96.4201L928.716 110.667Z" fill="#EA651A"/>
<path d="M949.23 82.3394L926.933 67.8824L909.71 66.6854L899.636 57.6844L921.652 52.5664L961.702 56.8974L964.258 78.3284L949.23 82.3394Z" fill="#EE9960"/>
<path d="M927.41 55.8792C939.655 59.5272 965.051 47.2772 941.448 34.3832C917.839 21.4802 897.87 12.6012 901.921 27.7412C905.961 42.8812 912.725 58.8382 918.603 57.6602L927.41 55.8792Z" fill="#FDD180"/>
<path d="M921.12 68.5205L930.39 51.7346L898.089 38.3516L884.368 55.9546L921.12 68.5205Z" fill="#B1B772"/>
<path d="M930.39 51.7404L933.121 45.0405L906.237 29.2305L898.089 38.3575L930.39 51.7404Z" fill="#5E6A21"/>
</g>
<g clip-path="url(#clip4_69_10387)">
<path d="M1069.48 9.44922C1032.35 9.44922 1002.24 26.6212 1002.24 47.8032V95.1142C1002.24 116.297 1032.35 133.468 1069.48 133.468C1106.61 133.468 1136.72 116.297 1136.72 95.1142V47.8032C1136.72 26.6212 1106.61 9.44922 1069.48 9.44922Z" fill="#181B23" stroke="#181B23" stroke-width="2.9883"/>
<path d="M1023.18 87.1982C1024.5 81.4372 1024.47 76.6882 1024.11 71.1722C1023.42 60.7312 1026.49 50.5102 1026.11 40.1202C1025.86 32.9762 1025.02 26.3412 1024.17 19.5762C1020.48 21.5022 1017.15 23.6442 1014.29 25.9952C1014.31 36.8932 1014.15 47.6432 1012.61 58.4182C1012.09 62.1132 1012.54 65.7952 1012.08 69.4852C1011.68 72.7642 1009.63 76.4362 1010.25 79.8502C1010.56 81.6012 1011.91 83.3112 1012.76 84.9222C1015.42 89.9522 1015.39 90.0812 1013.49 96.4202C1012.34 100.267 1010.42 105.689 1008.71 111.355C1012.03 115.394 1016.49 119.072 1021.94 122.189C1021.68 120.6 1021.41 119.038 1021.26 117.532C1020.08 106.419 1020.65 98.1832 1023.18 87.1982Z" fill="#344347"/>
<path d="M1117.01 99.4251C1115.87 95.0821 1116.05 91.0401 1115.27 86.6331C1114.59 82.8921 1113.35 79.3961 1112.76 75.6951C1112.21 72.2681 1113.47 68.4741 1112.8 65.0721C1112.14 61.7621 1109.56 58.9201 1108.4 55.8021C1105.81 48.8691 1103.13 40.8611 1103.93 33.4371C1104.43 28.7451 1105.56 24.3431 1105.39 19.5521C1105.33 18.0981 1105.08 16.6321 1104.76 15.1741C1094.51 11.5721 1082.48 9.45312 1069.56 9.45312C1065.77 9.45312 1062.08 9.67611 1058.47 10.0201C1059.06 12.3681 1059.56 14.7121 1059.58 17.1051C1059.6 20.1461 1058.07 23.2151 1058.45 26.3981C1058.99 30.9441 1063.04 34.9421 1062.83 39.6461C1062.79 40.5631 1061.07 40.6571 1060.9 41.7181C1060.57 43.8021 1061.79 46.6791 1061.1 48.6291C1058.79 55.1781 1056.1 53.5031 1060.88 61.3051C1063.59 65.7421 1065.7 68.6551 1066.43 72.7751C1067.2 77.0651 1068.95 85.3871 1067.83 89.2171C1067.16 91.5031 1064.66 89.7931 1065.11 93.0981C1065.3 94.5161 1067.4 96.1671 1068.48 96.9801C1062.97 104.743 1060.95 112.86 1058.19 121.874C1057.11 125.375 1056.4 125.732 1057.66 129.028C1058.3 130.732 1059.62 132.034 1061.24 133.147C1063.98 133.335 1066.74 133.47 1069.56 133.47C1086.21 133.47 1101.42 129.997 1113.16 124.282C1115.69 121.557 1115.08 120.553 1115.26 115.877C1115.52 109.453 1118.59 105.461 1117.01 99.4251Z" fill="#22363B"/>
<path d="M1136.47 47.8072C1136.47 44.9872 1134.58 42.7042 1132.01 41.9362C1131.73 40.9672 1131.37 40.0212 1130.96 39.0822C1131.55 38.1292 1131.99 37.0612 1131.99 35.8532C1131.99 32.4092 1129.2 29.6262 1125.76 29.6262C1125.66 29.6262 1125.57 29.6782 1125.47 29.6832C1125.36 26.3332 1122.66 23.6492 1119.28 23.6492C1118.49 23.6492 1117.75 23.8302 1117.06 24.0992C1116.31 23.6082 1115.69 23.0592 1114.89 22.5932C1114.48 19.5522 1111.98 17.1702 1108.82 17.1702C1108.33 17.1702 1107.89 17.3402 1107.43 17.4502C1106.41 16.7092 1105.21 16.1782 1103.84 16.1782C1102.93 16.1782 1102.07 16.4002 1101.29 16.7572C1101.25 16.7432 1101.2 16.7342 1101.16 16.7142C1100.27 14.3692 1098.04 12.6882 1095.38 12.6882C1093.9 12.6882 1092.6 13.2722 1091.54 14.1292C1090.93 14.0002 1090.3 13.9202 1089.69 13.8032C1088.6 11.9822 1086.7 10.6982 1084.42 10.6982C1082.9 10.6982 1081.56 11.3042 1080.48 12.2102C1079.34 10.9902 1077.76 10.2022 1075.95 10.2022C1074.57 10.2022 1073.37 10.7342 1072.34 11.4932C1071.22 10.3892 1069.68 9.70117 1067.99 9.70117C1065.96 9.70117 1064.25 10.7222 1063.11 12.2162C1060.25 12.3972 1057.43 12.6132 1054.69 13.0032C1053.65 12.2392 1052.44 11.6962 1051.05 11.6962C1048.88 11.6962 1047.07 12.8692 1045.95 14.5502C1044.64 14.8542 1043.46 15.2732 1042.2 15.6302C1041.28 15.0802 1040.25 14.6852 1039.1 14.6852C1036.55 14.6852 1034.38 16.2192 1033.41 18.4022C1032.57 17.9702 1031.65 17.6732 1030.63 17.6732C1028.3 17.6732 1026.35 18.9972 1025.28 20.8892C1024.9 20.8192 1024.56 20.6612 1024.16 20.6612C1021.49 20.6612 1019.26 22.3492 1018.37 24.7062C1015.85 24.8352 1013.75 26.4162 1012.89 28.6702C1012.82 28.6642 1012.77 28.6272 1012.7 28.6272C1009.25 28.6272 1006.47 31.4122 1006.47 34.8562C1006.47 35.9242 1006.81 36.8822 1007.28 37.7562C1005.63 38.8782 1004.48 40.6762 1004.48 42.8232C1004.48 44.7772 1005.44 46.4532 1006.85 47.5912C1006.85 47.6732 1006.8 47.7482 1006.8 47.8302C1006.8 48.9102 1007.19 49.9322 1007.36 50.9882C1005.94 52.1332 1004.98 53.8072 1004.98 55.7742C1004.98 58.9552 1007.39 61.4832 1010.48 61.8572C1010.54 65.2402 1013.28 67.9772 1016.68 67.9772C1016.96 67.9772 1017.19 67.8562 1017.46 67.8272C1017.77 68.0962 1018.17 68.3282 1018.5 68.5972C1018.7 71.8492 1021.34 74.4522 1024.65 74.4522C1024.89 74.4522 1025.09 74.3412 1025.32 74.3172C1026.19 76.7092 1028.43 78.4372 1031.12 78.4372C1032.28 78.4372 1033.3 78.0412 1034.22 77.4932C1035.67 78.0592 1037.28 78.4782 1038.81 78.9812C1039.72 81.2802 1041.94 82.9212 1044.57 82.9212C1045.79 82.9212 1046.86 82.4762 1047.82 81.8742C1048.91 83.6552 1050.79 84.9092 1053.04 84.9092C1054.74 84.9092 1056.28 84.2212 1057.4 83.1182C1061.45 83.5792 1065.64 83.8362 1069.92 83.8362C1080.52 83.8362 1090.36 82.2082 1099.13 79.5692C1100.18 80.3692 1101.43 80.9282 1102.84 80.9282C1104.89 80.9282 1106.61 79.8832 1107.75 78.3662C1108.26 78.5002 1108.76 78.6812 1109.32 78.6812C1112.7 78.6812 1115.41 75.9782 1115.51 72.6282C1115.6 72.5742 1115.67 72.5182 1115.75 72.4642C1116.76 73.1892 1117.94 73.7012 1119.28 73.7012C1122.72 73.7012 1125.51 70.9112 1125.51 67.4732C1125.51 66.6212 1125.33 65.8032 1125.02 65.0632C1126.2 63.8362 1127.44 62.6342 1128.37 61.3282C1128.66 61.3672 1128.93 61.5022 1129.24 61.5022C1132.69 61.5022 1135.47 58.7122 1135.47 55.2752C1135.47 54.1552 1135.1 53.1622 1134.58 52.2532C1135.74 51.1212 1136.47 49.5572 1136.47 47.8072Z" fill="url(#paint8_radial_69_10387)"/>
<path d="M1024.96 71.4404L1038.88 69.5844L1048.16 76.0744L1067.65 79.7934L1069.51 66.7994L1076.93 59.3754L1069.51 49.1674L1040.73 40.8164L1027.75 49.1674L1024.96 71.4404Z" fill="#EA651A"/>
<path d="M1037.96 38.9709L1062.08 50.101L1072.29 64.0219L1085.28 67.7339L1077.85 46.3869L1052.8 14.8359L1033.32 24.1219L1037.96 38.9709Z" fill="#EE9960"/>
<path d="M1071.98 43.2795C1062.35 34.8745 1059.15 6.86448 1082.66 19.9335C1106.17 33.0015 1124.34 45.1395 1109.38 49.8045C1094.42 54.4735 1077.32 57.2755 1075.18 51.6785L1071.98 43.2795Z" fill="#FDD180"/>
<path d="M1064.66 55.3499L1073.9 38.5469L1102.46 58.7109L1094.9 79.7119L1064.66 55.3499Z" fill="#B1B772"/>
<path d="M1073.9 38.551L1078.1 32.668L1105.82 46.949L1102.46 58.715L1073.9 38.551Z" fill="#5E6A21"/>
<path d="M1207.35 39.9303C1227.18 71.3253 1228.74 105.948 1210.83 117.26L1170.84 142.527C1152.92 153.838 1122.33 137.559 1102.5 106.165C1082.67 74.7693 1081.11 40.1473 1099.02 28.8353L1139.01 3.56929C1156.93 -7.74371 1187.52 8.53429 1207.35 39.9303Z" fill="#181B23" stroke="#181B23" stroke-width="2.9883"/>
<path d="M1166.34 120.596C1170.51 116.406 1174.54 113.884 1179.39 111.245C1188.59 106.25 1195.6 98.2006 1204.58 92.9706C1210.75 89.3686 1216.81 86.5325 1222.99 83.6445C1223.32 87.7895 1223.3 91.7496 1222.84 95.4276C1213.62 101.229 1204.61 107.102 1196.32 114.158C1193.48 116.573 1190.12 118.162 1187.24 120.513C1184.69 122.609 1182.68 126.303 1179.46 127.599C1177.81 128.271 1175.65 128.049 1173.83 128.188C1168.16 128.626 1168.06 128.719 1163.72 133.704C1161.08 136.734 1157.52 141.253 1153.64 145.723C1148.45 145.075 1142.97 143.271 1137.42 140.329C1138.9 139.705 1140.37 139.087 1141.72 138.42C1151.75 133.472 1158.41 128.592 1166.34 120.596Z" fill="#344347"/>
<path d="M1105.89 47.7911C1110.17 46.4361 1113.5 44.1242 1117.64 42.4322C1121.17 41.0072 1124.79 40.1912 1128.23 38.7092C1131.42 37.3432 1133.95 34.2491 1137.19 33.0071C1140.34 31.7981 1144.12 32.4641 1147.37 31.7791C1154.62 30.2681 1162.82 28.2562 1168.67 23.6082C1172.37 20.6782 1175.49 17.3741 1179.63 14.9651C1180.89 14.2291 1182.27 13.6682 1183.67 13.1602C1192.19 19.9012 1200.4 28.9362 1207.3 39.8632C1209.32 43.0612 1211.11 46.3012 1212.75 49.5402C1210.45 50.2982 1208.2 51.1211 1206.16 52.3821C1203.58 53.9871 1201.81 56.9292 1198.91 58.3072C1194.78 60.2742 1189.24 58.9901 1185.37 61.6751C1184.62 62.1991 1185.46 63.7052 1184.65 64.4112C1183.07 65.8062 1179.98 66.3142 1178.7 67.9372C1174.4 73.3872 1177.25 74.7652 1168.1 74.8942C1162.9 74.9702 1159.31 74.7421 1155.44 76.3181C1151.4 77.9641 1143.43 80.9281 1140.79 83.9221C1139.21 85.7151 1142 86.9092 1138.96 88.2952C1137.66 88.8912 1135.15 88.0032 1133.88 87.5192C1130.26 96.3272 1124.47 102.361 1118.33 109.516C1115.94 112.295 1116.02 113.083 1112.56 113.783C1110.78 114.145 1108.97 113.725 1107.17 112.948C1105.55 110.743 1103.96 108.477 1102.45 106.09C1093.56 92.0201 1088.38 77.3042 1086.94 64.3242C1087.89 60.7292 1089.07 60.7111 1092.92 58.0541C1098.21 54.4081 1099.95 49.6821 1105.89 47.7911Z" fill="#22363B"/>
<path d="M1139.15 3.77104C1141.53 2.26504 1144.47 2.64904 1146.49 4.41304C1147.46 4.13304 1148.45 3.92905 1149.47 3.77605C1149.95 2.76605 1150.62 1.82003 1151.65 1.17903C1154.55 -0.658966 1158.39 0.209052 1160.23 3.11705C1160.29 3.21105 1160.29 3.30304 1160.34 3.39604C1163.23 1.69204 1166.95 2.54904 1168.75 5.40404C1169.17 6.06904 1169.42 6.79305 1169.55 7.52205C1170.37 7.89605 1171.17 8.12904 1171.99 8.55504C1174.78 7.27804 1178.12 8.11704 1179.81 10.784C1180.07 11.198 1180.16 11.659 1180.32 12.108C1181.49 12.582 1182.58 13.3121 1183.31 14.4621C1183.8 15.2361 1184.07 16.0831 1184.19 16.9371C1184.22 16.9601 1184.25 16.9941 1184.29 17.0181C1186.75 16.5221 1189.36 17.5081 1190.78 19.7601C1191.57 21.0111 1191.77 22.4151 1191.62 23.7781C1192.04 24.2201 1192.45 24.71 1192.88 25.159C1195 25.107 1197.1 26.0291 1198.32 27.9631C1199.13 29.2391 1199.33 30.6981 1199.14 32.1011C1200.78 32.4091 1202.3 33.3311 1203.26 34.8551C1204 36.0221 1204.19 37.318 1204.1 38.603C1205.63 38.958 1207.03 39.886 1207.94 41.323C1209.02 43.04 1209.07 45.0291 1208.42 46.7861C1209.79 49.3071 1211.12 51.8061 1212.24 54.3251C1213.45 54.7931 1214.55 55.5291 1215.29 56.7081C1216.45 58.5411 1216.43 60.7001 1215.61 62.5441C1216.04 63.8121 1216.32 65.0311 1216.69 66.2861C1217.66 66.7751 1218.54 67.43 1219.15 68.405C1220.51 70.558 1220.37 73.2141 1219.04 75.1991C1219.86 75.6811 1220.6 76.3071 1221.14 77.1651C1222.39 79.1331 1222.31 81.4901 1221.29 83.3981C1221.55 83.6851 1221.86 83.8881 1222.08 84.2341C1223.5 86.4851 1223.26 89.27 1221.75 91.284C1222.99 93.49 1222.77 96.106 1221.32 98.03C1221.37 98.09 1221.43 98.113 1221.46 98.171C1223.3 101.083 1222.44 104.925 1219.52 106.763C1218.62 107.335 1217.62 107.557 1216.63 107.627C1216.57 109.623 1215.66 111.554 1213.85 112.704C1212.2 113.743 1210.27 113.831 1208.56 113.247C1208.49 113.295 1208.44 113.369 1208.37 113.412C1207.46 113.988 1206.39 114.203 1205.4 114.625C1205.2 116.439 1204.3 118.15 1202.63 119.201C1199.95 120.898 1196.51 120.204 1194.55 117.795C1191.66 119.551 1187.88 118.7 1186.06 115.816C1185.91 115.587 1185.9 115.325 1185.78 115.087C1185.39 114.964 1184.98 114.752 1184.57 114.613C1181.71 116.181 1178.1 115.336 1176.34 112.542C1176.21 112.337 1176.2 112.108 1176.09 111.898C1173.6 112.442 1170.95 111.473 1169.51 109.196C1168.89 108.216 1168.69 107.148 1168.65 106.068C1167.4 105.146 1166.19 104.014 1164.95 102.994C1162.52 103.447 1159.94 102.444 1158.54 100.221C1157.88 99.1881 1157.69 98.049 1157.68 96.917C1155.6 96.94 1153.54 96.023 1152.33 94.121C1151.42 92.68 1151.18 91.0161 1151.52 89.4801C1148.96 86.2991 1146.51 82.9031 1144.23 79.2731C1138.56 70.3131 1134.69 61.126 1132.23 52.3C1131 51.846 1129.86 51.085 1129.1 49.891C1128.01 48.162 1127.97 46.144 1128.65 44.375C1128.26 44.013 1127.83 43.6861 1127.54 43.2131C1125.74 40.3531 1126.57 36.617 1129.35 34.745C1129.35 34.639 1129.36 34.5581 1129.36 34.4581C1128.21 33.9851 1127.15 33.268 1126.43 32.136C1124.59 29.224 1125.47 25.3771 1128.37 23.5441C1129.09 23.0891 1129.87 22.797 1130.67 22.668C1131.07 21.017 1131.43 19.3231 1132.04 17.8421C1131.85 17.6131 1131.59 17.4551 1131.43 17.1951C1129.59 14.2881 1130.46 10.442 1133.36 8.60204C1134.31 8.00704 1135.35 7.79004 1136.4 7.74404C1136.73 6.16304 1137.66 4.70904 1139.15 3.77104Z" fill="url(#paint9_radial_69_10387)"/>
<path d="M1178.72 110.667L1172.85 97.9142L1162.41 93.5291L1148.86 79.0381L1158.85 70.5291L1161.16 60.2852L1173.76 61.1132L1196.18 80.9821L1196.06 96.4201L1178.72 110.667Z" fill="#EA651A"/>
<path d="M1199.23 82.3394L1176.93 67.8824L1159.71 66.6854L1149.64 57.6844L1171.65 52.5664L1211.7 56.8974L1214.26 78.3284L1199.23 82.3394Z" fill="#EE9960"/>
<path d="M1177.41 55.8792C1189.66 59.5272 1215.05 47.2772 1191.45 34.3832C1167.84 21.4802 1147.87 12.6012 1151.92 27.7412C1155.96 42.8812 1162.73 58.8382 1168.6 57.6602L1177.41 55.8792Z" fill="#FDD180"/>
<path d="M1171.12 68.5205L1180.39 51.7346L1148.09 38.3516L1134.37 55.9546L1171.12 68.5205Z" fill="#B1B772"/>
<path d="M1180.39 51.7404L1183.12 45.0405L1156.24 29.2305L1148.09 38.3575L1180.39 51.7404Z" fill="#5E6A21"/>
</g>
<g clip-path="url(#clip5_69_10387)">
<path d="M1319.48 9.44922C1282.35 9.44922 1252.24 26.6212 1252.24 47.8032V95.1142C1252.24 116.297 1282.35 133.468 1319.48 133.468C1356.61 133.468 1386.72 116.297 1386.72 95.1142V47.8032C1386.72 26.6212 1356.61 9.44922 1319.48 9.44922Z" fill="#181B23" stroke="#181B23" stroke-width="2.9883"/>
<path d="M1273.18 87.1982C1274.5 81.4372 1274.47 76.6882 1274.11 71.1722C1273.42 60.7312 1276.49 50.5102 1276.11 40.1202C1275.86 32.9762 1275.02 26.3412 1274.17 19.5762C1270.48 21.5022 1267.15 23.6442 1264.29 25.9952C1264.31 36.8932 1264.15 47.6432 1262.61 58.4182C1262.09 62.1132 1262.54 65.7952 1262.08 69.4852C1261.68 72.7642 1259.63 76.4362 1260.25 79.8502C1260.56 81.6012 1261.91 83.3112 1262.76 84.9222C1265.42 89.9522 1265.39 90.0812 1263.49 96.4202C1262.34 100.267 1260.42 105.689 1258.71 111.355C1262.03 115.394 1266.49 119.072 1271.94 122.189C1271.68 120.6 1271.41 119.038 1271.26 117.532C1270.08 106.419 1270.65 98.1832 1273.18 87.1982Z" fill="#344347"/>
<path d="M1367.01 99.4251C1365.87 95.0821 1366.05 91.0401 1365.27 86.6331C1364.59 82.8921 1363.35 79.3961 1362.76 75.6951C1362.21 72.2681 1363.47 68.4741 1362.8 65.0721C1362.14 61.7621 1359.56 58.9201 1358.4 55.8021C1355.81 48.8691 1353.13 40.8611 1353.93 33.4371C1354.43 28.7451 1355.56 24.3431 1355.39 19.5521C1355.33 18.0981 1355.08 16.6321 1354.76 15.1741C1344.51 11.5721 1332.48 9.45312 1319.56 9.45312C1315.77 9.45312 1312.08 9.67611 1308.47 10.0201C1309.06 12.3681 1309.56 14.7121 1309.58 17.1051C1309.6 20.1461 1308.07 23.2151 1308.45 26.3981C1308.99 30.9441 1313.04 34.9421 1312.83 39.6461C1312.79 40.5631 1311.07 40.6571 1310.9 41.7181C1310.57 43.8021 1311.79 46.6791 1311.1 48.6291C1308.79 55.1781 1306.1 53.5031 1310.88 61.3051C1313.59 65.7421 1315.7 68.6551 1316.43 72.7751C1317.2 77.0651 1318.95 85.3871 1317.83 89.2171C1317.16 91.5031 1314.66 89.7931 1315.11 93.0981C1315.3 94.5161 1317.4 96.1671 1318.48 96.9801C1312.97 104.743 1310.95 112.86 1308.19 121.874C1307.11 125.375 1306.4 125.732 1307.66 129.028C1308.3 130.732 1309.62 132.034 1311.24 133.147C1313.98 133.335 1316.74 133.47 1319.56 133.47C1336.21 133.47 1351.42 129.997 1363.16 124.282C1365.69 121.557 1365.08 120.553 1365.26 115.877C1365.52 109.453 1368.59 105.461 1367.01 99.4251Z" fill="#22363B"/>
<path d="M1386.47 47.8072C1386.47 44.9872 1384.58 42.7042 1382.01 41.9362C1381.73 40.9672 1381.37 40.0212 1380.96 39.0822C1381.55 38.1292 1381.99 37.0612 1381.99 35.8532C1381.99 32.4092 1379.2 29.6262 1375.76 29.6262C1375.66 29.6262 1375.57 29.6782 1375.47 29.6832C1375.36 26.3332 1372.66 23.6492 1369.28 23.6492C1368.49 23.6492 1367.75 23.8302 1367.06 24.0992C1366.31 23.6082 1365.69 23.0592 1364.89 22.5932C1364.48 19.5522 1361.98 17.1702 1358.82 17.1702C1358.33 17.1702 1357.89 17.3402 1357.43 17.4502C1356.41 16.7092 1355.21 16.1782 1353.84 16.1782C1352.93 16.1782 1352.07 16.4002 1351.29 16.7572C1351.25 16.7432 1351.2 16.7342 1351.16 16.7142C1350.27 14.3692 1348.04 12.6882 1345.38 12.6882C1343.9 12.6882 1342.6 13.2722 1341.54 14.1292C1340.93 14.0002 1340.3 13.9202 1339.69 13.8032C1338.6 11.9822 1336.7 10.6982 1334.42 10.6982C1332.9 10.6982 1331.56 11.3042 1330.48 12.2102C1329.34 10.9902 1327.76 10.2022 1325.95 10.2022C1324.57 10.2022 1323.37 10.7342 1322.34 11.4932C1321.22 10.3892 1319.68 9.70117 1317.99 9.70117C1315.96 9.70117 1314.25 10.7222 1313.11 12.2162C1310.25 12.3972 1307.43 12.6132 1304.69 13.0032C1303.65 12.2392 1302.44 11.6962 1301.05 11.6962C1298.88 11.6962 1297.07 12.8692 1295.95 14.5502C1294.64 14.8542 1293.46 15.2732 1292.2 15.6302C1291.28 15.0802 1290.25 14.6852 1289.1 14.6852C1286.55 14.6852 1284.38 16.2192 1283.41 18.4022C1282.57 17.9702 1281.65 17.6732 1280.63 17.6732C1278.3 17.6732 1276.35 18.9972 1275.28 20.8892C1274.9 20.8192 1274.56 20.6612 1274.16 20.6612C1271.49 20.6612 1269.26 22.3492 1268.37 24.7062C1265.85 24.8352 1263.75 26.4162 1262.89 28.6702C1262.82 28.6642 1262.77 28.6272 1262.7 28.6272C1259.25 28.6272 1256.47 31.4122 1256.47 34.8562C1256.47 35.9242 1256.81 36.8822 1257.28 37.7562C1255.63 38.8782 1254.48 40.6762 1254.48 42.8232C1254.48 44.7772 1255.44 46.4532 1256.85 47.5912C1256.85 47.6732 1256.8 47.7482 1256.8 47.8302C1256.8 48.9102 1257.19 49.9322 1257.36 50.9882C1255.94 52.1332 1254.98 53.8072 1254.98 55.7742C1254.98 58.9552 1257.39 61.4832 1260.48 61.8572C1260.54 65.2402 1263.28 67.9772 1266.68 67.9772C1266.96 67.9772 1267.19 67.8562 1267.46 67.8272C1267.77 68.0962 1268.17 68.3282 1268.5 68.5972C1268.7 71.8492 1271.34 74.4522 1274.65 74.4522C1274.89 74.4522 1275.09 74.3412 1275.32 74.3172C1276.19 76.7092 1278.43 78.4372 1281.12 78.4372C1282.28 78.4372 1283.3 78.0412 1284.22 77.4932C1285.67 78.0592 1287.28 78.4782 1288.81 78.9812C1289.72 81.2802 1291.94 82.9212 1294.57 82.9212C1295.79 82.9212 1296.86 82.4762 1297.82 81.8742C1298.91 83.6552 1300.79 84.9092 1303.04 84.9092C1304.74 84.9092 1306.28 84.2212 1307.4 83.1182C1311.45 83.5792 1315.64 83.8362 1319.92 83.8362C1330.52 83.8362 1340.36 82.2082 1349.13 79.5692C1350.18 80.3692 1351.43 80.9282 1352.84 80.9282C1354.89 80.9282 1356.61 79.8832 1357.75 78.3662C1358.26 78.5002 1358.76 78.6812 1359.32 78.6812C1362.7 78.6812 1365.41 75.9782 1365.51 72.6282C1365.6 72.5742 1365.67 72.5182 1365.75 72.4642C1366.76 73.1892 1367.94 73.7012 1369.28 73.7012C1372.72 73.7012 1375.51 70.9112 1375.51 67.4732C1375.51 66.6212 1375.33 65.8032 1375.02 65.0632C1376.2 63.8362 1377.44 62.6342 1378.37 61.3282C1378.66 61.3672 1378.93 61.5022 1379.24 61.5022C1382.69 61.5022 1385.47 58.7122 1385.47 55.2752C1385.47 54.1552 1385.1 53.1622 1384.58 52.2532C1385.74 51.1212 1386.47 49.5572 1386.47 47.8072Z" fill="url(#paint10_radial_69_10387)"/>
<path d="M1274.96 71.4404L1288.88 69.5844L1298.16 76.0744L1317.65 79.7934L1319.51 66.7994L1326.93 59.3754L1319.51 49.1674L1290.73 40.8164L1277.75 49.1674L1274.96 71.4404Z" fill="#EA651A"/>
<path d="M1287.96 38.9709L1312.08 50.101L1322.29 64.0219L1335.28 67.7339L1327.85 46.3869L1302.8 14.8359L1283.32 24.1219L1287.96 38.9709Z" fill="#EE9960"/>
<path d="M1321.98 43.2795C1312.35 34.8745 1309.15 6.86448 1332.66 19.9335C1356.17 33.0015 1374.34 45.1395 1359.38 49.8045C1344.42 54.4735 1327.32 57.2755 1325.18 51.6785L1321.98 43.2795Z" fill="#FDD180"/>
<path d="M1314.66 55.3499L1323.9 38.5469L1352.46 58.7109L1344.9 79.7119L1314.66 55.3499Z" fill="#B1B772"/>
<path d="M1323.9 38.551L1328.1 32.668L1355.82 46.949L1352.46 58.715L1323.9 38.551Z" fill="#5E6A21"/>
<path d="M1457.35 39.9303C1477.18 71.3253 1478.74 105.948 1460.83 117.26L1420.84 142.527C1402.92 153.838 1372.33 137.559 1352.5 106.165C1332.67 74.7693 1331.11 40.1473 1349.02 28.8353L1389.02 3.56929C1406.93 -7.74371 1437.52 8.53429 1457.35 39.9303Z" fill="#181B23" stroke="#181B23" stroke-width="2.9883"/>
<path d="M1416.34 120.596C1420.51 116.406 1424.54 113.884 1429.39 111.245C1438.59 106.25 1445.6 98.2006 1454.58 92.9706C1460.75 89.3686 1466.81 86.5325 1472.99 83.6445C1473.32 87.7895 1473.3 91.7496 1472.84 95.4276C1463.62 101.229 1454.61 107.102 1446.32 114.158C1443.48 116.573 1440.12 118.162 1437.24 120.513C1434.69 122.609 1432.68 126.303 1429.46 127.599C1427.81 128.271 1425.65 128.049 1423.83 128.188C1418.16 128.626 1418.06 128.719 1413.72 133.704C1411.08 136.734 1407.52 141.253 1403.64 145.723C1398.45 145.075 1392.97 143.271 1387.42 140.329C1388.9 139.705 1390.37 139.087 1391.72 138.42C1401.75 133.472 1408.41 128.592 1416.34 120.596Z" fill="#344347"/>
<path d="M1355.89 47.7911C1360.17 46.4361 1363.5 44.1242 1367.64 42.4322C1371.17 41.0072 1374.79 40.1912 1378.23 38.7092C1381.42 37.3432 1383.95 34.2491 1387.19 33.0071C1390.34 31.7981 1394.12 32.4641 1397.37 31.7791C1404.62 30.2681 1412.82 28.2562 1418.67 23.6082C1422.37 20.6782 1425.49 17.3741 1429.63 14.9651C1430.89 14.2291 1432.27 13.6682 1433.67 13.1602C1442.19 19.9012 1450.4 28.9362 1457.3 39.8632C1459.32 43.0612 1461.11 46.3012 1462.75 49.5402C1460.45 50.2982 1458.2 51.1211 1456.16 52.3821C1453.58 53.9871 1451.81 56.9292 1448.91 58.3072C1444.78 60.2742 1439.24 58.9901 1435.37 61.6751C1434.62 62.1991 1435.46 63.7052 1434.65 64.4112C1433.07 65.8062 1429.98 66.3142 1428.7 67.9372C1424.4 73.3872 1427.25 74.7652 1418.1 74.8942C1412.9 74.9702 1409.31 74.7421 1405.44 76.3181C1401.4 77.9641 1393.43 80.9281 1390.79 83.9221C1389.21 85.7151 1392 86.9092 1388.96 88.2952C1387.66 88.8912 1385.15 88.0032 1383.88 87.5192C1380.26 96.3272 1374.47 102.361 1368.33 109.516C1365.94 112.295 1366.02 113.083 1362.56 113.783C1360.78 114.145 1358.97 113.725 1357.17 112.948C1355.55 110.743 1353.96 108.477 1352.45 106.09C1343.56 92.0201 1338.38 77.3042 1336.94 64.3242C1337.89 60.7292 1339.07 60.7111 1342.92 58.0541C1348.21 54.4081 1349.95 49.6821 1355.89 47.7911Z" fill="#22363B"/>
<path d="M1389.14 3.77104C1391.53 2.26504 1394.47 2.64904 1396.49 4.41304C1397.46 4.13304 1398.45 3.92905 1399.46 3.77605C1399.95 2.76605 1400.62 1.82003 1401.65 1.17903C1404.55 -0.658966 1408.39 0.209052 1410.23 3.11705C1410.29 3.21105 1410.29 3.30304 1410.34 3.39604C1413.23 1.69204 1416.94 2.54904 1418.75 5.40404C1419.17 6.06904 1419.41 6.79305 1419.55 7.52205C1420.37 7.89605 1421.16 8.12904 1421.99 8.55504C1424.78 7.27804 1428.12 8.11704 1429.81 10.784C1430.07 11.198 1430.16 11.659 1430.32 12.108C1431.49 12.582 1432.58 13.3121 1433.31 14.4621C1433.8 15.2361 1434.07 16.0831 1434.19 16.9371C1434.22 16.9601 1434.25 16.9941 1434.29 17.0181C1436.75 16.5221 1439.36 17.5081 1440.78 19.7601C1441.57 21.0111 1441.77 22.4151 1441.62 23.7781C1442.04 24.2201 1442.45 24.71 1442.88 25.159C1445 25.107 1447.1 26.0291 1448.32 27.9631C1449.13 29.2391 1449.33 30.6981 1449.14 32.1011C1450.78 32.4091 1452.3 33.3311 1453.26 34.8551C1454 36.0221 1454.19 37.318 1454.1 38.603C1455.63 38.958 1457.03 39.886 1457.94 41.323C1459.02 43.04 1459.07 45.0291 1458.41 46.7861C1459.79 49.3071 1461.12 51.8061 1462.24 54.3251C1463.45 54.7931 1464.55 55.5291 1465.29 56.7081C1466.45 58.5411 1466.43 60.7001 1465.61 62.5441C1466.04 63.8121 1466.32 65.0311 1466.69 66.2861C1467.65 66.7751 1468.53 67.43 1469.15 68.405C1470.51 70.558 1470.37 73.2141 1469.04 75.1991C1469.86 75.6811 1470.6 76.3071 1471.14 77.1651C1472.39 79.1331 1472.31 81.4901 1471.28 83.3981C1471.55 83.6851 1471.86 83.8881 1472.08 84.2341C1473.5 86.4851 1473.26 89.27 1471.75 91.284C1472.99 93.49 1472.77 96.106 1471.32 98.03C1471.37 98.09 1471.42 98.113 1471.46 98.171C1473.3 101.083 1472.43 104.925 1469.52 106.763C1468.62 107.335 1467.62 107.557 1466.63 107.627C1466.57 109.623 1465.66 111.554 1463.85 112.704C1462.2 113.743 1460.26 113.831 1458.55 113.247C1458.48 113.295 1458.44 113.369 1458.37 113.412C1457.46 113.988 1456.39 114.203 1455.4 114.625C1455.2 116.439 1454.29 118.15 1452.63 119.201C1449.95 120.898 1446.51 120.204 1444.55 117.795C1441.66 119.551 1437.88 118.7 1436.06 115.816C1435.91 115.587 1435.9 115.325 1435.78 115.087C1435.38 114.964 1434.97 114.752 1434.57 114.613C1431.71 116.181 1428.1 115.336 1426.34 112.542C1426.21 112.337 1426.2 112.108 1426.09 111.898C1423.6 112.442 1420.95 111.473 1419.51 109.196C1418.89 108.216 1418.69 107.148 1418.65 106.068C1417.4 105.146 1416.19 104.014 1414.94 102.994C1412.52 103.447 1409.94 102.444 1408.54 100.221C1407.88 99.1881 1407.69 98.049 1407.68 96.917C1405.59 96.94 1403.53 96.023 1402.33 94.121C1401.42 92.68 1401.18 91.0161 1401.52 89.4801C1398.96 86.2991 1396.51 82.9031 1394.22 79.2731C1388.56 70.3131 1384.69 61.126 1382.23 52.3C1381 51.846 1379.85 51.085 1379.1 49.891C1378.01 48.162 1377.97 46.144 1378.65 44.375C1378.26 44.013 1377.83 43.6861 1377.54 43.2131C1375.73 40.3531 1376.57 36.617 1379.35 34.745C1379.35 34.639 1379.36 34.5581 1379.36 34.4581C1378.21 33.9851 1377.15 33.268 1376.43 32.136C1374.59 29.224 1375.47 25.3771 1378.37 23.5441C1379.09 23.0891 1379.87 22.797 1380.67 22.668C1381.07 21.017 1381.43 19.3231 1382.04 17.8421C1381.84 17.6131 1381.59 17.4551 1381.42 17.1951C1379.59 14.2881 1380.45 10.442 1383.36 8.60204C1384.31 8.00704 1385.35 7.79004 1386.4 7.74404C1386.73 6.16304 1387.66 4.70904 1389.14 3.77104Z" fill="url(#paint11_radial_69_10387)"/>
<path d="M1428.72 110.667L1422.85 97.9142L1412.41 93.5291L1398.86 79.0381L1408.85 70.5291L1411.16 60.2852L1423.75 61.1132L1446.18 80.9821L1446.06 96.4201L1428.72 110.667Z" fill="#EA651A"/>
<path d="M1449.23 82.3394L1426.93 67.8824L1409.71 66.6854L1399.64 57.6844L1421.65 52.5664L1461.7 56.8974L1464.26 78.3284L1449.23 82.3394Z" fill="#EE9960"/>
<path d="M1427.41 55.8792C1439.65 59.5272 1465.05 47.2772 1441.45 34.3832C1417.84 21.4802 1397.87 12.6012 1401.92 27.7412C1405.96 42.8812 1412.72 58.8382 1418.6 57.6602L1427.41 55.8792Z" fill="#FDD180"/>
<path d="M1421.12 68.5205L1430.39 51.7346L1398.09 38.3516L1384.37 55.9546L1421.12 68.5205Z" fill="#B1B772"/>
<path d="M1430.39 51.7404L1433.12 45.0405L1406.24 29.2305L1398.09 38.3575L1430.39 51.7404Z" fill="#5E6A21"/>
</g>
<defs>
<radialGradient id="paint0_radial_69_10387" cx="0" cy="0" r="1" gradientUnits="userSpaceOnUse" gradientTransform="translate(28.763 29.6692) scale(85.592 85.592)">
<stop stop-color="white"/>
<stop offset="0.6035" stop-color="#E9E7E3"/>
<stop offset="1" stop-color="#D8D6CE"/>
</radialGradient>
<radialGradient id="paint1_radial_69_10387" cx="0" cy="0" r="1" gradientUnits="userSpaceOnUse" gradientTransform="translate(170.913 15.8172) rotate(-122.276) scale(89.2052 89.2052)">
<stop stop-color="white"/>
<stop offset="0.6035" stop-color="#E9E7E3"/>
<stop offset="1" stop-color="#D8D6CE"/>
</radialGradient>
<radialGradient id="paint2_radial_69_10387" cx="0" cy="0" r="1" gradientUnits="userSpaceOnUse" gradientTransform="translate(278.763 29.6692) scale(85.592 85.592)">
<stop stop-color="white"/>
<stop offset="0.6035" stop-color="#E9E7E3"/>
<stop offset="1" stop-color="#D8D6CE"/>
</radialGradient>
<radialGradient id="paint3_radial_69_10387" cx="0" cy="0" r="1" gradientUnits="userSpaceOnUse" gradientTransform="translate(420.913 15.8172) rotate(-122.276) scale(89.2052 89.2052)">
<stop stop-color="white"/>
<stop offset="0.6035" stop-color="#E9E7E3"/>
<stop offset="1" stop-color="#D8D6CE"/>
</radialGradient>
<radialGradient id="paint4_radial_69_10387" cx="0" cy="0" r="1" gradientUnits="userSpaceOnUse" gradientTransform="translate(528.763 29.6692) scale(85.592 85.592)">
<stop stop-color="white"/>
<stop offset="0.6035" stop-color="#E9E7E3"/>
<stop offset="1" stop-color="#D8D6CE"/>
</radialGradient>
<radialGradient id="paint5_radial_69_10387" cx="0" cy="0" r="1" gradientUnits="userSpaceOnUse" gradientTransform="translate(670.913 15.8172) rotate(-122.276) scale(89.2052 89.2052)">
<stop stop-color="white"/>
<stop offset="0.6035" stop-color="#E9E7E3"/>
<stop offset="1" stop-color="#D8D6CE"/>
</radialGradient>
<radialGradient id="paint6_radial_69_10387" cx="0" cy="0" r="1" gradientUnits="userSpaceOnUse" gradientTransform="translate(778.763 29.6692) scale(85.592 85.592)">
<stop stop-color="white"/>
<stop offset="0.6035" stop-color="#E9E7E3"/>
<stop offset="1" stop-color="#D8D6CE"/>
</radialGradient>
<radialGradient id="paint7_radial_69_10387" cx="0" cy="0" r="1" gradientUnits="userSpaceOnUse" gradientTransform="translate(920.913 15.8172) rotate(-122.276) scale(89.2052 89.2052)">
<stop stop-color="white"/>
<stop offset="0.6035" stop-color="#E9E7E3"/>
<stop offset="1" stop-color="#D8D6CE"/>
</radialGradient>
<radialGradient id="paint8_radial_69_10387" cx="0" cy="0" r="1" gradientUnits="userSpaceOnUse" gradientTransform="translate(1028.76 29.6692) scale(85.592 85.592)">
<stop stop-color="white"/>
<stop offset="0.6035" stop-color="#E9E7E3"/>
<stop offset="1" stop-color="#D8D6CE"/>
</radialGradient>
<radialGradient id="paint9_radial_69_10387" cx="0" cy="0" r="1" gradientUnits="userSpaceOnUse" gradientTransform="translate(1170.91 15.8172) rotate(-122.276) scale(89.2052 89.2052)">
<stop stop-color="white"/>
<stop offset="0.6035" stop-color="#E9E7E3"/>
<stop offset="1" stop-color="#D8D6CE"/>
</radialGradient>
<radialGradient id="paint10_radial_69_10387" cx="0" cy="0" r="1" gradientUnits="userSpaceOnUse" gradientTransform="translate(1278.76 29.6692) scale(85.592 85.592)">
<stop stop-color="white"/>
<stop offset="0.6035" stop-color="#E9E7E3"/>
<stop offset="1" stop-color="#D8D6CE"/>
</radialGradient>
<radialGradient id="paint11_radial_69_10387" cx="0" cy="0" r="1" gradientUnits="userSpaceOnUse" gradientTransform="translate(1420.91 15.8172) rotate(-122.276) scale(89.2052 89.2052)">
<stop stop-color="white"/>
<stop offset="0.6035" stop-color="#E9E7E3"/>
<stop offset="1" stop-color="#D8D6CE"/>
</radialGradient>
<clipPath id="clip0_69_10387">
<rect width="223" height="148" fill="white"/>
</clipPath>
<clipPath id="clip1_69_10387">
<rect width="223" height="148" fill="white" transform="translate(250)"/>
</clipPath>
<clipPath id="clip2_69_10387">
<rect width="223" height="148" fill="white" transform="translate(500)"/>
</clipPath>
<clipPath id="clip3_69_10387">
<rect width="223" height="148" fill="white" transform="translate(750)"/>
</clipPath>
<clipPath id="clip4_69_10387">
<rect width="223" height="148" fill="white" transform="translate(1000)"/>
</clipPath>
<clipPath id="clip5_69_10387">
<rect width="223" height="148" fill="white" transform="translate(1250)"/>
</clipPath>
</defs>
</svg>
